<?xml version="1.0" encoding="iso-8859-1"?>
<!-- Generator: Adobe Illustrator 19.0.0, SVG Export Plug-In . SVG Version: 6.00 Build 0)  -->
<svg xmlns="http://www.w3.org/2000/svg" xmlns:xlink="http://www.w3.org/1999/xlink" version="1.1" id="Capa_1" x="0px" y="0px" viewBox="0 0 490.667 490.667" style="enable-background:new 0 0 490.667 490.667;" xml:space="preserve" width="512px" height="512px">
<g>
	<g>
		<path d="M437.333,0h-384C23.467,0,0,23.467,0,53.333V352c0,29.867,23.467,53.333,53.333,53.333h160v21.333h-74.667    c-29.867,0-53.333,23.467-53.333,53.333c0,6.4,4.267,10.667,10.667,10.667h298.667c6.4,0,10.667-4.267,10.667-10.667    c0-29.867-23.467-53.333-53.333-53.333h-74.667v-21.333h160c29.867,0,53.333-23.467,53.333-53.333V53.333    C490.667,23.467,467.2,0,437.333,0z M352,448c14.933,0,25.6,8.533,29.867,21.333H108.8c4.267-12.8,17.067-21.333,29.867-21.333    H352z M234.667,426.667v-21.333H256v21.333H234.667z M469.333,352c0,17.066-14.933,32-32,32h-384c-17.067,0-32-14.934-32-32    v-10.667h448V352z M469.333,320h-448V53.333c0-17.066,14.933-32,32-32h384c17.067,0,32,14.934,32,32V320z" fill="#333333"/>
	</g>
</g>
<g>
	<g>
		<path d="M309.333,234.667c-17.067,0-32,14.934-32,32s14.933,32,32,32s32-14.934,32-32S326.4,234.667,309.333,234.667z     M309.333,277.333c-6.4,0-10.667-4.267-10.667-10.667c0-6.4,4.267-10.667,10.667-10.667S320,260.267,320,266.667    C320,273.066,315.733,277.333,309.333,277.333z" fill="#333333"/>
	</g>
</g>
<g>
	<g>
		<path d="M377.6,91.734c2.133-4.267,0-6.4-4.267-6.4H151.467l-4.267-12.8C145.067,68.266,140.8,64,136.534,64H93.867    c-6.4,0-10.667,4.267-10.667,10.667c0,6.4,4.267,10.667,10.667,10.667H128l40.533,162.133c2.133,4.267,6.4,8.533,10.667,8.533    h2.133c6.4-2.133,8.533-6.4,8.533-12.8l-8.533-29.867l168.533-19.2c4.267,0,8.533-4.267,8.533-8.533l21.333-85.333    C379.733,98.133,379.733,93.867,377.6,91.734z M343.467,170.667l-164.267,19.2l-21.333-85.333h202.667L343.467,170.667z" fill="#333333"/>
	</g>
</g>
<g>
	<g>
		<path d="M224,234.667c-17.067,0-32,14.934-32,32s14.933,32,32,32c17.067,0,32-14.934,32-32S241.067,234.667,224,234.667z     M224,277.333c-6.4,0-10.667-4.267-10.667-10.667c0-6.4,4.267-10.667,10.667-10.667c6.4,0,10.667,4.267,10.667,10.667    C234.667,273.066,230.4,277.333,224,277.333z" fill="#333333"/>
	</g>
</g>
<g>
</g>
<g>
</g>
<g>
</g>
<g>
</g>
<g>
</g>
<g>
</g>
<g>
</g>
<g>
</g>
<g>
</g>
<g>
</g>
<g>
</g>
<g>
</g>
<g>
</g>
<g>
</g>
<g>
</g>
</svg>
