<svg id="Слой_1" data-name="Слой 1" xmlns="http://www.w3.org/2000/svg" viewBox="0 0 25 25"><defs><style>.cls-1{fill:#ff931e;}</style></defs><title>time_work</title><circle class="cls-1" cx="12.5" cy="12.5" r="12.5"/><path d="M5.23,13.22c-.2.19-.35.35-.52.49a.59.59,0,0,1-.86,0,.56.56,0,0,1,0-.85Q4.6,12,5.4,11.28a.59.59,0,0,1,.92,0q.73.71,1.44,1.44a.61.61,0,0,1,.06.92.65.65,0,0,1-1-.06l-.35-.32a5.83,5.83,0,0,0,8.94,4.06A5.83,5.83,0,0,0,13.38,6.76a9.41,9.41,0,0,0-1-.11c-.42,0-.69-.28-.68-.64s.29-.59.71-.6a7.07,7.07,0,1,1-7.06,8.26C5.3,13.55,5.27,13.41,5.23,13.22Z"/><path d="M12.87,10.8c0,.68,0,1.36,0,2a1.32,1.32,0,0,1-.32.76c-.65.7-1.34,1.36-2,2-.37.36-.73.4-1,.11a.69.69,0,0,1,.09-1c.57-.58,1.16-1.14,1.71-1.73a1,1,0,0,0,.25-.6c0-1.24,0-2.49,0-3.74a.64.64,0,0,1,.81-.7.66.66,0,0,1,.5.72C12.87,9.38,12.87,10.09,12.87,10.8Z"/><path d="M16.65,12H17a.4.4,0,0,1,.45.42.41.41,0,0,1-.42.45c-.19,0-.37,0-.56,0s-.53-.11-.54-.43.24-.46.55-.44Z"/><path d="M15.8,15.86a.42.42,0,0,1-.64.38,2.84,2.84,0,0,1-.64-.64.41.41,0,0,1,.36-.63A1.55,1.55,0,0,1,15.8,15.86Z"/><path d="M14.87,10a.41.41,0,0,1-.35-.64,3,3,0,0,1,.61-.61A.42.42,0,0,1,15.8,9C15.81,9.32,15.17,10,14.87,10Z"/><path d="M12.39,17c0,.1,0,.2,0,.3,0,.27-.15.44-.43.44s-.41-.18-.43-.44a1.57,1.57,0,0,1,0-.64.74.74,0,0,1,.42-.43c.25-.05.41.16.42.43C12.39,16.73,12.39,16.85,12.39,17Z"/></svg>