<svg id="Слой_1" data-name="Слой 1" xmlns="http://www.w3.org/2000/svg" viewBox="0 0 36 36" fill="#333"><title>user</title><path d="M0,18.64Q0,18,0,17.39c0-.15,0-.29.06-.44a17.81,17.81,0,0,1,.22-2,17.58,17.58,0,0,1,1.54-4.81A18,18,0,0,1,17.22,0l.17,0h1.25l.14,0A18.52,18.52,0,0,1,21,.25a17.59,17.59,0,0,1,3.67,1A18,18,0,0,1,35.37,13.2a16,16,0,0,1,.6,3.67A.93.93,0,0,0,36,17v2a1,1,0,0,0,0,.15,11.47,11.47,0,0,1-.13,1.39,17.3,17.3,0,0,1-.78,3.29,18.06,18.06,0,0,1-10.13,10.8A17.71,17.71,0,0,1,19.1,36L19,36h-1.9l-.12,0a17,17,0,0,1-1.79-.19,17.61,17.61,0,0,1-3.83-1.06A18.05,18.05,0,0,1,.71,22.92a17.55,17.55,0,0,1-.65-3.85C0,18.93,0,18.79,0,18.64ZM29.31,29.43a12.2,12.2,0,0,0-22.57,0A16,16,0,0,0,29.31,29.43ZM18,7.08a6.43,6.43,0,1,0,6.42,6.44A6.44,6.44,0,0,0,18,7.08Z"/></svg>