<svg id="Слой_1" data-name="Слой 1" xmlns="http://www.w3.org/2000/svg" viewBox="0 0 256 256"><defs><style>.cls-1{fill:#d42927;}.cls-2{fill:#fffffe;}.cls-3{fill:none;}</style></defs><title>youtube-logo</title><g id="Layer_1"><g id="_251945080" data-name=" 251945080"><path id="_251945488" data-name=" 251945488" class="cls-1" d="M208,142.69v56.61c0,13.58-11.78,24.69-26.18,24.69H74.18C59.77,224,48,212.89,48,199.31V142.69C48,129.11,59.77,118,74.18,118H181.82C196.22,118,208,129.11,208,142.69Z"/><polygon id="_251945728" data-name=" 251945728" class="cls-2" points="59.13 136.82 59.13 145.63 70.25 145.66 70.25 205.38 81.38 205.38 81.38 145.75 94.75 145.75 94.75 136.88 59.13 136.82"/><path id="_251945536" data-name=" 251945536" class="cls-2" d="M92.5,154.63l0,31.56c0,4.84-.12,8.45,0,10.09.27,2.9.17,6.27,2.86,8.2,5,3.61,14.66-.54,17.06-5.7l0,6.6h8.9V154.63H110.25v31.85c0,4.61.28,6.91,0,7.72-.91,2.47-5,5.09-6.58.27-.26-.84,0-3.39,0-7.77l0-32.07H92.5Z"/><path id="_251945296" data-name=" 251945296" class="cls-2" d="M128,136.88,127.95,205l9.16-.14.83-4.25C149.66,211.35,157,204,157,191.14V164.61s-7.66-16.14-17.87-8V136.88H128Zm10.88,26.39c0-2.2,2.19-4,4.87-4s4.88,1.81,4.88,4v29.82c0,2.2-2.19,4-4.88,4s-4.87-1.8-4.87-4Z"/><path id="_251944744" data-name=" 251944744" class="cls-2" d="M169.71,154.41A12.55,12.55,0,0,0,165,160.7a35.32,35.32,0,0,0-1.42,11.21v15.76c0,26.28,31.92,22.56,28.12,0l-8.34.05c0,.32,0,.71,0,1.13v4.69a4.55,4.55,0,0,1-4.56,4.51h-1.63a4.55,4.55,0,0,1-4.56-4.51V181.25h19.13v-7.19a115.62,115.62,0,0,0-.56-13.51c-1.38-9.5-14.72-11-21.47-6.14Zm8.69,7a5,5,0,0,1,4.94,4.92l-.11,6.08H172.75l.05-6.08a4.94,4.94,0,0,1,4.93-4.92Z"/><polygon id="_251945416" data-name=" 251945416" points="86.75 66.71 86.77 107.13 98.5 107.13 98.5 66.69 112.31 32 99.52 32 92.16 57.77 84.71 32.13 72.05 32.13 86.75 66.71"/><path id="_251944864" data-name=" 251944864" d="M112.63,60.17A44.14,44.14,0,0,0,111.38,72V86a56.81,56.81,0,0,0,.69,10.38,16.28,16.28,0,0,0,2.33,5.9,9.74,9.74,0,0,0,4.57,3.65,18.46,18.46,0,0,0,7.16,1.21,15.06,15.06,0,0,0,6.72-1.42,11.49,11.49,0,0,0,4.77-4.38,16.93,16.93,0,0,0,2.45-6.4,73.08,73.08,0,0,0,.57-10.76V70.83a44.5,44.5,0,0,0-.62-8.63,17.21,17.21,0,0,0-2.3-5.48A12.16,12.16,0,0,0,133,52.4a15.35,15.35,0,0,0-7.37-1.66,12.69,12.69,0,0,0-13,9.43ZM121.13,93V64.86a5,5,0,1,1,9.88,0V93a5,5,0,1,1-9.87,0Z"/><path id="_251944672" data-name=" 251944672" d="M147.63,52.75V88.33c0,4.53.08,7.55.22,9.08a15.27,15.27,0,0,0,1.06,4.4,7.57,7.57,0,0,0,2.68,3.37,7.71,7.71,0,0,0,4.56,1.26,7.08,7.08,0,0,0,4.27-1.32,10.27,10.27,0,0,0,3.12-4l-.21,4.36h12.42V52.75H166v41a4.06,4.06,0,0,1-8.12,0v-41H147.63Z"/></g></g><rect class="cls-3" width="256" height="256"/></svg>