<svg id="Слой_1" data-name="Слой 1" xmlns="http://www.w3.org/2000/svg" viewBox="0 0 1347.17 884.52"><defs><style>.cls-1,.cls-3{fill:#f7931e;}.cls-1,.cls-4,.cls-5,.cls-6{stroke:#212121;}.cls-1,.cls-10,.cls-2,.cls-4,.cls-5,.cls-6,.cls-9{stroke-miterlimit:10;}.cls-1,.cls-4,.cls-5,.cls-9{stroke-width:6px;}.cls-10,.cls-2,.cls-4,.cls-7,.cls-9{fill:ivory;}.cls-2{stroke:#f7931e;stroke-width:7px;}.cls-5,.cls-6,.cls-8{fill:#212121;}.cls-10,.cls-9{stroke:ivory;}.cls-10{stroke-width:5px;}</style></defs><title>4</title><path class="cls-1" d="M639.08,416.59c-75.36-8-159.15-79.56-185.41-155.16-23.81-68.57-14.22-125.33,17.5-173.56,48.5-73.72,125.27-100.22,233.66-71.59C782.79,36.88,860,94.54,898,161.56c-101.41-42.3-182-35.63-239.51,24.62C602.58,244.8,585.53,318,639.08,416.59Zm43.48-275.77c32.93-5.95,60.51-14.69,90.73-15.34,30.63-.65,63.87,6.7,95.82,10.53C813.57,45.8,627.93-18.78,570.65,33.86c38.94-.39,76.87,1.06,116.53,19.4L638.54,81.55l3.23,4.91,67.91,13.76Z"/><path class="cls-2" d="M682.57,140.82l13.6-20.37a16.32,16.32,0,0,0-10.34-25.06l-45.22-9.16-.88-5.36,17-9.86c12.68-7.37,10-26.42-4.27-30-27.39-6.82-54.32-7.45-81.76-7.18C627.93-18.78,813.57,45.8,869.12,136c-31.94-3.83-65.19-11.18-95.82-10.53C743.08,126.13,715.5,134.87,682.57,140.82Z"/><circle class="cls-3" cx="633.31" cy="84.12" r="7" transform="translate(155.83 508.59) rotate(-49.2)"/><path class="cls-4" d="M949.36,491.08c-4.52,13.34-12.92,22.31-27.48,24.3l-10,1.35c-6.08.82-12.16,1.71-18.25,2.43-3.33.4-5,2-6.25,5.25-6.44,16.2-13.37,32.2-19.79,48.41a9.2,9.2,0,0,0,.63,7.42c5.24,7.68,11.08,14.94,16.65,22.39,10.89,14.55,10,29.82-2.73,42.75Q865.75,662.11,849,678.55c-12.94,12.73-28.2,13.65-42.75,2.77-7.3-5.46-14.65-10.87-21.8-16.52-2.88-2.27-5.25-2.25-8.61-.8-15.66,6.77-31.4,13.37-47.29,19.58-3.94,1.54-5.45,3.64-5.95,7.56-1.28,10.14-2.51,20.32-4.44,30.35a29.24,29.24,0,0,1-28.78,24.17q-26,.42-51.93,0c-15.75-.27-27.29-11.37-29.69-27.94-1.28-8.83-2.54-17.67-3.57-26.54-.45-3.92-2-6-5.93-7.56-15.89-6.2-31.62-12.82-47.28-19.6-3.34-1.45-5.72-1.5-8.61.78-7.3,5.76-14.78,11.31-22.25,16.85-14,10.42-29.39,9.54-41.91-2.67q-17.19-16.76-34-34c-12.21-12.52-13.11-27.87-2.69-41.91,5.65-7.62,11.63-15,17-22.84a9.19,9.19,0,0,0,.66-7.41c-6.49-16.38-13.54-32.54-20-48.93-1.49-3.78-3.93-4.41-7.16-4.86-10.13-1.42-20.31-2.56-30.34-4.48a29.25,29.25,0,0,1-24.15-28.8q-.42-26,0-51.93c.28-15.75,11.38-27.28,28-29.68,8.83-1.28,17.67-2.54,26.54-3.56,3.93-.45,6-2,7.55-5.95,6.21-15.89,12.83-31.62,19.6-47.28,1.45-3.35,1.49-5.72-.79-8.61-5.76-7.3-11.31-14.78-16.85-22.25-10.43-14.06-9.53-29.37,2.71-41.89q16.77-17.18,34-34c12.53-12.23,27.84-13.13,41.89-2.7,7.47,5.54,14.95,11.09,22.25,16.85,2.89,2.28,5.26,2.23,8.61.78,15.66-6.77,31.39-13.39,47.28-19.6,4-1.55,5.48-3.64,5.93-7.56,1-8.87,2.29-17.71,3.57-26.54,2-13.58,9.11-22.9,22.52-27a9.2,9.2,0,0,0,1.84-1.07H694.7a9.18,9.18,0,0,0,1.84,1.07c13.41,4.07,20.56,13.39,22.52,27,1.28,8.83,2.54,17.67,3.57,26.54.45,3.92,2,6,5.94,7.56,15.89,6.2,31.62,12.82,47.28,19.6,3.35,1.45,5.72,1.49,8.61-.79,7.3-5.76,14.78-11.31,22.25-16.85,14-10.42,29.4-9.53,41.91,2.68q17.18,16.77,33.94,34c12.23,12.54,13.13,27.84,2.7,41.9-5.54,7.47-11.09,14.95-16.85,22.25-2.28,2.89-2.23,5.26-.78,8.61C874.4,363,881,378.79,887.25,394.66c1.42,3.6,3.13,5.5,7,5.88,6.29.63,12.56,1.51,18.8,2.48,8.41,1.31,17,1.73,24.27,7.26,6.2,4.74,9.31,11.33,12.05,18.25ZM545.28,634.47c6.4,2,11.61,3.32,16.54,5.29,16,6.42,31.82,13.32,47.87,19.6C621.15,663.84,628,671.74,630,683.8c1.59,9.91,3,19.86,4.26,29.82.48,3.93,2.16,5.46,6.11,5.43q23.17-.19,46.35,0c4,0,5.51-1.71,6-5.56,1.17-9.6,2.72-19.15,4.08-28.72,1.93-13.6,9.85-21.59,22.61-26.27C734.48,653,749.47,646.85,764,640c13-6.11,24.66-5.56,36,3.16,7.38,5.66,14.92,11.12,22.23,16.87,3.11,2.45,5.44,2.25,8.19-.54q16.07-16.31,32.39-32.37c3-2.9,3.24-5.29.62-8.62-6.31-8.05-12.52-16.2-18.43-24.55-6.94-9.79-7.27-20.19-2.52-31.18,7.06-16.34,13.94-32.76,20.47-49.32,4.51-11.44,12.43-18.27,24.49-20.18,9.92-1.57,19.86-3,29.82-4.25,4-.49,5.36-2.34,5.33-6.21q-.17-23.17,0-46.35c0-3.69-1.45-5.33-5.13-5.79-9.59-1.21-19.14-2.76-28.72-4.08-13.81-1.9-22-9.78-26.73-22.81-5.5-15.15-11.7-30.09-18.53-44.69-6-12.77-5.58-24.31,3-35.54,5.64-7.4,11.12-14.93,16.87-22.24,2.52-3.2,2.7-5.64-.37-8.64q-16.36-16-32.39-32.36c-2.95-3-5.37-3-8.63-.49-7.91,6.2-15.92,12.27-24.08,18.13-9.93,7.13-20.43,7.59-31.65,2.71Q741.79,270,716.94,260.18c-11.23-4.43-18-12.22-20-24q-2.48-14.85-4.26-29.82c-.49-4.15-2.15-5.82-6.39-5.78q-22.89.23-45.79,0c-4.29,0-5.84,1.74-6.33,5.84-1.12,9.41-2.71,18.77-4,28.17-1.88,13.58-9.62,21.75-22.39,26.47-15.29,5.66-30.44,11.83-45.21,18.72-12.8,6-24.33,5.43-35.54-3.09-7.4-5.63-14.93-11.11-22.22-16.89-3.29-2.61-5.7-2.43-8.63.55q-15.84,16.15-32,32c-3.12,3-3.51,5.52-.71,9.06q9.35,11.82,18.14,24.07c7.11,10,7.46,20.47,2.58,31.66-7,16-13.7,32.06-20,48.3-4.59,11.84-12.52,19.08-25.11,21-9.74,1.49-19.48,3-29.27,4.18-4.25.5-5.68,2.37-5.64,6.51q.22,22.89,0,45.79c0,3.93,1.46,5.65,5.41,6.14,9.6,1.17,19.14,2.74,28.72,4.07,13.36,1.85,21.47,9.48,26.2,22,5.9,15.6,12.24,31.06,19.14,46.25,5.53,12.19,5.16,23.34-2.84,34.09-5.66,7.61-11.3,15.25-17.19,22.7-2.67,3.38-2.83,5.91.42,9.08q16.19,15.79,32,32c3.15,3.23,5.67,3.18,9.08.48,7.44-5.89,14.82-11.93,22.78-17.06C533.33,639.08,539.72,637,545.28,634.47Z"/><path class="cls-5" d="M545.28,634.47c-5.57,2.54-12,4.62-17.41,8.13-8,5.13-15.34,11.17-22.78,17.06-3.41,2.7-5.94,2.75-9.08-.48q-15.78-16.19-32-32c-3.25-3.17-3.1-5.69-.42-9.08,5.88-7.44,11.52-15.08,17.19-22.7,8-10.76,8.37-21.9,2.84-34.09-6.89-15.19-13.24-30.65-19.14-46.25-4.72-12.5-12.84-20.13-26.2-22-9.58-1.33-19.13-2.9-28.72-4.07-3.95-.48-5.44-2.21-5.41-6.14q.18-22.89,0-45.79c0-4.14,1.38-6,5.64-6.51,9.78-1.16,19.53-2.69,29.27-4.18,12.58-1.93,20.51-9.16,25.11-21,6.3-16.24,13-32.33,20-48.3,4.89-11.2,4.53-21.71-2.58-31.66q-8.75-12.26-18.14-24.07c-2.8-3.53-2.4-6,.71-9.06q16.17-15.81,32-32c2.92-3,5.34-3.16,8.63-.55,7.29,5.78,14.82,11.26,22.22,16.89,11.21,8.53,22.74,9.06,35.54,3.09,14.77-6.89,29.92-13.06,45.21-18.72,12.77-4.73,20.51-12.89,22.39-26.47,1.3-9.39,2.89-18.75,4-28.17.49-4.1,2-5.88,6.33-5.84q22.89.24,45.79,0c4.24,0,5.89,1.63,6.39,5.78q1.78,15,4.26,29.82c2,11.8,8.76,19.59,20,24q24.83,9.8,49.32,20.46c11.21,4.88,21.71,4.42,31.65-2.71,8.16-5.86,16.17-11.93,24.08-18.13,3.27-2.56,5.68-2.52,8.63.49q16,16.34,32.39,32.36c3.07,3,2.89,5.45.37,8.64-5.75,7.31-11.23,14.83-16.87,22.24-8.55,11.23-8.94,22.77-3,35.54,6.83,14.6,13,29.54,18.53,44.69,4.73,13,12.92,20.91,26.73,22.81,9.58,1.32,19.13,2.87,28.72,4.08,3.68.47,5.15,2.1,5.13,5.79q-.15,23.17,0,46.35c0,3.87-1.33,5.72-5.33,6.21-10,1.22-19.91,2.68-29.82,4.25-12.07,1.91-20,8.74-24.49,20.18-6.53,16.56-13.41,33-20.47,49.32-4.75,11-4.42,21.39,2.52,31.18,5.91,8.35,12.12,16.5,18.43,24.55,2.61,3.33,2.33,5.72-.62,8.62q-16.34,16-32.39,32.37c-2.74,2.78-5.07,3-8.19.54-7.31-5.75-14.85-11.21-22.23-16.87-11.36-8.72-23-9.27-36-3.16-14.58,6.86-29.56,13-44.7,18.51-12.76,4.67-20.68,12.67-22.61,26.27-1.36,9.57-2.9,19.12-4.08,28.72-.47,3.85-1.95,5.59-6,5.56q-23.17-.19-46.35,0c-3.95,0-5.63-1.49-6.11-5.43-1.22-10-2.67-19.91-4.26-29.82-1.94-12.06-8.81-20-20.25-24.44-16.06-6.28-31.87-13.18-47.87-19.6C556.89,637.78,551.68,636.49,545.28,634.47ZM663.4,335.77c-68.29,0-123.92,55.61-124,123.93s55.44,124,123.79,124.15,124.41-55.74,124.28-124.2S731.68,335.75,663.4,335.77Z"/><path class="cls-3" d="M663.4,335.77c68.29,0,123.94,55.54,124.06,123.87S731.62,584,663.17,583.84,539.3,528,539.39,459.7,595.1,335.8,663.4,335.77Zm97.33,123.85a97.3,97.3,0,1,0-97,97.48A97.27,97.27,0,0,0,760.72,459.63Z"/><path class="cls-6" d="M373.41,372c-1.94,15.47-5,30.2-11.22,44.15-3.93,8.85-8.14,17.57-13.54,25.63a118.27,118.27,0,0,1-28.84,29.91c-15,10.95-31.13,19.86-49.33,24.48a147,147,0,0,1-36.07,4.65q-49.8.07-99.6,0h-3.3c-.05,1.22-.14,2.23-.14,3.24q0,38.52,0,77,0,32.28,0,64.56a4.22,4.22,0,0,1-1.93,4c-3.42,2.36-6.7,4.92-10,7.47a5.39,5.39,0,0,1-3.51,1.21q-50,0-100.08,0a5,5,0,0,1-3.31-1.06c-3.54-2.74-7.13-5.42-10.75-8.07a2.61,2.61,0,0,1-1.3-2.59,14.6,14.6,0,0,0,0-1.68q0-129.72,0-259.44c0-.72,0-1.44,0-2.16a2.12,2.12,0,0,1,1-2c3.86-2.86,7.67-5.77,11.55-8.6a5.31,5.31,0,0,1,2.2-.72,13,13,0,0,1,2.16,0H373.41Zm-3.81,3.24h-351a13.3,13.3,0,0,1-1.44,0,4.4,4.4,0,0,0-3.3,1.11c-2.15,1.67-4.36,3.25-6.52,4.91-3.76,2.88-3.35,1.87-3.36,6.67q0,127.31,0,254.61c0,.64.05,1.28,0,1.92a3.53,3.53,0,0,0,1.69,3.45c2.15,1.52,4.33,3,6.33,4.75A9.68,9.68,0,0,0,18.75,655q47.15-.11,94.31,0a14,14,0,0,0,2.39,0,6.05,6.05,0,0,0,2.45-.81c3.06-2.19,6-4.5,9-6.74A2.45,2.45,0,0,0,128,645.1c0-.8,0-1.6,0-2.4q0-70.55,0-141.1c0-3.8-.83-4.16,4.22-4.16q48,0,96,0a177.62,177.62,0,0,0,26.54-1.57,127.68,127.68,0,0,0,24-5.69,152,152,0,0,0,37.15-19.79,112.68,112.68,0,0,0,28.68-28.72c12.08-17.91,20.36-37.45,23.87-58.87C368.84,380.48,369.17,378.13,369.6,375.27Z"/><path class="cls-6" d="M207.41,340.31q-95.16,0-190.32,0a7.83,7.83,0,0,1-5.27-1.73c-3.18-2.55-6.48-5-9.78-7.35a3.12,3.12,0,0,1-1.53-3c.11-2.07,0-4.16,0-6.24q0-47.4,0-94.8a4.43,4.43,0,0,1,2-4.16c3.48-2.41,6.83-5,10.19-7.6a4.2,4.2,0,0,1,3.08-1c.48,0,1,0,1.44,0q190.32,0,380.63,0a8.68,8.68,0,0,1,5.92,1.94c2.91,2.38,5.93,4.63,9,6.77a4.19,4.19,0,0,1,2,3.94c-.08,14.88,0,29.76,0,44.64,0,18.64,0,37.28,0,55.92a4.19,4.19,0,0,1-1.94,4c-3.35,2.32-6.59,4.82-9.8,7.33a6.33,6.33,0,0,1-4.17,1.41c-13.76,0-27.52,0-41.28,0Zm0-3.34H396.27a15,15,0,0,0,2.4,0,5.89,5.89,0,0,0,2.44-.77c3.06-2.19,6-4.5,9-6.73a2.72,2.72,0,0,0,1.24-2.44c0-.72,0-1.44,0-2.16q0-47.4,0-94.79a8.28,8.28,0,0,1,0-1.2c.28-1.91-.6-3.14-2.12-4.19a67.8,67.8,0,0,1-6.14-4.61,9.61,9.61,0,0,0-6.79-2.28q-188.75.08-377.49,0c-.56,0-1.12,0-1.68,0A4.76,4.76,0,0,0,13.66,219c-2.46,1.91-4.92,3.85-7.5,5.59a4.92,4.92,0,0,0-2.26,4.63q.08,48.12,0,96.23a6.69,6.69,0,0,1,0,.72,3.66,3.66,0,0,0,1.78,3.64c2.35,1.65,4.69,3.35,6.91,5.19a8.62,8.62,0,0,0,5.91,2Q113,336.93,207.4,337Z"/><path class="cls-7" d="M369.6,375.27c-.43,2.87-.76,5.22-1.15,7.56-3.51,21.43-11.79,41-23.87,58.87a112.68,112.68,0,0,1-28.68,28.72,152,152,0,0,1-37.15,19.79,127.68,127.68,0,0,1-24,5.69,177.62,177.62,0,0,1-26.54,1.57q-48-.09-96,0c-5,0-4.22.36-4.22,4.16q0,70.55,0,141.1c0,.8,0,1.6,0,2.4a2.45,2.45,0,0,1-1.09,2.25c-3,2.24-6,4.55-9,6.74a6.05,6.05,0,0,1-2.45.81,14,14,0,0,1-2.39,0q-47.15,0-94.31,0A9.68,9.68,0,0,1,12,652.68c-2-1.72-4.17-3.23-6.33-4.75a3.53,3.53,0,0,1-1.69-3.45c.06-.63,0-1.28,0-1.92q0-127.31,0-254.61c0-4.81-.41-3.79,3.36-6.67,2.16-1.65,4.37-3.24,6.52-4.91a4.4,4.4,0,0,1,3.3-1.11,13.3,13.3,0,0,0,1.44,0h351Zm-24.69,18.51c-1.36-.06-2.45-.15-3.55-.15H26c-3.95,0-4,0-4,4q0,117.71,0,235.43c0,3.83,0,3.83,3.83,3.83h79.68c4.38,0,4.09.16,4.09-4q0-74.87,0-149.75c0-4-.33-3.71,3.81-3.71q57.36,0,114.71,0a170,170,0,0,0,27.47-1.93c12.17-2,23.82-5.52,34.46-11.91a156.6,156.6,0,0,0,20.74-14.68A99,99,0,0,0,325.2,436.4a107,107,0,0,0,19.4-40.33A22.48,22.48,0,0,0,344.91,393.78Z"/><path class="cls-7" d="M207.4,337Q113,337,18.53,337a8.62,8.62,0,0,1-5.91-2c-2.21-1.84-4.55-3.53-6.91-5.19a3.66,3.66,0,0,1-1.78-3.64,6.69,6.69,0,0,0,0-.72q0-48.12,0-96.23a4.92,4.92,0,0,1,2.26-4.63c2.58-1.74,5-3.68,7.5-5.59a4.76,4.76,0,0,1,3.52-1.19c.55.06,1.12,0,1.68,0q188.75,0,377.49,0a9.61,9.61,0,0,1,6.79,2.28,67.8,67.8,0,0,0,6.14,4.61c1.53,1,2.4,2.28,2.12,4.19a8.28,8.28,0,0,0,0,1.2q0,47.4,0,94.79c0,.72,0,1.44,0,2.16a2.72,2.72,0,0,1-1.24,2.44c-3,2.24-6,4.55-9,6.73a5.89,5.89,0,0,1-2.44.77,15,15,0,0,1-2.4,0Zm.25-18.35H389.8c3.43,0,3.43,0,3.45-3.48,0-.16,0-.32,0-.48q0-37.32,0-74.64c0-3.85,0-3.86-3.79-3.86H25.88c-3.81,0-3.81,0-3.81,3.84q0,37.44,0,74.88c0,.4,0,.8,0,1.2.08,2.31.24,2.48,2.47,2.53.8,0,1.6,0,2.4,0Z"/><path class="cls-8" d="M344.91,393.78a22.48,22.48,0,0,1-.31,2.29,107,107,0,0,1-19.4,40.33,99,99,0,0,1-14.33,14.47,156.6,156.6,0,0,1-20.74,14.68c-10.65,6.39-22.29,9.94-34.46,11.91a170,170,0,0,1-27.47,1.93q-57.36-.06-114.71,0c-4.14,0-3.81-.25-3.81,3.71q0,74.87,0,149.75c0,4.16.29,4-4.09,4H25.91c-3.83,0-3.83,0-3.83-3.83q0-117.71,0-235.43c0-3.95,0-4,4-4H341.37C342.46,393.63,343.56,393.72,344.91,393.78ZM106.42,476h3.31q58.68,0,117.35,0a188.29,188.29,0,0,0,22-1,111,111,0,0,0,27.45-6.51c9.72-3.77,18.22-9.59,26.56-15.69a97.76,97.76,0,0,0,37-52.88c.25-.87.45-1.76.69-2.7H25.61V633.1c2.55.53,78.82.45,80.81-.13Z"/><path class="cls-8" d="M207.65,318.62H26.94c-.8,0-1.6,0-2.4,0-2.23-.05-2.38-.22-2.47-2.53,0-.4,0-.8,0-1.2q0-37.44,0-74.88c0-3.83,0-3.84,3.81-3.84H389.47c3.78,0,3.79,0,3.79,3.86q0,37.32,0,74.64c0,.16,0,.32,0,.48,0,3.47,0,3.48-3.45,3.48Zm182.07-78.85a4.64,4.64,0,0,0-.89-.22l-361.64,0a9,9,0,0,0-1.18.13.44.44,0,0,0-.21.1,1.9,1.9,0,0,0-.2.25v75.1H389.73Z"/><path class="cls-8" d="M106.42,476V633c-2,.58-78.27.66-80.81.13V397.19H340.78c-.24.95-.43,1.84-.69,2.7a97.76,97.76,0,0,1-37,52.88c-8.34,6.1-16.84,11.92-26.56,15.69A111,111,0,0,1,249.12,475a188.29,188.29,0,0,1-22,1q-58.68,0-117.35,0Z"/><path class="cls-8" d="M389.73,239.77V315.1H25.61V240a1.9,1.9,0,0,1,.2-.25.44.44,0,0,1,.21-.1,9,9,0,0,1,1.18-.13l361.64,0A4.64,4.64,0,0,1,389.73,239.77Z"/><path class="cls-6" d="M1077.61,658.3H1075q-50.28,0-100.56,0a5.61,5.61,0,0,1-4.25-1.64c-4.51-4.31-9.14-8.5-13.72-12.73l-1.88-1.71c.33-.88.61-1.7.94-2.49Q996.82,539,1038.14,438.29a6,6,0,0,0,0-5q-41.33-100.07-82.58-200.18c-.3-.74-.59-1.48-.92-2.32a13.53,13.53,0,0,1,1.06-1.25c5-4.67,10.12-9.32,15.15-14a4,4,0,0,1,3-1.17q51.12,0,102.24,0c.4,0,.79,0,1.51.07L1145,387h4.37L1172,328.62h127.15c-.38,1-.68,1.89-1,2.74q-15,36.61-30,73.21c-3.92,9.54-7.8,19.09-11.81,28.59a6.18,6.18,0,0,0,0,5.2q39,95.05,78,190.15c1.85,4.5,3.68,9,5.65,13.83-.61.49-1.26,1-1.85,1.49-4.71,4.33-9.43,8.65-14.09,13a4.83,4.83,0,0,1-3.6,1.46q-50.64-.07-101.28,0h-2.26c-.47-1.12-.92-2.13-1.33-3.15l-64.82-158.73c-1.45-3.56-1.45-3.56-5.69-2.93Zm216.49-326.22c-1.46-.06-2.39-.14-3.33-.14h-113c-3.51,0-3.37-.33-4.69,3.1Q1165,356,1156.89,376.87c-1.5,3.88-3.05,7.73-4.51,11.63a2.64,2.64,0,0,1-2.85,2c-1.6-.06-3.2-.05-4.8,0a2.49,2.49,0,0,1-2.72-1.84c-.58-1.66-1.24-3.29-1.88-4.93l-37.7-96.5q-13.09-33.51-26.18-67c-.94-2.39-1-2.41-3.45-2.41q-48.6,0-97.19,0a5.11,5.11,0,0,0-3.85,1.49c-3.7,3.53-7.51,7-11.27,10.43-1.93,1.79-1.94,1.8-.93,4.28q6.66,16.19,13.34,32.37l36.65,88.91q15.95,38.69,31.95,77.36c.94,2.25,1.21,4.23-.05,6.33a1.62,1.62,0,0,0-.09.22q-13.38,32.62-26.76,65.23-19.27,47-38.52,94.11L959.53,638.9c-1,2.33-1,2.35.91,4.09,3.69,3.43,7.43,6.8,11.08,10.28a5.75,5.75,0,0,0,4.31,1.63q48.47-.05,97,0c2.62,0,2.63,0,3.65-2.51q8-19.65,16-39.3l41.62-101.91,7.54-18.42c1.18-2.89,1.18-2.89,4.39-2.91.88,0,1.77.06,2.64,0,2.14-.18,3.26.72,4.08,2.77,5.86,14.62,11.86,29.18,17.81,43.76l47,115c1.56,3.83,1.1,3.53,5.15,3.53h95c.56,0,1.12,0,1.68,0a3.89,3.89,0,0,0,3-1.21c3.91-3.66,7.87-7.27,11.8-10.91.52-.48,1-1,1.49-1.6-.4-1-.74-2-1.13-3-1.82-4.44-3.67-8.86-5.48-13.3q-15.27-37.29-30.53-74.58-23-56.15-46.06-112.27a5.44,5.44,0,0,1,0-4.56c4.28-10.25,8.48-20.54,12.7-30.82q13-31.72,26.06-63.45C1292.16,337,1293,334.79,1294.11,332.08Z"/><path class="cls-6" d="M1346.45,214.4c-.39,1.05-.64,1.79-.94,2.5l-44.4,104.89c-.19.44-.42.87-.57,1.32a1.69,1.69,0,0,1-1.95,1.36c-.56-.05-1.12,0-1.68,0q-54,0-108,0c-3.91,0-7.83-.24-11.74-.52-2.49-.18-2.66-.58-2.25-3,1.61-9.71,3.57-19.35,6.94-28.62,4.6-12.69,10.56-24.7,19-35.33,11-13.88,25-23.89,41.15-31a130.27,130.27,0,0,1,38.78-10.24,225.09,225.09,0,0,1,25.14-1.28c12.56,0,25.12,0,37.68,0Zm-5.23,3.57c-.8-.07-1.34-.17-1.88-.17-16.47.14-32.95.12-49.41.52a136.39,136.39,0,0,0-18.32,2.06,118.74,118.74,0,0,0-38.44,13.69,96.05,96.05,0,0,0-33.56,30.24c-11.18,16.4-17.66,34.67-20.91,54.15a15,15,0,0,0,0,2.15c3.05.17,5.9.48,8.75.48q53.75,0,107.51.06a3.58,3.58,0,0,0,3.89-2.57q20.77-49.28,41.68-98.51C1340.79,219.46,1341,218.79,1341.23,218Z"/><path class="cls-7" d="M1294.11,332.08c-1.08,2.71-1.94,4.93-2.85,7.13q-13,31.73-26.06,63.45c-4.22,10.28-8.41,20.57-12.7,30.82a5.44,5.44,0,0,0,0,4.56q23.08,56.12,46.06,112.27,15.28,37.28,30.53,74.58c1.82,4.44,3.66,8.87,5.48,13.3.39,1,.73,1.93,1.13,3-.52.57-1,1.12-1.49,1.6-3.93,3.64-7.89,7.25-11.8,10.91a3.89,3.89,0,0,1-3,1.21c-.56,0-1.12,0-1.68,0h-95c-4.05,0-3.59.29-5.15-3.53l-47-115c-6-14.58-11.95-29.14-17.81-43.76-.82-2-1.94-3-4.08-2.77-.87.07-1.76,0-2.64,0-3.21,0-3.21,0-4.39,2.91l-7.54,18.42-41.62,101.91q-8,19.65-16,39.3c-1,2.49-1,2.51-3.65,2.51q-48.48,0-97,0a5.75,5.75,0,0,1-4.31-1.63c-3.65-3.48-7.39-6.85-11.08-10.28-1.87-1.74-1.87-1.76-.91-4.09l16.55-40.39q19.26-47.05,38.52-94.11,13.36-32.62,26.76-65.23a1.62,1.62,0,0,1,.09-.22c1.26-2.1,1-4.08.05-6.33q-16.06-38.65-31.95-77.36l-36.65-88.91q-6.67-16.19-13.34-32.37c-1-2.48-1-2.49.93-4.28,3.76-3.47,7.57-6.9,11.27-10.43a5.11,5.11,0,0,1,3.85-1.49q48.59,0,97.19,0c2.49,0,2.51,0,3.45,2.41q13.1,33.5,26.18,67l37.7,96.5c.64,1.64,1.3,3.27,1.88,4.93a2.49,2.49,0,0,0,2.72,1.84c1.6,0,3.2-.06,4.8,0a2.64,2.64,0,0,0,2.85-2c1.46-3.89,3-7.75,4.51-11.63Q1165,356,1173.06,335c1.32-3.43,1.18-3.1,4.69-3.1h113C1291.72,331.94,1292.65,332,1294.11,332.08Zm-27.22,18.17c-1.54-.1-2.62-.22-3.71-.22h-73.43c-4.72,0-4-.31-5.74,3.81q-10.78,24.86-21.46,49.77a2.84,2.84,0,0,1-3,2q-12.36-.1-24.72,0a2.59,2.59,0,0,1-2.85-1.91c-1.21-3.22-2.54-6.39-3.83-9.57l-40.57-100q-11.27-27.78-22.47-55.59c-.76-1.9-1.79-2.45-3.74-2.43-12,.08-24,0-36,0H981.41c-.91,0-1.83.07-3.06.13.4,1.21.62,2,.94,2.83q9.4,22.71,18.82,45.42,19.44,47,38.87,94,11.37,27.48,22.77,54.95a5.68,5.68,0,0,1,0,4.78c-2.89,6.85-5.67,13.74-8.5,20.62l-43.08,104.68-21.08,51.23c-2.59,6.28-5.18,12.56-7.74,18.86a30.22,30.22,0,0,0-.87,3c1.18.07,2,.15,2.74.15q40.07,0,80.15,0a3.43,3.43,0,0,0,3.73-2.51c3-7.42,6.08-14.78,9.16-22.16q21.43-51.48,42.87-102.95c4.73-11.37,9.4-22.76,14.17-34.11,1.66-3.95,1-3.37,5-3.39,7.68,0,15.36,0,23,0a3.11,3.11,0,0,1,3.36,2.28c7.38,17.88,14.85,35.73,22.28,53.59q22.2,53.36,44.36,106.74c.73,1.77,1.67,2.86,3.72,2.52a6,6,0,0,1,1,0h78a20,20,0,0,0,2.4-.05,8,8,0,0,0,1.62-.58c-.33-.92-.57-1.68-.86-2.4-1.27-3.11-2.57-6.2-3.85-9.31q-21.47-52.24-42.95-104.47-16.78-40.81-33.62-81.6a6.4,6.4,0,0,1,0-5.26c3.14-7.79,6.14-15.62,9.2-23.44q11-28.25,22.09-56.51C1266.23,352.39,1266.46,351.55,1266.89,350.25Z"/><path class="cls-7" d="M1341.23,218c-.27.82-.43,1.49-.7,2.12q-20.86,49.25-41.68,98.51a3.58,3.58,0,0,1-3.89,2.57q-53.75-.09-107.51-.06c-2.85,0-5.7-.3-8.75-.48a15,15,0,0,1,0-2.15c3.24-19.49,9.73-37.76,20.91-54.15a96.05,96.05,0,0,1,33.56-30.24,118.74,118.74,0,0,1,38.44-13.69,136.39,136.39,0,0,1,18.32-2.06c16.47-.41,32.94-.39,49.41-.52C1339.88,217.8,1340.42,217.9,1341.23,218ZM1312.8,236.4a11.94,11.94,0,0,0-1.39-.23c-12-.07-24-.3-35.91,1.52a89.56,89.56,0,0,0-18.13,4.43c-9.16,3.45-17.21,8.75-24.82,14.82-15.19,12.12-24.44,27.85-28.49,46.74a25.46,25.46,0,0,0-.27,2.74c1.12.08,2,.18,2.83.19,5.12,0,10.24,0,15.36,0,19.52,0,39,0,58.56,0,2,0,3.08-.58,3.78-2.46,1.15-3.07,2.53-6,3.81-9.06q11.86-27.93,23.71-55.86C1312.2,238.42,1312.43,237.51,1312.8,236.4Z"/><path class="cls-8" d="M1266.89,350.25c-.43,1.31-.66,2.14-1,2.94q-11,28.26-22.09,56.51c-3.06,7.82-6.06,15.65-9.2,23.44a6.4,6.4,0,0,0,0,5.26q16.87,40.77,33.62,81.6,21.48,52.23,42.95,104.47c1.28,3.11,2.58,6.2,3.85,9.31.3.73.54,1.48.86,2.4a8,8,0,0,1-1.62.58,20,20,0,0,1-2.4.05h-78a6,6,0,0,0-1,0c-2,.34-3-.75-3.72-2.52q-22.14-53.39-44.36-106.74c-7.43-17.86-14.9-35.71-22.28-53.59a3.11,3.11,0,0,0-3.36-2.28c-7.68.08-15.36,0-23,0-4,0-3.31-.56-5,3.39-4.77,11.35-9.44,22.74-14.17,34.11q-21.43,51.48-42.87,102.95c-3.07,7.38-6.19,14.74-9.16,22.16a3.43,3.43,0,0,1-3.73,2.51q-40.07-.09-80.15,0c-.78,0-1.56-.08-2.74-.15a30.22,30.22,0,0,1,.87-3c2.56-6.29,5.16-12.57,7.74-18.86l21.08-51.23,43.08-104.68c2.83-6.88,5.61-13.77,8.5-20.62a5.68,5.68,0,0,0,0-4.78Q1048.31,406,1037,378.49q-19.44-47-38.87-94-9.4-22.71-18.82-45.42c-.33-.79-.54-1.62-.94-2.83,1.23-.05,2.14-.12,3.06-.13h43.91c12,0,24,0,36,0,1.95,0,3,.53,3.74,2.43q11.15,27.83,22.47,55.59l40.57,100c1.29,3.19,2.63,6.35,3.83,9.57a2.59,2.59,0,0,0,2.85,1.91q12.36-.1,24.72,0a2.84,2.84,0,0,0,3-2q10.66-24.91,21.46-49.77c1.78-4.11,1-3.81,5.74-3.81h73.43C1264.26,350,1265.35,350.15,1266.89,350.25ZM1061.82,633.3l68.61-164.9h33.48l68.6,164.87h78.66c-.42-1.09-.73-2-1.09-2.82q-39.49-96-79-192a6.4,6.4,0,0,1-.07-5.23q15.14-38.49,30.15-77c.31-.79.58-1.6.94-2.58h-74.31L1164,408.69c-.73.06-1.28.14-1.83.14-9.92,0-19.84,0-29.76,0-1.37,0-2.33-.29-2.66-1.75a7.35,7.35,0,0,0-.44-1.11l-53.49-132c-4.41-10.89-8.85-21.77-13.2-32.68-.56-1.39-1.25-2.06-2.8-1.94s-3,0-4.56,0H986.1c-.91,0-1.82.09-3,.16.46,1.17.77,2,1.1,2.79q39.53,95.49,79.09,191a5.9,5.9,0,0,1,0,5q-23.06,55.85-46,111.75l-33.11,80.5c-.35.85-.65,1.72-1,2.77Z"/><path class="cls-8" d="M1312.8,236.4c-.36,1.11-.59,2-1,2.88q-11.84,27.93-23.71,55.86c-1.28,3-2.66,6-3.81,9.06-.7,1.87-1.81,2.46-3.78,2.46-19.52-.07-39,0-58.56,0-5.12,0-10.24,0-15.36,0-.86,0-1.71-.11-2.83-.19a25.46,25.46,0,0,1,.27-2.74c4.05-18.9,13.3-34.62,28.49-46.74,7.61-6.07,15.66-11.37,24.82-14.82a89.56,89.56,0,0,1,18.13-4.43c11.91-1.82,23.91-1.59,35.91-1.52A11.94,11.94,0,0,1,1312.8,236.4ZM1281,303.1c.31-.66.63-1.29.91-1.94q12.93-30.58,25.85-61.17c0-.05,0-.15-.06-.21a2.37,2.37,0,0,0-.2-.27,11.08,11.08,0,0,0-1.35-.11c-7.91.27-15.83.35-23.72.89a89.63,89.63,0,0,0-20.7,3.87c-10.16,3.18-18.9,8.88-27.15,15.44-13.16,10.46-21.67,24-26.16,40.08-.3,1.06-.53,2.14-.84,3.43Z"/><path class="cls-8" d="M1061.82,633.3H983.17c.39-1.05.69-1.92,1-2.77l33.11-80.5q23-55.88,46-111.75a5.9,5.9,0,0,0,0-5q-39.59-95.46-79.09-191c-.33-.81-.64-1.62-1.1-2.79,1.13-.06,2-.16,3-.16h69.11c1.52,0,3,.1,4.56,0s2.24.54,2.8,1.94c4.36,10.91,8.79,21.79,13.2,32.68l53.49,132a7.35,7.35,0,0,1,.44,1.11c.33,1.46,1.29,1.76,2.66,1.75,9.92,0,19.84,0,29.76,0,.55,0,1.1-.08,1.83-.14l23.81-55.1h74.31c-.35,1-.63,1.78-.94,2.58q-15.05,38.52-30.15,77a6.4,6.4,0,0,0,.07,5.23q39.56,96,79,192c.35.86.67,1.73,1.09,2.82h-78.66l-68.6-164.87h-33.48Z"/><path class="cls-8" d="M1281,303.1h-73.43c.32-1.29.55-2.37.84-3.43,4.5-16.12,13-29.61,26.16-40.08,8.25-6.56,17-12.26,27.15-15.44a89.63,89.63,0,0,1,20.7-3.87c7.89-.54,15.81-.62,23.72-.89a11.08,11.08,0,0,1,1.35.11,2.37,2.37,0,0,1,.2.27c0,.06.08.16.06.21q-12.92,30.59-25.85,61.17C1281.64,301.82,1281.32,302.45,1281,303.1Z"/><path class="cls-1" d="M959,367.37C920.77,260.13,801.49,163,722.18,176.05c1.42,22.5-5.92,45.72,5.88,69.81-6.39,2.11-13.45,6.11-20.74,6.58-39.63,2.58-64.72,27.45-87.64,55.79C600.59,331.84,582,355.75,550.93,365c-7.18,2.14-13.69,6.57-20.49,10-3.46-1.18-8-1.33-13-.43a27.37,27.37,0,0,0-9.87,2.91q-1.86.76-3.73,1.68c-14.28,7.08-22.9,18.78-19.26,26.12a7.8,7.8,0,0,0,.48.82,6.83,6.83,0,0,0,1.19,1.63c25.19,41,61,65.84,102,83.82,74.28,32.63,141.79,74.82,194,137.9,20,24.15,36.89,50.9,55.22,76.49C948.9,641.69,1003.13,491,959,367.37ZM529,407.78c19-1.82,36.12-2.69,53-5.25,30.93-4.68,56.75-19.86,81-39.24,16.11-12.86,33.52-25.43,52.37-33.24,33-13.69,64.4,7.55,68.21,43.22,4.5,42.12-17.63,77-59.31,93.45C665.56,489.93,568.52,461.31,529,407.78ZM848.71,656.27,730.81,526c58.66,17,109.81,47.46,154.59,93.69Z"/><path d="M435.75,863.48H422.21v-39.7l-.26-.07-2,4.37q-8,17.22-16,34.46a1.48,1.48,0,0,1-1.61,1c-4.28,0-8.56-.05-12.84,0a1.56,1.56,0,0,1-1.67-1.11q-8.65-18.77-17.35-37.51a3.47,3.47,0,0,0-.83-1.2v39.7H356.05V789.63c.41,0,.83-.08,1.25-.08,3.72,0,7.44,0,11.16,0a1.54,1.54,0,0,1,1.67,1.12q12.53,28.58,25.12,57.13c.22.51.47,1,.8,1.71.42-.94.78-1.7,1.12-2.47q12.27-28.17,24.51-56.35a1.62,1.62,0,0,1,1.78-1.14c3.68.06,7.36,0,11,0,.39,0,.78,0,1.25.05Z"/><path d="M824.45,789.55h1.45c14.48,0,29,0,43.43,0a51,51,0,0,1,7.27.6c2,.3,2.26.78,2.26,2.8,0,9.92,0,19.84,0,29.75a2.39,2.39,0,0,1-1.78,2.63c-1.67.5-3.39.84-5.22,1.29.68.07,1.29.11,1.89.21a33.13,33.13,0,0,1,3.62.71,2,2,0,0,1,1.46,2.09q0,16.68,0,33.35a3.7,3.7,0,0,1-.06.44H865.23v-1.35q0-15.48,0-31c0-1.72-.22-2.13-1.92-2.48a26.59,26.59,0,0,0-5-.58c-6.48-.07-13,0-19.43,0-.23,0-.47,0-.84,0v35.33h-13.6Zm13.6,35.94c.37,0,.61.06.84.06,6.56,0,13.12,0,19.68,0a20.79,20.79,0,0,0,4.49-.61c1.81-.42,2.17-1,2.17-2.88q0-13.8,0-27.59c0-2-.25-2.31-2.32-2.38H838.05Z"/><path d="M492.67,826.57c0-10.52,0-21,0-31.55,0-1.89.75-3.07,2.4-3.51a34.42,34.42,0,0,1,7.59-1.53q12.94-.42,25.89-.32a121.44,121.44,0,0,1,12.4,1,12.91,12.91,0,0,1,3.71,1.28,2.62,2.62,0,0,1,1.53,2.63q0,32,0,63.93a3.19,3.19,0,0,1-2.13,3.29,32.82,32.82,0,0,1-5.53,1.43,30.77,30.77,0,0,1-5,.3c-10.07,0-20.15.07-30.22-.09a31.51,31.51,0,0,1-7.74-1.33c-2.31-.64-2.83-1.71-2.83-4.1Q492.67,842.28,492.67,826.57Zm13.68-.58c0,10.35,0,20.71,0,31.06a2.8,2.8,0,0,0,2,3,14.92,14.92,0,0,0,4,.83c4,.15,8,.23,12,.13a28.83,28.83,0,0,0,6-.92,2.66,2.66,0,0,0,2.15-2.8q0-31.36,0-62.73a1.82,1.82,0,0,0-1.49-2,17.72,17.72,0,0,0-3.67-.5q-7.92-.08-15.83,0a15.54,15.54,0,0,0-3.31.41c-1.52.35-1.81.81-1.81,2.33Q506.35,810.4,506.35,826Z"/><path d="M767.47,826.63c0,10.52,0,21,0,31.56a3.59,3.59,0,0,1-2.58,3.83,38,38,0,0,1-5.23,1.23,18.66,18.66,0,0,1-3.34.26c-10.56,0-21.12.06-31.68-.08a30.74,30.74,0,0,1-7.3-1.15c-2.71-.71-3.33-1.81-3.33-4.62q0-31.32,0-62.64c0-1.8.68-3,2.31-3.46a33.15,33.15,0,0,1,7.82-1.59c11.07-.18,22.14-.16,33.21,0a29.67,29.67,0,0,1,7.38,1.4c2.31.64,2.75,1.49,2.75,3.83Q767.47,810.91,767.47,826.63ZM753.83,826q0-15.6,0-31.19c0-1.54-.28-2-1.8-2.35a14.49,14.49,0,0,0-3.19-.42q-8.1-.06-16.19,0a16.34,16.34,0,0,0-3.43.49,1.91,1.91,0,0,0-1.56,2.1q0,31.25,0,62.5a2.67,2.67,0,0,0,1.84,2.79,15.63,15.63,0,0,0,4.18.94c4,.16,8,.23,12,.14a25.9,25.9,0,0,0,5.78-.84c1.92-.49,2.39-1.36,2.39-3.33Q753.83,841.43,753.83,826Z"/><path d="M935.71,839.62h13.68c0,.46,0,.89,0,1.31q0,8,0,16c0,1.91.47,2.8,2.31,3.27a26,26,0,0,0,5.77.86c4,.09,8,0,12-.14a16,16,0,0,0,4.29-1,2.56,2.56,0,0,0,1.75-2.71q0-13.62,0-27.24a1.72,1.72,0,0,0-1.5-2,40.4,40.4,0,0,0-5.81-.69c-6-.09-11.92,0-17.88-.05a41.45,41.45,0,0,1-12.23-2.15c-2.22-.72-2.38-1-2.38-3.36q0-13.32,0-26.64c0-2.23.43-3.09,2.6-3.72a30.22,30.22,0,0,1,7.26-1.43c8.55-.28,17.11-.42,25.66-.36a125.29,125.29,0,0,1,12.64,1,13.46,13.46,0,0,1,3.72,1.25,2.4,2.4,0,0,1,1.58,2.23c0,6.36,0,12.71,0,19.18H975.48v-1.4c0-5.72,0-11.44,0-17.16a2,2,0,0,0-1.68-2.23,18.35,18.35,0,0,0-3.44-.44q-8-.07-16,0a16.87,16.87,0,0,0-3.55.49,1.87,1.87,0,0,0-1.52,2.1q.06,13.74,0,27.48a1.65,1.65,0,0,0,1.3,1.86,17.7,17.7,0,0,0,3.76.66c7.24.11,14.48.06,21.71.2a33.71,33.71,0,0,1,11,2.18c1.87.69,2,1,2,3q0,14,0,28c0,2.29-.55,3.45-2.76,4.05a33.09,33.09,0,0,1-8.1,1.38q-16,.23-32,0a31.25,31.25,0,0,1-7.75-1.33c-2.31-.64-2.83-1.71-2.83-4.1C935.71,851.91,935.71,845.83,935.71,839.62Z"/><path d="M624.54,792.07H603v-2.42h54.16V792h-19v71.44H624.54Z"/><path class="cls-9" d="M529,407.78c19-1.82,36.12-2.69,53-5.25,30.93-4.68,56.75-19.86,81-39.24,16.11-12.86,33.52-25.43,52.37-33.24,33-13.69,64.4,7.55,68.21,43.22,4.5,42.12-17.63,77-59.31,93.45C665.56,489.93,568.52,461.31,529,407.78Z"/><path class="cls-10" d="M730.81,526c58.66,17,109.82,47.46,154.59,93.69l-36.69,36.63Z"/></svg>