<svg id="Слой_1" data-name="Слой 1" xmlns="http://www.w3.org/2000/svg" xmlns:xlink="http://www.w3.org/1999/xlink" viewBox="0 0 197 120.93"><defs><style>.cls-1{fill:gray;fill-opacity:0.25;stroke-miterlimit:10;stroke-width:2px;stroke:url(#Безымянный_градиент_21);}.cls-2{fill:#f7931e;}.cls-3{fill:#212121;}.cls-4{fill:ivory;}</style><linearGradient id="Безымянный_градиент_21" x1="36.73" y1="-1.31" x2="160.27" y2="122.24" gradientUnits="userSpaceOnUse"><stop offset="0.04" stop-color="gray"/><stop offset="0.04" stop-color="#838383"/><stop offset="0.09" stop-color="#afafaf"/><stop offset="0.14" stop-color="#d2d2d2"/><stop offset="0.19" stop-color="#ebebeb"/><stop offset="0.23" stop-color="#fafafa"/><stop offset="0.27" stop-color="#fff"/><stop offset="0.3" stop-color="#f4f4f4"/><stop offset="0.36" stop-color="#d6d6d6"/><stop offset="0.44" stop-color="#a6a6a6"/><stop offset="0.53" stop-color="#666"/><stop offset="0.57" stop-color="#717171"/><stop offset="0.63" stop-color="#8d8d8d"/><stop offset="0.71" stop-color="#bababa"/><stop offset="0.81" stop-color="#f9f9f9"/><stop offset="0.82" stop-color="#fff"/><stop offset="0.84" stop-color="#fafafa"/><stop offset="0.87" stop-color="#ececec"/><stop offset="0.9" stop-color="#d5d5d5"/><stop offset="0.93" stop-color="#b5b5b5"/><stop offset="0.96" stop-color="#8b8b8b"/><stop offset="0.99" stop-color="#595959"/><stop offset="1" stop-color="#4d4d4d"/></linearGradient></defs><title>logo_all</title><rect class="cls-1" x="1" y="1" width="195" height="118.93" rx="59.47" ry="59.47"/><path class="cls-2" d="M93.27,55.59c-9.22-1-19.47-9.74-22.69-19-2.91-8.39-1.74-15.34,2.14-21.24,5.93-9,15.33-12.26,28.59-8.76,9.54,2.52,19,9.57,23.64,17.78-12.41-5.18-22.27-4.36-29.31,3C88.8,34.57,86.71,43.52,93.27,55.59Zm5.32-33.75c4-.73,7.4-1.8,11.1-1.88s7.82.82,11.72,1.29c-6.8-11-29.51-18.94-36.52-12.5,4.77,0,9.41.13,14.26,2.37l-6,3.46.4.6,8.31,1.68Z"/><path class="cls-3" d="M125.39,24.14c-4.66-8.22-14.28-15.46-23.95-18-13.13-3.47-22.94-.45-29.14,9-4.22,6.42-5,13.71-2.2,21.68C73.4,46.26,84,55.11,93.21,56.09l.95.1-.45-.84C87.84,44.54,88.59,35.51,96,27.74c6.75-7.07,16.42-8,28.75-2.9l1.35.56Zm-4.86-5a33.08,33.08,0,0,1,3.23,4.23c-12.1-4.68-21.67-3.44-28.47,3.69C87.73,35,86.77,44.11,92.37,55c-8.65-1.42-18.25-9.68-21.32-18.52-2.7-7.76-2-14.57,2.09-20.8C77.48,9,83.68,5.74,91.65,5.74l.5,0h.22a5.74,5.74,0,0,1,.69,0,38.94,38.94,0,0,1,8.12,1.3A39.48,39.48,0,0,1,113.65,13,45.09,45.09,0,0,0,96.89,6.33a4.39,4.39,0,0,1,.78.36,4.54,4.54,0,0,1,3.45,1.64c7.31,2.15,15.3,6.66,19.27,12.29l-2.51-.37a49.73,49.73,0,0,0-8.21-.79c-.43,0-.86,0-1.28.07"/><path class="cls-4" d="M98.59,21.84l1.66-2.49A2,2,0,0,0,99,16.28l-5.53-1.12-.11-.66,2.07-1.21a2,2,0,0,0-.52-3.67,39,39,0,0,0-10-.88c7-6.44,29.73,1.46,36.52,12.5-3.91-.47-8-1.37-11.72-1.29S102.62,21.12,98.59,21.84Z"/><path class="cls-2" d="M97.52,22.54l2.32-3.47a1.5,1.5,0,0,0-.95-2.3L93,15.58l-.22-1.34,2.37-1.38a1.5,1.5,0,0,0-.39-2.75,39.09,39.09,0,0,0-9.88-.86H83.6l1-.88c3-2.73,8-2.69,11.61-2.18,8.9,1.23,20.94,7.1,25.68,14.79l.54.88-1-.12c-1.2-.14-2.41-.33-3.62-.51a48.06,48.06,0,0,0-8-.77,38.2,38.2,0,0,0-7.38,1.12c-1.17.25-2.37.52-3.65.75Zm-3.59-7.8,5.16,1a2.5,2.5,0,0,1,1.58,3.83l-1,1.5c.84-.17,1.65-.35,2.44-.52a39,39,0,0,1,7.57-1.14,49.73,49.73,0,0,1,8.21.79l2.51.37c-4.93-7-16-12.27-24.37-13.43-4-.56-7.37-.18-9.58,1.06a36.06,36.06,0,0,1,8.57.9,2.5,2.5,0,0,1,.65,4.58Z"/><circle class="cls-2" cx="92.56" cy="14.91" r="0.86" transform="translate(20.8 75.24) rotate(-49.2)"/><path class="cls-4" d="M131.24,64.7a4,4,0,0,1-3.36,3l-1.22.17c-.74.1-1.49.21-2.23.3a.86.86,0,0,0-.77.64c-.79,2-1.64,3.94-2.42,5.92a1.13,1.13,0,0,0,.08.91c.64.94,1.36,1.83,2,2.74a3.71,3.71,0,0,1-.33,5.23q-2,2-4.06,4.06a3.71,3.71,0,0,1-5.23.34c-.89-.67-1.79-1.33-2.67-2a.9.9,0,0,0-1.05-.1c-1.92.83-3.84,1.64-5.79,2.4a1,1,0,0,0-.73.92c-.16,1.24-.31,2.49-.54,3.71a3.58,3.58,0,0,1-3.52,3q-3.18.05-6.35,0a3.71,3.71,0,0,1-3.63-3.42c-.16-1.08-.31-2.16-.44-3.25a1,1,0,0,0-.73-.93c-1.94-.76-3.87-1.57-5.79-2.4a.9.9,0,0,0-1.05.1c-.89.7-1.81,1.38-2.72,2.06a3.69,3.69,0,0,1-5.13-.33q-2.1-2.05-4.16-4.16a3.69,3.69,0,0,1-.33-5.13c.69-.93,1.42-1.84,2.08-2.79a1.12,1.12,0,0,0,.08-.91c-.79-2-1.66-4-2.45-6a.9.9,0,0,0-.88-.6c-1.24-.17-2.49-.31-3.71-.55a3.58,3.58,0,0,1-3-3.52q-.05-3.18,0-6.35a3.71,3.71,0,0,1,3.42-3.63c1.08-.16,2.16-.31,3.25-.44a1,1,0,0,0,.92-.73c.76-1.94,1.57-3.87,2.4-5.79a.9.9,0,0,0-.1-1.05c-.7-.89-1.38-1.81-2.06-2.72a3.69,3.69,0,0,1,.33-5.13q2.05-2.1,4.16-4.16a3.69,3.69,0,0,1,5.13-.33c.91.68,1.83,1.36,2.72,2.06a.9.9,0,0,0,1.05.1c1.92-.83,3.84-1.64,5.79-2.4a1,1,0,0,0,.73-.93c.13-1.08.28-2.17.44-3.25A3.72,3.72,0,0,1,92.19,26a1.13,1.13,0,0,0,.23-.13h7.65a1.12,1.12,0,0,0,.23.13,3.73,3.73,0,0,1,2.76,3.3c.16,1.08.31,2.16.44,3.25a1,1,0,0,0,.73.92c1.94.76,3.87,1.57,5.79,2.4a.9.9,0,0,0,1.05-.1c.89-.7,1.81-1.38,2.72-2.06a3.69,3.69,0,0,1,5.13.33q2.1,2.05,4.15,4.16a3.69,3.69,0,0,1,.33,5.13c-.68.91-1.36,1.83-2.06,2.72a.9.9,0,0,0-.1,1.05c.83,1.92,1.63,3.84,2.4,5.78a.94.94,0,0,0,.85.72c.77.08,1.54.18,2.3.3a6.08,6.08,0,0,1,3,.89,4.87,4.87,0,0,1,1.47,2.23ZM81.79,82.25c.78.25,1.42.41,2,.65,2,.79,3.89,1.63,5.86,2.4a3.66,3.66,0,0,1,2.48,3c.19,1.21.37,2.43.52,3.65.06.48.26.67.75.66q2.84,0,5.67,0c.49,0,.67-.21.73-.68.14-1.17.33-2.34.5-3.51a3.81,3.81,0,0,1,2.77-3.21c1.85-.68,3.69-1.43,5.47-2.27a3.92,3.92,0,0,1,4.41.39c.9.69,1.83,1.36,2.72,2.06a.64.64,0,0,0,1-.07q2-2,4-4a.67.67,0,0,0,.08-1.05c-.77-1-1.53-2-2.26-3a3.67,3.67,0,0,1-.31-3.82c.86-2,1.71-4,2.5-6a3.66,3.66,0,0,1,3-2.47c1.21-.19,2.43-.37,3.65-.52.49-.06.66-.29.65-.76q0-2.84,0-5.67a.61.61,0,0,0-.63-.71c-1.17-.15-2.34-.34-3.51-.5A3.84,3.84,0,0,1,120.55,54c-.67-1.85-1.43-3.68-2.27-5.47a3.89,3.89,0,0,1,.36-4.35c.69-.91,1.36-1.83,2.06-2.72a.67.67,0,0,0,0-1.06q-2-2-4-4a.68.68,0,0,0-1.06-.06c-1,.76-1.95,1.5-2.95,2.22a3.68,3.68,0,0,1-3.87.33q-3-1.3-6-2.5a3.64,3.64,0,0,1-2.45-2.94q-.3-1.82-.52-3.65c-.06-.51-.26-.71-.78-.71q-2.8,0-5.6,0c-.52,0-.71.21-.77.71-.14,1.15-.33,2.3-.49,3.45a3.82,3.82,0,0,1-2.74,3.24c-1.87.69-3.72,1.45-5.53,2.29a3.89,3.89,0,0,1-4.35-.38c-.91-.69-1.83-1.36-2.72-2.07a.67.67,0,0,0-1.06.07q-1.94,2-3.91,3.91a.7.7,0,0,0-.09,1.11q1.14,1.45,2.22,2.95a3.69,3.69,0,0,1,.32,3.87c-.85,2-1.68,3.92-2.45,5.91a3.72,3.72,0,0,1-3.07,2.57c-1.19.18-2.38.37-3.58.51-.52.06-.69.29-.69.8q0,2.8,0,5.6a.64.64,0,0,0,.66.75c1.17.14,2.34.34,3.51.5a3.79,3.79,0,0,1,3.21,2.69c.72,1.91,1.5,3.8,2.34,5.66a3.82,3.82,0,0,1-.35,4.17c-.69.93-1.38,1.87-2.1,2.78a.7.7,0,0,0,.05,1.11q2,1.93,3.91,3.92a.7.7,0,0,0,1.11.06c.91-.72,1.81-1.46,2.79-2.09A16.17,16.17,0,0,1,81.79,82.25Z"/><path class="cls-3" d="M96.19,96.38l-3.13,0a4.19,4.19,0,0,1-4.12-3.85c-.16-1.09-.31-2.17-.44-3.26,0-.29-.09-.39-.41-.52-1.7-.66-3.54-1.43-5.8-2.4-.3-.13-.38-.1-.55,0-.9.71-1.82,1.39-2.73,2.07a4.2,4.2,0,0,1-5.78-.37c-1.39-1.35-2.79-2.76-4.16-4.16a4.2,4.2,0,0,1-.37-5.78l.73-1c.46-.6.91-1.2,1.34-1.81a.67.67,0,0,0,0-.44c-.38-1-.78-1.91-1.17-2.86s-.86-2.08-1.27-3.13c-.08-.2-.14-.23-.48-.28l-1-.13c-.9-.12-1.84-.24-2.75-.42a4.06,4.06,0,0,1-3.36-4c0-2.19,0-4.33,0-6.37a4.19,4.19,0,0,1,3.85-4.12c1.09-.16,2.17-.31,3.26-.44.29,0,.39-.09.52-.41.67-1.7,1.43-3.55,2.41-5.8.13-.3.1-.38,0-.54-.71-.9-1.39-1.82-2.07-2.73a4.19,4.19,0,0,1,.38-5.77c1.36-1.39,2.76-2.8,4.16-4.16A4.19,4.19,0,0,1,79,33.33c.92.68,1.84,1.36,2.73,2.07.16.13.24.16.55,0,2.27-1,4.11-1.75,5.8-2.4.32-.12.38-.23.41-.52.13-1.09.28-2.18.44-3.26A4.2,4.2,0,0,1,92,25.54l.23-.15h7.93l.22.13a4.24,4.24,0,0,1,3.12,3.73c.16,1.09.31,2.17.44,3.26,0,.29.09.39.41.52,1.71.67,3.55,1.43,5.8,2.41.3.13.38.1.54,0,.9-.71,1.82-1.39,2.73-2.07a4.2,4.2,0,0,1,5.78.37c1.38,1.34,2.78,2.74,4.16,4.17a4.2,4.2,0,0,1,.37,5.77c-.68.92-1.36,1.84-2.07,2.73-.13.16-.16.24,0,.55.9,2.07,1.68,4,2.41,5.8.14.35.22.38.44.41.78.08,1.55.19,2.33.31l.45.06a5.46,5.46,0,0,1,2.75.92,5.38,5.38,0,0,1,1.64,2.45l0,.18,0,7.81a4.47,4.47,0,0,1-3.77,3.31l-1.84.25-1.62.21c-.17,0-.24,0-.36.33-.39,1-.79,1.94-1.19,2.91s-.83,2-1.23,3a.67.67,0,0,0,0,.44c.44.65.92,1.27,1.39,1.89l.63.83a4.2,4.2,0,0,1-.38,5.88q-2,2-4.06,4.06a4.2,4.2,0,0,1-5.88.38l-.49-.36c-.73-.55-1.47-1.1-2.19-1.66-.16-.13-.25-.16-.54,0-2.23,1-4.08,1.73-5.8,2.4a.51.51,0,0,0-.41.52l0,.3c-.14,1.13-.29,2.3-.51,3.44a4.06,4.06,0,0,1-4,3.36ZM82,85.24a1.75,1.75,0,0,1,.69.17c2.25,1,4.08,1.73,5.77,2.39a1.49,1.49,0,0,1,1,1.33c.13,1.08.28,2.16.44,3.23a3.19,3.19,0,0,0,3.15,3c2,0,4.16,0,6.34,0a3.08,3.08,0,0,0,3-2.55c.21-1.11.36-2.26.5-3.38l0-.3a1.48,1.48,0,0,1,1-1.33c1.72-.67,3.55-1.43,5.77-2.39a1.4,1.4,0,0,1,1.56.16c.71.56,1.44,1.11,2.17,1.65l.49.37a3.21,3.21,0,0,0,4.58-.29q2-2,4.05-4.05a3.21,3.21,0,0,0,.29-4.58l-.63-.82c-.49-.64-1-1.27-1.42-1.93a1.62,1.62,0,0,1-.13-1.37c.4-1,.82-2,1.24-3s.8-1.93,1.18-2.9a1.35,1.35,0,0,1,1.17-1l1.6-.21,1.77-.24a3.46,3.46,0,0,0,3-2.57V57.15a4.31,4.31,0,0,0-1.28-1.93,4.63,4.63,0,0,0-2.28-.73l-.46-.07c-.76-.12-1.51-.22-2.27-.3a1.44,1.44,0,0,1-1.27-1c-.72-1.82-1.5-3.71-2.4-5.77a1.4,1.4,0,0,1,.16-1.56c.7-.89,1.38-1.8,2.05-2.71a3.19,3.19,0,0,0-.29-4.48c-1.38-1.42-2.78-2.81-4.15-4.15a3.19,3.19,0,0,0-4.48-.28c-.91.68-1.82,1.35-2.71,2.05a1.4,1.4,0,0,1-1.56.16c-2.24-1-4.08-1.73-5.77-2.39a1.49,1.49,0,0,1-1-1.33c-.13-1.08-.28-2.16-.44-3.23a3.24,3.24,0,0,0-2.41-2.89.91.91,0,0,1-.23-.11H92.57a.93.93,0,0,1-.23.11,3.24,3.24,0,0,0-2.41,2.89c-.16,1.08-.31,2.15-.44,3.23a1.49,1.49,0,0,1-1,1.33c-1.68.65-3.51,1.41-5.77,2.39a1.4,1.4,0,0,1-1.56-.16c-.89-.7-1.8-1.38-2.71-2.05a3.18,3.18,0,0,0-4.48.29c-1.4,1.36-2.79,2.76-4.15,4.15A3.19,3.19,0,0,0,69.5,43c.68.91,1.35,1.82,2.05,2.71a1.4,1.4,0,0,1,.16,1.56c-1,2.24-1.73,4.08-2.39,5.77a1.49,1.49,0,0,1-1.33,1c-1.08.12-2.16.28-3.23.43a3.23,3.23,0,0,0-3,3.15c0,2,0,4.16,0,6.34a3.08,3.08,0,0,0,2.55,3c.89.17,1.81.29,2.7.41l1,.13a1.39,1.39,0,0,1,1.27.91c.41,1,.84,2.07,1.27,3.11s.79,1.92,1.18,2.88a1.62,1.62,0,0,1-.13,1.37c-.44.63-.9,1.25-1.37,1.86l-.72,1a3.19,3.19,0,0,0,.29,4.48c1.37,1.4,2.76,2.8,4.15,4.15a3.19,3.19,0,0,0,4.48.28c.91-.68,1.82-1.35,2.71-2.05A1.37,1.37,0,0,1,82,85.24ZM99.1,93.1h0q-2.83,0-5.66,0A1.14,1.14,0,0,1,92.17,92c-.14-1.14-.31-2.33-.52-3.63a3.14,3.14,0,0,0-2.17-2.6c-1.11-.43-2.21-.89-3.31-1.35l-2.55-1c-.39-.16-.8-.28-1.25-.41l-.56-.17-.48.2a8.83,8.83,0,0,0-1.41.68c-.83.54-1.63,1.17-2.4,1.79l-.34.27a1.19,1.19,0,0,1-1.78-.1c-1.28-1.32-2.6-2.63-3.9-3.91a1.19,1.19,0,0,1-.09-1.78c.64-.81,1.26-1.64,1.88-2.47l.22-.29a3.33,3.33,0,0,0,.29-3.67c-.81-1.78-1.6-3.7-2.35-5.69a3.31,3.31,0,0,0-2.81-2.37l-1.35-.2c-.72-.11-1.44-.21-2.16-.3A1.12,1.12,0,0,1,64,63.7q0-2.8,0-5.59a1.16,1.16,0,0,1,1.13-1.3c1.06-.13,2.12-.29,3.17-.45l.39-.06A3.22,3.22,0,0,0,71.4,54c.71-1.83,1.51-3.77,2.46-5.93a3.18,3.18,0,0,0-.26-3.38c-.68-.95-1.42-1.93-2.2-2.93A1.19,1.19,0,0,1,71.52,40q2-1.93,3.91-3.91A1.16,1.16,0,0,1,77.15,36c.58.46,1.18.91,1.78,1.36l.93.7a3.41,3.41,0,0,0,3.83.32c1.71-.8,3.53-1.55,5.57-2.31a3.33,3.33,0,0,0,2.42-2.84c.06-.44.13-.89.19-1.33.11-.7.21-1.4.29-2.11a1.18,1.18,0,0,1,1.28-1.16q2.8,0,5.59,0a1.16,1.16,0,0,1,1.28,1.15c.14,1.21.32,2.43.52,3.63A3.16,3.16,0,0,0,103,36c2,.79,4,1.64,6.05,2.51a3.17,3.17,0,0,0,3.38-.28c.93-.67,1.89-1.39,2.93-2.21a1.16,1.16,0,0,1,1.72.1q2,2,4,4a1.16,1.16,0,0,1,.09,1.72c-.45.57-.88,1.15-1.31,1.72l-.75,1a3.41,3.41,0,0,0-.31,3.83c.84,1.8,1.61,3.65,2.28,5.51a3.32,3.32,0,0,0,2.87,2.47l1.44.21,2.07.29A1.1,1.1,0,0,1,128.47,58q0,2.83,0,5.66a1.12,1.12,0,0,1-1.09,1.26c-1.21.15-2.42.33-3.63.52a3.15,3.15,0,0,0-2.61,2.16c-.73,1.85-1.55,3.83-2.51,6a3.18,3.18,0,0,0,.26,3.33c.63.89,1.34,1.83,2.24,3a1.16,1.16,0,0,1-.12,1.72q-2,2-4,4a1.14,1.14,0,0,1-1.67.11c-.52-.41-1.05-.81-1.59-1.21l-1.13-.85a3.44,3.44,0,0,0-3.89-.33c-1.71.8-3.51,1.55-5.51,2.28a3.3,3.3,0,0,0-2.44,2.81l-.17,1.17c-.12.78-.23,1.56-.33,2.34A1.12,1.12,0,0,1,99.1,93.1Zm-5.88-1a.55.55,0,0,0,.19,0q2.84,0,5.68,0a.58.58,0,0,0,.18,0,.64.64,0,0,0,.05-.22c.1-.79.21-1.58.33-2.36l.17-1.16a4.3,4.3,0,0,1,3.09-3.61c2-.72,3.75-1.46,5.43-2.25a4.4,4.4,0,0,1,4.92.44l1.12.85c.54.4,1.08.81,1.61,1.22a.44.44,0,0,0,.18.1.47.47,0,0,0,.16-.13q2-2,4-4c.19-.19.19-.2,0-.39-.91-1.16-1.63-2.12-2.27-3a4.16,4.16,0,0,1-.36-4.3c1-2.21,1.77-4.18,2.5-6a4.16,4.16,0,0,1,3.38-2.78c1.22-.19,2.44-.37,3.67-.52a.42.42,0,0,0,.19-.05.53.53,0,0,0,0-.21q0-2.84,0-5.68a.43.43,0,0,0,0-.17h0a.65.65,0,0,0-.17,0l-2.09-.29-1.43-.21a4.33,4.33,0,0,1-3.67-3.12c-.66-1.83-1.42-3.66-2.25-5.43a4.37,4.37,0,0,1,.42-4.86l.74-1c.44-.58.88-1.17,1.33-1.74.17-.22.17-.23,0-.39q-2-2-4-4c-.17-.18-.18-.18-.39,0-1.06.83-2,1.56-3,2.23a4.19,4.19,0,0,1-4.36.38c-2-.87-4-1.71-6-2.5a4.14,4.14,0,0,1-2.76-3.32c-.2-1.21-.38-2.45-.52-3.67a.49.49,0,0,0-.06-.24h0a1,1,0,0,0-.22,0q-2.81,0-5.61,0a.41.41,0,0,0-.21,0h0a.55.55,0,0,0-.06.25c-.08.71-.19,1.43-.3,2.14-.07.44-.13.88-.19,1.32A4.3,4.3,0,0,1,89.61,37c-2,.75-3.81,1.49-5.49,2.27a4.38,4.38,0,0,1-4.86-.43l-.93-.7c-.6-.45-1.21-.91-1.8-1.38-.2-.16-.21-.16-.39,0q-1.94,2-3.92,3.92c-.22.22-.21.23,0,.44.8,1,1.55,2,2.23,3a4.19,4.19,0,0,1,.37,4.36c-.94,2.14-1.73,4.07-2.44,5.89a4.24,4.24,0,0,1-3.46,2.88l-.39.06c-1.07.16-2.14.33-3.21.45a.48.48,0,0,0-.22.06h0a.52.52,0,0,0,0,.24q0,2.81,0,5.61a.45.45,0,0,0,0,.2h0a.52.52,0,0,0,.2,0c.73.09,1.45.2,2.18.3l1.34.19a4.27,4.27,0,0,1,3.6,3c.74,2,1.53,3.86,2.33,5.63a4.3,4.3,0,0,1-.4,4.68l-.22.29c-.62.84-1.25,1.68-1.89,2.49-.19.25-.18.26,0,.44,1.31,1.28,2.63,2.6,3.92,3.92.19.19.21.2.44,0l.34-.27c.79-.63,1.61-1.28,2.49-1.85A9.52,9.52,0,0,1,81,82.06l.63-.27.18-.08.18.06.72.22c.48.14.92.27,1.34.44l2.56,1.05c1.1.46,2.19.91,3.29,1.34a4.16,4.16,0,0,1,2.79,3.38c.21,1.31.38,2.51.52,3.67a.47.47,0,0,0,.05.2Z"/><path class="cls-3" d="M81.79,82.25a16.17,16.17,0,0,0-2.13,1c-1,.63-1.88,1.37-2.79,2.09a.7.7,0,0,1-1.11-.06q-1.93-2-3.91-3.92a.7.7,0,0,1-.05-1.11c.72-.91,1.41-1.85,2.1-2.78a3.82,3.82,0,0,0,.35-4.17c-.84-1.86-1.62-3.75-2.34-5.66A3.79,3.79,0,0,0,68.7,65c-1.17-.16-2.34-.35-3.51-.5a.64.64,0,0,1-.66-.75q0-2.8,0-5.6c0-.51.17-.73.69-.8,1.2-.14,2.39-.33,3.58-.51a3.72,3.72,0,0,0,3.07-2.57c.77-2,1.59-4,2.45-5.91A3.69,3.69,0,0,0,74,44.43q-1.07-1.5-2.22-2.95a.7.7,0,0,1,.09-1.11q2-1.93,3.91-3.91a.67.67,0,0,1,1.06-.07c.89.71,1.81,1.38,2.72,2.07a3.89,3.89,0,0,0,4.35.38c1.81-.84,3.66-1.6,5.53-2.29a3.82,3.82,0,0,0,2.74-3.24c.16-1.15.35-2.29.49-3.45.06-.5.25-.72.77-.71q2.8,0,5.6,0c.52,0,.72.2.78.71q.22,1.83.52,3.65a3.64,3.64,0,0,0,2.45,2.94q3,1.2,6,2.5a3.68,3.68,0,0,0,3.87-.33c1-.72,2-1.46,2.95-2.22a.68.68,0,0,1,1.06.06q2,2,4,4a.67.67,0,0,1,0,1.06c-.7.89-1.37,1.81-2.06,2.72a3.89,3.89,0,0,0-.36,4.35c.84,1.79,1.59,3.62,2.27,5.47a3.84,3.84,0,0,0,3.27,2.79c1.17.16,2.34.35,3.51.5A.61.61,0,0,1,128,58q0,2.84,0,5.67c0,.47-.16.7-.65.76-1.22.15-2.44.33-3.65.52a3.66,3.66,0,0,0-3,2.47c-.8,2-1.64,4-2.5,6a3.67,3.67,0,0,0,.31,3.82c.72,1,1.48,2,2.26,3a.67.67,0,0,1-.08,1.05q-2,2-4,4a.64.64,0,0,1-1,.07c-.89-.7-1.82-1.37-2.72-2.06a3.92,3.92,0,0,0-4.41-.39c-1.78.84-3.62,1.59-5.47,2.27a3.81,3.81,0,0,0-2.77,3.21c-.17,1.17-.36,2.34-.5,3.51-.06.47-.24.68-.73.68q-2.84,0-5.67,0c-.48,0-.69-.18-.75-.66-.15-1.22-.33-2.44-.52-3.65a3.66,3.66,0,0,0-2.48-3c-2-.77-3.9-1.61-5.86-2.4C83.21,82.66,82.57,82.5,81.79,82.25ZM96.24,45.7a15.18,15.18,0,1,0,15.18,15.16A15.2,15.2,0,0,0,96.24,45.7Z"/><path class="cls-3" d="M93.41,93.1A1.12,1.12,0,0,1,92.17,92c-.14-1.14-.31-2.33-.52-3.63a3.14,3.14,0,0,0-2.17-2.6c-1.11-.43-2.21-.89-3.31-1.35l-2.55-1c-.39-.16-.8-.28-1.25-.41l-.56-.17-.48.2a8.83,8.83,0,0,0-1.41.68c-.83.54-1.63,1.17-2.4,1.79l-.34.27a1.19,1.19,0,0,1-1.78-.1c-1.28-1.32-2.6-2.63-3.9-3.91a1.19,1.19,0,0,1-.09-1.78c.64-.81,1.26-1.64,1.88-2.47l.22-.29a3.33,3.33,0,0,0,.29-3.67c-.81-1.78-1.6-3.7-2.35-5.69a3.31,3.31,0,0,0-2.81-2.37l-1.35-.2c-.72-.11-1.44-.21-2.16-.3A1.12,1.12,0,0,1,64,63.7q0-2.8,0-5.59a1.16,1.16,0,0,1,1.13-1.3c1.06-.13,2.12-.29,3.17-.45l.39-.06A3.22,3.22,0,0,0,71.4,54c.71-1.83,1.51-3.77,2.46-5.93a3.18,3.18,0,0,0-.26-3.38c-.68-.95-1.42-1.93-2.2-2.93A1.19,1.19,0,0,1,71.52,40q2-1.93,3.91-3.91A1.16,1.16,0,0,1,77.15,36c.58.46,1.18.91,1.78,1.36l.93.7a3.41,3.41,0,0,0,3.83.32c1.71-.8,3.53-1.55,5.57-2.31a3.33,3.33,0,0,0,2.42-2.84c.06-.44.13-.89.19-1.33.11-.7.21-1.4.29-2.11a1.14,1.14,0,0,1,1.28-1.16q2.8,0,5.59,0a1.16,1.16,0,0,1,1.28,1.15c.14,1.21.32,2.43.52,3.63A3.16,3.16,0,0,0,103,36c2,.79,4,1.64,6.05,2.51a3.17,3.17,0,0,0,3.38-.28c.93-.67,1.89-1.39,2.93-2.21a1.16,1.16,0,0,1,1.72.1q2,2,4,4a1.16,1.16,0,0,1,.09,1.72c-.45.57-.88,1.15-1.31,1.72l-.75,1a3.41,3.41,0,0,0-.31,3.83c.84,1.8,1.61,3.65,2.28,5.51a3.32,3.32,0,0,0,2.87,2.47l1.44.21,2.07.29A1.1,1.1,0,0,1,128.47,58q0,2.83,0,5.66a1.12,1.12,0,0,1-1.09,1.26c-1.21.15-2.42.33-3.63.52a3.15,3.15,0,0,0-2.61,2.16c-.73,1.85-1.55,3.83-2.51,6a3.18,3.18,0,0,0,.26,3.33c.63.89,1.34,1.83,2.24,3a1.16,1.16,0,0,1-.12,1.72q-2,2-4,4a1.14,1.14,0,0,1-1.67.11c-.52-.41-1.05-.81-1.59-1.21l-1.13-.85a3.44,3.44,0,0,0-3.89-.33c-1.71.8-3.51,1.55-5.51,2.28a3.3,3.3,0,0,0-2.44,2.81l-.17,1.17c-.12.78-.23,1.56-.33,2.34a1.14,1.14,0,0,1-1.23,1.12q-2.83,0-5.66,0Zm-.19-1a.55.55,0,0,0,.19,0q2.84,0,5.68,0c.14,0,.18,0,.18,0a.64.64,0,0,0,.05-.22c.1-.79.21-1.58.33-2.36l.17-1.16a4.3,4.3,0,0,1,3.09-3.61c2-.72,3.75-1.46,5.43-2.25a4.4,4.4,0,0,1,4.92.44l1.12.85c.54.4,1.08.81,1.61,1.22a.44.44,0,0,0,.18.1.47.47,0,0,0,.16-.13q2-2,4-4c.19-.19.19-.2,0-.39-.91-1.16-1.63-2.12-2.27-3a4.16,4.16,0,0,1-.36-4.3c1-2.21,1.77-4.18,2.5-6a4.16,4.16,0,0,1,3.38-2.78c1.22-.19,2.44-.37,3.67-.52a.42.42,0,0,0,.19-.05.53.53,0,0,0,0-.21q0-2.84,0-5.68a.43.43,0,0,0,0-.17h0a.65.65,0,0,0-.17,0l-2.09-.29-1.43-.21a4.33,4.33,0,0,1-3.67-3.12c-.66-1.83-1.42-3.66-2.25-5.43a4.37,4.37,0,0,1,.42-4.86l.74-1c.44-.58.88-1.17,1.33-1.74.17-.22.17-.23,0-.39q-2-2-4-4c-.17-.18-.18-.18-.39,0-1.06.83-2,1.56-3,2.23a4.19,4.19,0,0,1-4.36.38c-2-.87-4-1.71-6-2.5a4.14,4.14,0,0,1-2.76-3.32c-.2-1.21-.38-2.45-.52-3.67a.49.49,0,0,0-.06-.24h0a1,1,0,0,0-.22,0q-2.81,0-5.61,0a.5.5,0,0,0-.21,0h0a.56.56,0,0,0-.06.25c-.08.71-.19,1.43-.3,2.14-.07.44-.13.88-.19,1.32A4.3,4.3,0,0,1,89.61,37c-2,.75-3.81,1.49-5.49,2.27a4.38,4.38,0,0,1-4.86-.43l-.93-.7c-.6-.45-1.21-.91-1.8-1.38-.2-.16-.21-.16-.39,0q-1.94,2-3.92,3.92c-.22.22-.21.23,0,.44.8,1,1.55,2,2.23,3a4.19,4.19,0,0,1,.37,4.36c-.94,2.14-1.73,4.07-2.44,5.89a4.24,4.24,0,0,1-3.46,2.88l-.39.06c-1.07.16-2.14.33-3.21.45a.48.48,0,0,0-.22.06h0a.52.52,0,0,0,0,.24q0,2.81,0,5.61a.45.45,0,0,0,0,.2h0a.52.52,0,0,0,.2,0c.73.09,1.45.2,2.18.3l1.34.19a4.27,4.27,0,0,1,3.6,3c.74,2,1.53,3.86,2.33,5.63a4.3,4.3,0,0,1-.4,4.68l-.22.29c-.62.84-1.25,1.68-1.89,2.49-.19.25-.18.26,0,.44,1.31,1.28,2.63,2.6,3.92,3.92.19.19.21.2.44,0l.34-.27c.79-.63,1.61-1.28,2.49-1.85A9.52,9.52,0,0,1,81,82.06l.63-.27.18-.08.18.06.72.22c.48.14.92.27,1.34.44l2.56,1.05c1.1.46,2.19.91,3.29,1.34a4.16,4.16,0,0,1,2.79,3.38c.21,1.31.38,2.51.52,3.67a.47.47,0,0,0,.05.2Zm3-15.52h0a15.68,15.68,0,0,1,0-31.36h0a15.68,15.68,0,0,1,0,31.36Zm0-30.36a14.68,14.68,0,0,0,0,29.36h0a14.68,14.68,0,0,0,0-29.36Z"/><path class="cls-2" d="M96.24,45.7A15.18,15.18,0,1,1,81.07,60.86,15.2,15.2,0,0,1,96.24,45.7Zm11.91,15.16A11.91,11.91,0,1,0,96.29,72.78,11.9,11.9,0,0,0,108.15,60.86Z"/><path class="cls-3" d="M60.76,50.14a18.89,18.89,0,0,1-1.37,5.4,20.56,20.56,0,0,1-1.66,3.14,14.47,14.47,0,0,1-3.53,3.66,17.66,17.66,0,0,1-6,3,18,18,0,0,1-4.41.57H31.16c0,.15,0,.27,0,.4q0,4.71,0,9.43,0,3.95,0,7.9a.52.52,0,0,1-.24.49c-.42.29-.82.6-1.22.91a.66.66,0,0,1-.43.15H17A.62.62,0,0,1,16.6,85c-.43-.34-.87-.66-1.31-1a.32.32,0,0,1-.16-.32,1.79,1.79,0,0,0,0-.21q0-15.87,0-31.75c0-.09,0-.18,0-.26a.26.26,0,0,1,.13-.24l1.41-1.05a.65.65,0,0,1,.27-.09,1.59,1.59,0,0,1,.26,0H60.76Zm-.47.4H17.16a.54.54,0,0,0-.4.14l-.8.6c-.46.35-.41.23-.41.82q0,15.58,0,31.16c0,.08,0,.16,0,.23a.43.43,0,0,0,.21.42c.26.19.53.37.77.58a1.18,1.18,0,0,0,.83.28H28.9a1.72,1.72,0,0,0,.29,0,.74.74,0,0,0,.3-.1c.37-.27.74-.55,1.11-.82a.3.3,0,0,0,.13-.28c0-.1,0-.2,0-.29q0-8.63,0-17.27c0-.46-.1-.51.52-.51H43a21.73,21.73,0,0,0,3.25-.19,15.62,15.62,0,0,0,2.93-.7,18.6,18.6,0,0,0,4.55-2.42,13.79,13.79,0,0,0,3.51-3.51,18,18,0,0,0,2.92-7.2C60.2,51.17,60.24,50.88,60.29,50.53Z"/><path class="cls-3" d="M29.26,85.68H17a1.12,1.12,0,0,1-.71-.23c-.43-.33-.87-.66-1.3-1a.81.81,0,0,1-.36-.78V51.79c0-.14,0-.18,0-.23a.75.75,0,0,1,.33-.69l.55-.41.86-.64a1.09,1.09,0,0,1,.48-.18,1.38,1.38,0,0,1,.29,0H61.32l-.07.56a19.08,19.08,0,0,1-1.41,5.54A21.27,21.27,0,0,1,58.14,59a15,15,0,0,1-3.65,3.79,17.92,17.92,0,0,1-6.21,3.08,18.59,18.59,0,0,1-4.54.58H31.64v11q0,3.13,0,6.25a1,1,0,0,1-.45.9c-.39.27-.76.56-1.13.84A1.24,1.24,0,0,1,29.26,85.68ZM16,51.83V83.24a2.33,2.33,0,0,1,0,.28,6,6,0,0,1,.81.58.64.64,0,0,0,.5.16H29.11l.12,0,.64-.48.36-.27s0-.09,0-.13V65.84a.79.79,0,0,1,.18-.63,1.12,1.12,0,0,1,.84-.22H43a21.59,21.59,0,0,0,3.17-.19A15,15,0,0,0,49,64.13a18,18,0,0,0,4.42-2.36,13.17,13.17,0,0,0,3.38-3.39,17.57,17.57,0,0,0,2.84-7l.05-.34H17.11l-.49.37-.52.39ZM30.3,83.42h0Z"/><path class="cls-3" d="M40.44,46.25H17.16a1,1,0,0,1-.64-.21c-.39-.31-.79-.61-1.2-.9a.38.38,0,0,1-.19-.36c0-.25,0-.51,0-.76q0-5.8,0-11.6a.54.54,0,0,1,.25-.51c.43-.3.84-.61,1.25-.93a.51.51,0,0,1,.38-.13H63.75a1.06,1.06,0,0,1,.72.24c.36.29.73.57,1.1.83a.51.51,0,0,1,.25.48c0,1.82,0,3.64,0,5.46,0,2.28,0,4.56,0,6.84a.51.51,0,0,1-.24.49c-.41.28-.81.59-1.2.9a.77.77,0,0,1-.51.17H40.44Zm0-.41H63.55a1.83,1.83,0,0,0,.29,0,.72.72,0,0,0,.3-.09c.37-.27.74-.55,1.11-.82a.33.33,0,0,0,.15-.3c0-.09,0-.18,0-.26q0-5.8,0-11.6a1,1,0,0,1,0-.15.49.49,0,0,0-.26-.51,8.3,8.3,0,0,1-.75-.56,1.18,1.18,0,0,0-.83-.28H17.17a.58.58,0,0,0-.43.15c-.3.23-.6.47-.92.68a.6.6,0,0,0-.28.57q0,5.89,0,11.78a.82.82,0,0,1,0,.09.45.45,0,0,0,.22.45c.29.2.57.41.85.63a1.05,1.05,0,0,0,.72.24Z"/><path class="cls-3" d="M17.16,46.76a1.45,1.45,0,0,1-1-.32c-.38-.31-.78-.6-1.18-.88a.88.88,0,0,1-.39-.8c0-.17,0-.33,0-.5V41.81q0-4.69,0-9.39a1,1,0,0,1,.47-.92c.36-.25.72-.52,1.07-.79l.16-.12a1,1,0,0,1,.73-.23H63.75a1.56,1.56,0,0,1,1,.35c.35.28.71.55,1.07.8a1,1,0,0,1,.46.9c0,1.39,0,2.78,0,4.17v2.81q0,2.66,0,5.32a1,1,0,0,1-.45.9c-.4.28-.79.58-1.18.88a1.28,1.28,0,0,1-.81.28H17.16Zm16-1.41H63.77l.11,0,.65-.49.37-.28s0-.08,0-.12V32.76a1.17,1.17,0,0,1,0-.22,7.81,7.81,0,0,1-.84-.62.68.68,0,0,0-.5-.16H17.12l-.16.11c-.28.22-.56.44-.86.64,0,0-.06,0-.06.15q0,4.77,0,9.53v2.38a9,9,0,0,1,.88.65.56.56,0,0,0,.4.13h15.8Z"/><path class="cls-4" d="M60.29,50.53c-.05.35-.09.64-.14.92a18,18,0,0,1-2.92,7.2,13.79,13.79,0,0,1-3.51,3.51,18.6,18.6,0,0,1-4.55,2.42,15.62,15.62,0,0,1-2.93.7,21.73,21.73,0,0,1-3.25.19H31.25c-.62,0-.52,0-.52.51q0,8.63,0,17.27c0,.1,0,.2,0,.29a.3.3,0,0,1-.13.28c-.37.27-.73.56-1.11.82a.74.74,0,0,1-.3.1,1.72,1.72,0,0,1-.29,0H17.36a1.18,1.18,0,0,1-.83-.28c-.24-.21-.51-.4-.77-.58a.43.43,0,0,1-.21-.42c0-.08,0-.16,0-.23q0-15.58,0-31.16c0-.59,0-.46.41-.82l.8-.6a.54.54,0,0,1,.4-.14H60.29Zm-3,2.26-.43,0H18.25c-.48,0-.48,0-.48.48q0,14.4,0,28.81c0,.47,0,.47.47.47H28c.54,0,.5,0,.5-.49q0-9.16,0-18.32c0-.49,0-.45.47-.45H43A20.81,20.81,0,0,0,46.35,63a11.71,11.71,0,0,0,4.22-1.46,19.16,19.16,0,0,0,2.54-1.8A12.11,12.11,0,0,0,54.86,58a13.09,13.09,0,0,0,2.37-4.94A2.75,2.75,0,0,0,57.27,52.8Z"/><path class="cls-4" d="M40.44,45.85H17.33a1.05,1.05,0,0,1-.72-.24c-.27-.22-.56-.43-.85-.63a.45.45,0,0,1-.22-.45.82.82,0,0,0,0-.09q0-5.89,0-11.78a.6.6,0,0,1,.28-.57c.32-.21.62-.45.92-.68a.58.58,0,0,1,.43-.15h46.4a1.18,1.18,0,0,1,.83.28,8.3,8.3,0,0,0,.75.56.49.49,0,0,1,.26.51,1,1,0,0,0,0,.15q0,5.8,0,11.6c0,.09,0,.18,0,.26a.33.33,0,0,1-.15.3c-.37.27-.73.56-1.11.82a.72.72,0,0,1-.3.09,1.83,1.83,0,0,1-.29,0Zm0-2.25H62.76c.42,0,.42,0,.42-.43,0,0,0,0,0-.06q0-4.57,0-9.13c0-.47,0-.47-.46-.47H18.23c-.47,0-.47,0-.47.47q0,4.58,0,9.16s0,.1,0,.15c0,.28,0,.3.3.31H40.47Z"/><path class="cls-3" d="M57.27,52.8a2.75,2.75,0,0,1,0,.28A13.09,13.09,0,0,1,54.86,58a12.11,12.11,0,0,1-1.75,1.77,19.16,19.16,0,0,1-2.54,1.8A11.71,11.71,0,0,1,46.35,63a20.81,20.81,0,0,1-3.36.24H29c-.51,0-.47,0-.47.45q0,9.16,0,18.32c0,.51,0,.49-.5.49H18.23c-.47,0-.47,0-.47-.47q0-14.4,0-28.81c0-.48,0-.48.48-.48H56.84ZM28.09,62.85H42.85a23,23,0,0,0,2.7-.12,13.58,13.58,0,0,0,3.36-.8A14.41,14.41,0,0,0,52.16,60a12,12,0,0,0,4.52-6.47c0-.11.05-.21.08-.33H18.2V82.08c.31.06,9.64.05,9.89,0Z"/><path class="cls-3" d="M40.47,43.6H18.07c-.27,0-.29,0-.3-.31,0,0,0-.1,0-.15q0-4.58,0-9.16c0-.47,0-.47.47-.47H62.72c.46,0,.46,0,.46.47q0,4.57,0,9.13s0,0,0,.06c0,.42,0,.43-.42.43ZM62.75,34l-.11,0H18.39l-.14,0h0l0,0v9.19H62.75Z"/><path class="cls-3" d="M28.09,62.85V82.07c-.24.07-9.58.08-9.89,0V53.21H56.77c0,.12-.05.22-.08.33A12,12,0,0,1,52.16,60a14.41,14.41,0,0,1-3.25,1.92,13.58,13.58,0,0,1-3.36.8,23,23,0,0,1-2.7.12H28.09Z"/><path class="cls-3" d="M62.75,34v9.22H18.2V34l0,0h0l.14,0H62.65Z"/><path class="cls-3" d="M146.93,85.17H134.31a.69.69,0,0,1-.52-.2c-.55-.53-1.12-1-1.68-1.56l-.23-.21.11-.3Q137,70.57,142.1,58.24a.73.73,0,0,0,0-.61Q137,45.39,132,33.14l-.11-.28a1.66,1.66,0,0,1,.13-.15L133.87,31a.49.49,0,0,1,.37-.14h12.7L155.17,52h.53l2.77-7.14H174c0,.13-.08.23-.13.34l-3.68,9c-.48,1.17-1,2.34-1.44,3.5a.76.76,0,0,0,0,.64q4.78,11.63,9.54,23.27l.69,1.69-.23.18L177.07,85a.59.59,0,0,1-.44.18H164l-.16-.39-7.93-19.42c-.18-.44-.18-.44-.7-.36Zm26.49-39.92-.41,0H159.18c-.43,0-.41,0-.57.38l-2,5.12c-.18.47-.37.95-.55,1.42a.32.32,0,0,1-.35.25h-.59a.3.3,0,0,1-.33-.23c-.07-.2-.15-.4-.23-.6L150,39.76l-3.2-8.2c-.11-.29-.12-.29-.42-.29H134.45a.63.63,0,0,0-.47.18c-.45.43-.92.85-1.38,1.28-.24.22-.24.22-.11.52l1.63,4,4.48,10.88q2,4.73,3.91,9.47a.79.79,0,0,1,0,.78v0l-3.27,8L134.5,77.85l-2,4.94c-.12.29-.12.29.11.5.45.42.91.83,1.36,1.26a.7.7,0,0,0,.53.2h11.86c.32,0,.32,0,.45-.31l2-4.81,5.09-12.47.92-2.25c.14-.35.14-.35.54-.36h.32a.44.44,0,0,1,.5.34c.72,1.79,1.45,3.57,2.18,5.35L164,84.32c.19.47.13.43.63.43h11.83a.48.48,0,0,0,.37-.15l1.44-1.34.18-.2-.14-.36-.67-1.63L174,72q-2.82-6.87-5.64-13.74a.67.67,0,0,1,0-.56c.52-1.25,1-2.51,1.55-3.77l3.19-7.76Z"/><path class="cls-3" d="M176.63,85.67h-13l-.29-.7-7.89-19.32-8.18,20h-13a1.18,1.18,0,0,1-.87-.34l-1.24-1.15-.91-.83.24-.64.65-1.6q4.72-11.53,9.45-23.06a.24.24,0,0,0,0-.23l-9.36-22.7-.93-2.27.15-.32a1.7,1.7,0,0,1,.17-.2l.67-.62,1.19-1.1a1,1,0,0,1,.71-.28l13,0,.19.3,8,20.6,2.69-6.95h16.62l-.29.78-.09.25-4,9.73c-.37.91-.75,1.83-1.13,2.73a.26.26,0,0,0,0,.25q4.49,10.92,9,21.85l1.41,3.45-.37.3-.12.1-.2.18-1.52,1.41A1.09,1.09,0,0,1,176.63,85.67ZM133,82.95l.46.42.88.82a.21.21,0,0,0,.18.06h11.85l8-19.53a.86.86,0,0,1,1-.67h.28a.93.93,0,0,1,1,.65c.54,1.35,1.09,2.69,1.64,4l6.33,15.49v0h12l1.39-1.3-.69-1.68-3.74-9.13q-2.81-6.87-5.64-13.74a1.16,1.16,0,0,1,0-.94c.39-.94.78-1.89,1.17-2.83l3.65-8.9H159.1l0,.06-2.18,5.63-.35.91a.84.84,0,0,1-.84.57h-.55a.8.8,0,0,1-.82-.56c-.06-.16-.12-.32-.18-.48l-7.85-20.09H134.45c-.08,0-.09,0-.12,0l-1,.89-.41.37,6.91,16.75q1.55,3.77,3.11,7.53a1.29,1.29,0,0,1,0,1.22Z"/><path class="cls-3" d="M179.83,30.85c0,.13-.08.22-.12.31L174.28,44c0,.05-.05.11-.07.16a.21.21,0,0,1-.24.17H160.55c-.48,0-1,0-1.44-.06-.3,0-.33-.07-.28-.37a19.59,19.59,0,0,1,.85-3.5A15.14,15.14,0,0,1,162,36.05a13,13,0,0,1,5-3.8A15.94,15.94,0,0,1,171.79,31a27.54,27.54,0,0,1,3.08-.16h5Zm-.64.44-.23,0c-2,0-4,0-6,.06a16.69,16.69,0,0,0-2.24.25,14.53,14.53,0,0,0-4.7,1.67,11.75,11.75,0,0,0-4.11,3.7,16.34,16.34,0,0,0-2.56,6.63,1.83,1.83,0,0,0,0,.26c.37,0,.72.06,1.07.06h13.16a.44.44,0,0,0,.48-.31q2.54-6,5.1-12.05C179.13,31.47,179.15,31.38,179.19,31.28Z"/><path class="cls-3" d="M174,44.82H160.55c-.49,0-1,0-1.47-.06a.82.82,0,0,1-.62-.27.82.82,0,0,1-.11-.69,20.22,20.22,0,0,1,.87-3.59,15.56,15.56,0,0,1,2.41-4.46,13.39,13.39,0,0,1,5.22-3.94,16.52,16.52,0,0,1,4.89-1.29,28.09,28.09,0,0,1,3.13-.16h5.68l-.3.79-.08.21-5.43,12.83-.5,0h0l.45.16A.7.7,0,0,1,174,44.82Zm-14.16-1.44.53,0h13.16l3.8-9,1.14-2.68h-1.15c-1.46,0-2.92,0-4.38.05a16.21,16.21,0,0,0-2.17.25,13.93,13.93,0,0,0-4.54,1.62,11.31,11.31,0,0,0-3.93,3.54A15.61,15.61,0,0,0,159.84,43.38Z"/><path class="cls-4" d="M173.42,45.25l-.35.87-3.19,7.76c-.52,1.26-1,2.52-1.55,3.77a.67.67,0,0,0,0,.56Q171.15,65.08,174,72l3.74,9.13.67,1.63.14.36-.18.2-1.44,1.34a.48.48,0,0,1-.37.15H164.68c-.5,0-.44,0-.63-.43L158.3,70.24c-.73-1.78-1.46-3.57-2.18-5.35a.44.44,0,0,0-.5-.34h-.32c-.39,0-.39,0-.54.36l-.92,2.25-5.09,12.47-2,4.81c-.12.31-.13.31-.45.31H134.47a.7.7,0,0,1-.53-.2c-.45-.43-.9-.84-1.36-1.26-.23-.21-.23-.22-.11-.5l2-4.94,4.71-11.52,3.27-8v0a.79.79,0,0,0,0-.78q-2-4.73-3.91-9.47L134.12,37.2l-1.63-4c-.12-.3-.12-.3.11-.52.46-.43.93-.84,1.38-1.28a.63.63,0,0,1,.47-.18h11.89c.31,0,.31,0,.42.29l3.2,8.2,4.61,11.81c.08.2.16.4.23.6a.3.3,0,0,0,.33.23h.59a.32.32,0,0,0,.35-.25c.18-.48.37-.95.55-1.42l2-5.12c.16-.42.14-.38.57-.38H173Zm-3.33,2.22-.45,0h-9c-.58,0-.48,0-.7.47q-1.32,3-2.63,6.09a.35.35,0,0,1-.37.25h-3a.32.32,0,0,1-.35-.23c-.15-.39-.31-.78-.47-1.17l-5-12.24q-1.38-3.4-2.75-6.8a.41.41,0,0,0-.46-.3h-9.78l-.37,0c0,.15.08.25.12.35l2.3,5.56L142,50.93q1.39,3.36,2.79,6.72a.69.69,0,0,1,0,.59c-.35.84-.69,1.68-1,2.52l-5.27,12.81-2.58,6.27-.95,2.31a3.7,3.7,0,0,0-.11.37l.34,0h9.81a.42.42,0,0,0,.46-.31c.36-.91.74-1.81,1.12-2.71l5.25-12.6c.58-1.39,1.15-2.78,1.73-4.17.2-.48.12-.41.61-.41h2.82a.38.38,0,0,1,.41.28c.9,2.19,1.82,4.37,2.73,6.56l5.43,13.06c.09.22.2.35.46.31h10a1,1,0,0,0,.2-.07c0-.11-.07-.2-.11-.29L175.52,81l-5.26-12.78q-2.05-5-4.11-10a.78.78,0,0,1,0-.64c.38-1,.75-1.91,1.13-2.87l2.7-6.91C170,47.73,170,47.63,170.09,47.47Z"/><path class="cls-4" d="M179.19,31.28c0,.1-.05.18-.09.26q-2.55,6-5.1,12.05a.44.44,0,0,1-.48.31H160.37c-.35,0-.7,0-1.07-.06a1.83,1.83,0,0,1,0-.26A16.34,16.34,0,0,1,161.86,37a11.75,11.75,0,0,1,4.11-3.7,14.53,14.53,0,0,1,4.7-1.67,16.69,16.69,0,0,1,2.24-.25c2,0,4,0,6-.06Zm-3.48,2.26-.17,0a27.83,27.83,0,0,0-4.39.19,11,11,0,0,0-2.22.54,11.27,11.27,0,0,0-3,1.81,9.68,9.68,0,0,0-3.49,5.72,3.11,3.11,0,0,0,0,.33l.35,0h9a.42.42,0,0,0,.46-.3c.14-.38.31-.74.47-1.11l2.9-6.84C175.63,33.79,175.66,33.68,175.71,33.54Z"/><path class="cls-3" d="M170.09,47.47c-.05.16-.08.26-.12.36l-2.7,6.91c-.37,1-.74,1.92-1.13,2.87a.78.78,0,0,0,0,.64q2.06,5,4.11,10L175.52,81l.47,1.14c0,.09.07.18.11.29a1,1,0,0,1-.2.07h-10c-.25,0-.37-.09-.46-.31l-5.43-13.06c-.91-2.19-1.82-4.37-2.73-6.56a.38.38,0,0,0-.41-.28H154.1c-.49,0-.41-.07-.61.41-.58,1.39-1.15,2.78-1.73,4.17l-5.25,12.6c-.38.9-.76,1.8-1.12,2.71a.42.42,0,0,1-.46.31h-9.81l-.34,0a3.7,3.7,0,0,1,.11-.37l.95-2.31,2.58-6.27,5.27-12.81c.35-.84.69-1.69,1-2.52a.69.69,0,0,0,0-.59q-1.4-3.36-2.79-6.72l-4.76-11.5-2.3-5.56c0-.1-.07-.2-.12-.35l.37,0h9.78a.41.41,0,0,1,.46.3q1.36,3.41,2.75,6.8l5,12.24c.16.39.32.78.47,1.17a.32.32,0,0,0,.35.23h3a.35.35,0,0,0,.37-.25q1.3-3,2.63-6.09c.22-.5.12-.47.7-.47h9ZM145,82.11l8.4-20.18h4.1l8.39,20.17h9.63l-.13-.35q-4.83-11.75-9.67-23.5a.78.78,0,0,1,0-.64q1.85-4.71,3.69-9.43l.11-.32h-9.09l-2.91,6.74-.22,0h-3.64c-.17,0-.29,0-.33-.21a.9.9,0,0,0-.05-.14L146.7,38.14c-.54-1.33-1.08-2.66-1.62-4-.07-.17-.15-.25-.34-.24s-.37,0-.56,0h-8.46l-.36,0,.13.34q4.84,11.68,9.68,23.37a.72.72,0,0,1,0,.61q-2.82,6.83-5.63,13.67l-4.05,9.85-.13.34Z"/><path class="cls-3" d="M175.71,33.54c0,.14-.07.25-.12.35l-2.9,6.84c-.16.37-.33.73-.47,1.11a.42.42,0,0,1-.46.3h-9l-.35,0a3.11,3.11,0,0,1,0-.33,9.68,9.68,0,0,1,3.49-5.72,11.27,11.27,0,0,1,3-1.81,11,11,0,0,1,2.22-.54,27.83,27.83,0,0,1,4.39-.19Zm-3.89,8.16.11-.24L175.09,34s0,0,0,0l0,0h-.17c-1,0-1.94,0-2.9.11a11,11,0,0,0-2.53.47,10.34,10.34,0,0,0-3.32,1.89,9.27,9.27,0,0,0-3.2,4.9c0,.13-.06.26-.1.42Z"/><path class="cls-3" d="M145,82.11h-9.62l.13-.34,4.05-9.85q2.81-6.84,5.63-13.67a.72.72,0,0,0,0-.61Q140.34,46,135.5,34.27l-.13-.34.36,0h8.46c.19,0,.37,0,.56,0s.27.07.34.24c.53,1.34,1.08,2.67,1.62,4l6.55,16.15a.9.9,0,0,1,.05.14c0,.18.16.22.33.21h3.64l.22,0,2.91-6.74h9.09l-.11.32q-1.84,4.71-3.69,9.43a.78.78,0,0,0,0,.64q4.84,11.75,9.67,23.5l.13.35h-9.63l-8.39-20.17h-4.1Z"/><path class="cls-3" d="M171.82,41.7h-9c0-.16.07-.29.1-.42a9.27,9.27,0,0,1,3.2-4.9,10.34,10.34,0,0,1,3.32-1.89A11,11,0,0,1,172,34c1-.07,1.94-.08,2.9-.11h.17l0,0s0,0,0,0l-3.16,7.49Z"/><path class="cls-2" d="M132.42,49.57c-4.68-13.12-19.28-25-29-23.41.17,2.75-.72,5.6.72,8.54a10.57,10.57,0,0,1-2.54.81c-4.85.32-7.92,3.36-10.72,6.83-2.34,2.89-4.61,5.81-8.41,6.95A16.17,16.17,0,0,0,80,50.5a3.29,3.29,0,0,0-1.6-.05,3.35,3.35,0,0,0-1.21.36l-.46.21c-1.75.87-2.8,2.3-2.36,3.2l.06.1a.84.84,0,0,0,.15.2c3.08,5,7.47,8.06,12.48,10.26,9.09,4,17.35,9.16,23.75,16.87,2.45,3,4.51,6.23,6.76,9.36C131.18,83.13,137.81,64.69,132.42,49.57ZM79.8,54.51c2.32-.22,4.42-.33,6.49-.64a20.86,20.86,0,0,0,9.91-4.8A27.51,27.51,0,0,1,102.61,45c4-1.68,7.88.92,8.35,5.29.55,5.15-2.16,9.42-7.26,11.44C96.51,64.56,84.63,61.06,79.8,54.51Zm39.12,30.41L104.49,69a42.14,42.14,0,0,1,18.92,11.46Z"/><path class="cls-3" d="M117.4,91.65l-.26-.37c-.7-1-1.39-2-2.08-3-1.47-2.13-3-4.34-4.66-6.35-5.67-6.85-13.16-12.17-23.56-16.73C81,62.65,77,59.34,74.16,54.81a1.34,1.34,0,0,1-.19-.27l-.06-.11c-.59-1.19.52-2.85,2.58-3.87l.49-.22a3.73,3.73,0,0,1,1.36-.39,3.84,3.84,0,0,1,1.58,0l.57-.31a9.4,9.4,0,0,1,1.85-.86c3.54-1.06,5.69-3.71,8-6.53L90.5,42c2.6-3.21,5.81-6.67,11.08-7a5.52,5.52,0,0,0,1.64-.48l.26-.1a12.34,12.34,0,0,1-.59-5.68,21.08,21.08,0,0,0,0-2.54l0-.45.45-.07C113.21,24,128.11,36,132.89,49.4h0c5.44,15.24-1.33,34.1-15.1,42ZM79.13,50.88a3.85,3.85,0,0,0-.67.06,2.94,2.94,0,0,0-1.08.31l-.45.2c-1.55.77-2.41,2-2.13,2.53l.18.26c2.68,4.37,6.58,7.57,12.25,10.06,10.55,4.63,18.15,10,23.93,17,1.7,2,3.23,4.27,4.71,6.43.6.87,1.19,1.73,1.8,2.59,13.1-7.83,19.5-25.94,14.27-40.6-4.56-12.79-18.55-24.28-28-23.15,0,.74,0,1.48-.07,2.2a10.83,10.83,0,0,0,.72,5.69l.25.51-.54.18c-.23.08-.47.17-.71.27a6.35,6.35,0,0,1-2,.56c-4.87.32-7.9,3.59-10.37,6.64l-.2.25c-2.27,2.81-4.61,5.71-8.45,6.86a8.54,8.54,0,0,0-1.65.77l-.78.42L80,51l-.2-.07A2.12,2.12,0,0,0,79.13,50.88ZM118.9,85.64,102.94,68l1.69.49a42.49,42.49,0,0,1,19.14,11.6l.34.35ZM106.09,70l12.85,14.2,3.77-3.76A41.41,41.41,0,0,0,106.09,70Zm-8.17-6.78c-6.85,0-14.78-3.33-18.53-8.41l-.52-.71.88-.08,2.16-.19c1.49-.12,2.91-.24,4.3-.45,3.24-.49,6.22-1.94,9.68-4.7a28,28,0,0,1,6.53-4.14,6.33,6.33,0,0,1,5.78.3,7,7,0,0,1,3.26,5.4c.58,5.39-2.26,9.85-7.57,12A16.28,16.28,0,0,1,97.93,63.21ZM80.77,54.92c5,5.9,15.94,9,22.75,6.33,4.87-1.92,7.47-6,6.94-10.92a6,6,0,0,0-2.78-4.65,5.35,5.35,0,0,0-4.88-.23,27.15,27.15,0,0,0-6.29,4c-3.6,2.88-6.73,4.39-10.15,4.91-1.43.22-2.85.33-4.37.46Z"/><path class="cls-4" d="M79.8,54.51c2.32-.22,4.42-.33,6.49-.64a20.86,20.86,0,0,0,9.91-4.8A27.51,27.51,0,0,1,102.61,45c4-1.68,7.88.92,8.35,5.29.55,5.15-2.16,9.42-7.26,11.44C96.51,64.56,84.63,61.06,79.8,54.51Z"/><path class="cls-4" d="M98,63.7c-7,0-15.13-3.41-19-8.6l-1-1.42,1.76-.17,2.17-.19c1.49-.12,2.89-.24,4.26-.45,3.14-.48,6.06-1.89,9.44-4.59a28.49,28.49,0,0,1,6.65-4.21,6.81,6.81,0,0,1,6.22.33,7.5,7.5,0,0,1,3.5,5.78c.6,5.62-2.35,10.28-7.88,12.47A16.7,16.7,0,0,1,98,63.7ZM81.82,55.34c5.09,5.18,15.28,7.92,21.51,5.46C108,59,110.46,55.07,110,50.39a5.52,5.52,0,0,0-2.53-4.27,4.86,4.86,0,0,0-4.44-.2,26.7,26.7,0,0,0-6.17,3.92c-3.67,2.93-6.88,4.48-10.39,5-1.44.22-2.88.34-4.4.46Z"/><path class="cls-4" d="M104.49,69a42.14,42.14,0,0,1,18.92,11.46l-4.49,4.48Z"/><path class="cls-4" d="M118.88,86.37,101.39,67l3.38,1a43,43,0,0,1,19.36,11.73l.69.71ZM107.81,71.14,119,83.47l3-3A40.91,40.91,0,0,0,107.81,71.14Z"/><path d="M64.48,114.78H63.16v-6.72l-1,4.47h-.41c-.78,0-.93-.78-1-1.06L60,108.06v6.72H58.63v-13h.82a.59.59,0,0,1,.6.48l1.54,7.48,1.47-7.5a.59.59,0,0,1,.6-.47h.82Z"/><path d="M77.18,101.62a1.68,1.68,0,0,1,1.62,1.66v10a1.67,1.67,0,0,1-1.62,1.64h-1a1.69,1.69,0,0,1-1.68-1.64v-10a1.66,1.66,0,0,1,1.68-1.66Zm-.45,12.12a.71.71,0,0,0,.71-.73v-9.49a.71.71,0,0,0-.71-.73h-.21a.74.74,0,0,0-.71.73V113a.74.74,0,0,0,.71.73Z"/><path d="M93.71,102.72a.7.7,0,0,1-.71.35H92a.34.34,0,0,0-.33.32v11.39h-.95c-.32,0-.37-.19-.37-.28V103.07H88.42v-.91a.41.41,0,0,1,.41-.41h5.32Z"/><path d="M106,101.62a1.68,1.68,0,0,1,1.62,1.66v10a1.67,1.67,0,0,1-1.62,1.64h-1a1.68,1.68,0,0,1-1.67-1.64v-10a1.66,1.66,0,0,1,1.67-1.66Zm-.45,12.12a.71.71,0,0,0,.71-.73v-9.49a.71.71,0,0,0-.71-.73h-.21a.74.74,0,0,0-.71.73V113a.74.74,0,0,0,.71.73Z"/><path d="M121.06,114.78V110c0-.63-.33-.84-.69-.84h-.71v5.6h-1.34v-13h2.44a1.64,1.64,0,0,1,1.64,1.64v4s.06,1-.48,1.15c.52.26.48,1.23.48,1.23v5Zm-.69-6.87c.35,0,.69-.15.69-.74v-3.5a.63.63,0,0,0-.69-.67h-.71v4.91Z"/><path d="M136,105v-1.51a.71.71,0,1,0-1.42,0v1.25a4.38,4.38,0,0,0,.58,1.75l1.6,3a4.18,4.18,0,0,1,.6,2.07v1.66a1.66,1.66,0,0,1-1.68,1.66h-.84a1.69,1.69,0,0,1-1.62-1.66v-1.34a.76.76,0,0,1,.37-.73c.11,0,.65-.28,1-.43V113a.71.71,0,1,0,1.42,0v-1.49a4.51,4.51,0,0,0-.58-1.77l-1.6-3a4.18,4.18,0,0,1-.6-2.07v-1.34a1.73,1.73,0,0,1,1.67-1.73h.84a1.73,1.73,0,0,1,1.62,1.73v.5a.76.76,0,0,1-.37.73C136.86,104.64,136.34,104.88,136,105Z"/></svg>