<svg xmlns="http://www.w3.org/2000/svg" xmlns:xlink="http://www.w3.org/1999/xlink" xmlns:fi="http://pattern.flaticon.com/" x="0" y="0" width="2000" height="1000" viewBox="0 0 1750 875"><rect x="0px" y="0px" width="100%" height="100%" opacity="1" fill="#ffffff"/><defs><path d="M340.48,25.6h-5.12V15.36c0-3.072-2.048-5.12-5.12-5.12c-3.072,0-5.12,2.048-5.12,5.12V25.6H243.2V5.12    c0-3.072-2.048-5.12-5.12-5.12s-5.12,2.048-5.12,5.12V25.6h-87.04V15.36c0-3.072-2.048-5.12-5.12-5.12    c-3.072,0-5.12,2.048-5.12,5.12V25.6h-5.12c-5.632,0-10.24,4.608-10.24,10.24v10.24c0,5.632,4.608,10.24,10.24,10.24h46.08v15.36    c0,3.072,2.048,5.12,5.12,5.12h35.84v17.088l-52.736,14.144c-8.192,2.56-12.8,10.752-10.752,18.944    c2.048,6.656,7.68,11.264,14.848,11.264c1.024,0,2.56,0,4.096-0.512l2.42-0.649l35.98,4.233c1.024,0,2.048-0.512,3.072-2.048    c0.512-1.536-0.512-3.072-2.048-3.072l-23.422-2.756l28.542-7.655v19.307l-52.736,14.144c-8.192,2.56-12.8,10.752-10.752,18.944    c2.048,6.656,7.68,11.264,14.848,11.264c1.024,0,2.56,0,4.096-0.512l2.42-0.649l35.98,4.233c1.024,0,2.048-0.512,3.072-2.048    c0.512-1.536-0.512-3.072-2.048-3.072l-23.422-2.756l28.542-7.655v19.307l-52.736,14.144c-8.192,2.56-12.8,10.752-10.752,18.944    c2.048,6.656,7.68,11.264,14.848,11.264c1.024,0,2.56,0,4.096-0.512l24.064-6.454v16.747l-32.256,8.651    c-8.192,2.56-12.8,10.752-10.752,18.944c1.129,3.668,3.35,6.708,6.313,8.704h-4.265c-5.632,0-10.24,4.608-10.24,10.24v10.24    c0,5.632,4.608,10.24,10.24,10.24h30.72v70.656c0,6.144,4.096,12.288,10.24,14.336l2.048,1.024    c1.585,0.551,3.181,1.059,4.784,1.536h-0.176l13.476,29.276c-2.979,3.822-4.772,8.596-4.772,13.732    c0,12.8,10.24,23.04,23.04,23.04c12.288,0,22.528-10.24,22.016-23.04c0-4.186-1.19-8.133-3.243-11.52l13.995-31.488h-1.862    c1.637-0.477,3.28-0.985,4.935-1.536l3.072-1.024c6.144-2.048,10.24-7.68,10.24-14.336V317.44h30.208    c5.632,0,10.24-4.608,10.24-10.24v-10.24c0-5.632-4.608-10.24-10.24-10.24h-40.96v-25.004l32.768-8.788    c8.192-2.56,12.8-10.752,10.752-18.944c-2.048-6.656-7.68-11.264-14.848-11.264c-1.536,0-2.56,0-4.096,0.512l-24.576,6.591    v-16.747l32.768-8.788c8.192-2.56,12.8-10.752,10.752-18.944c-2.048-6.656-7.68-11.264-14.848-11.264    c-1.536,0-3.072,0-4.096,0.512l-7.634,2.047l-29.742-3.583c-1.536-0.512-3.072,0.512-3.072,2.048    c-0.512,1.536,0.512,3.072,2.048,3.072l17.34,2.064l-23.996,6.436v-19.252h-0.205l53.453-14.336    c8.192-2.56,12.8-10.752,10.752-18.944c-2.048-6.656-7.68-11.264-14.848-11.264c-1.536,0-3.072,0-4.096,0.512l-7.634,2.047    l-29.742-3.583c-1.536-0.512-3.072,0.512-3.072,2.048c-0.512,1.536,0.512,3.072,2.048,3.072l17.34,2.064l-23.996,6.436v-19.307    l53.248-14.281c8.192-2.56,12.8-10.752,10.752-18.944c-2.048-6.656-7.68-11.264-14.848-11.264c-1.536,0-3.072,0-4.096,0.512    l-4.349,1.166c0.152-0.519,0.253-1.072,0.253-1.678V56.32h46.08c5.632,0,10.24-4.608,10.24-10.24V35.84    C350.72,30.208,346.112,25.6,340.48,25.6z M235.52,461.824c-7.68,0-13.824-6.144-13.824-13.824s6.144-13.824,13.824-13.824    s13.824,6.144,13.824,13.824S243.2,461.824,235.52,461.824z M255.488,408.064l-9.359,20.42c-3.297-1.908-7.097-3.012-11.121-3.012    c-3.426,0-6.692,0.798-9.623,2.213l-8.809-19.621h0.576c6.08,1.024,12.224,1.536,18.368,1.536c5.888,0,11.776-0.512,17.728-1.536    H255.488z M227.84,76.8h15.36v10.222l-15.36,4.12V76.8z M180.692,286.72l16.428-4.406v4.406H180.692z M270.848,392.704    l-3.072,1.024c-20.992,7.168-44.032,7.168-65.024-0.512l-2.048-0.512c-2.048-0.512-3.584-2.56-3.584-4.608v-22.985    c0.334,0.163,0.675,0.317,1.024,0.457l2.048,0.512c11.264,4.096,23.04,6.144,35.328,6.144c11.264,0,23.04-2.048,34.304-5.632    l3.072-1.024c0.531-0.212,1.041-0.458,1.536-0.724v23.252C274.432,390.144,272.896,392.192,270.848,392.704z M274.432,358.415    c-0.828,0.908-1.867,1.631-3.072,2.033l-3.072,1.024c-21.504,7.168-45.056,7.168-66.56-0.512l-2.048-0.512    c-0.972-0.324-1.826-0.869-2.56-1.538v-41.47h77.312V358.415z M314.88,307.2H156.16v-10.24h158.72V307.2z M263.68,286.72h-56.32    v-7.152l56.32-15.105V286.72z M301.056,232.96c0.512,0,1.024,0,1.536,0c2.048,0,4.096,1.536,4.608,3.584    c0.512,2.56-1.024,5.632-3.584,6.144l-133.632,35.84c-2.56,1.024-5.632-1.024-6.144-3.584c-0.512-2.56,1.024-5.632,3.584-6.144    L301.056,232.96z M263.68,232.57l-56.32,15.105v-16.747l56.32-15.105V232.57z M307.2,187.904c0.512,2.56-1.024,5.632-3.584,6.144    l-133.632,35.84c-2.56,1.024-5.632-1.024-6.144-3.584c-0.512-2.56,1.024-5.632,3.584-6.144l133.632-35.84c0.512,0,1.024,0,1.536,0    C304.64,184.32,306.688,185.856,307.2,187.904z M243.2,189.422l-15.36,4.12v-19.307l15.36-4.12V189.422z M307.2,136.704    c0.512,2.56-1.024,5.632-3.584,6.144l-133.632,35.84c-2.56,0.512-5.632-1.024-6.144-3.584c-0.512-2.56,1.024-5.632,3.584-6.144    l133.632-35.84c0.512,0,1.024,0,1.536,0C304.64,133.12,306.688,134.656,307.2,136.704z M243.2,138.222l-15.36,4.12v-19.307    l15.36-4.12V138.222z M301.056,81.92c0.512,0,1.024,0,1.536,0c2.048,0,4.096,1.536,4.608,3.584    c0.512,2.56-1.024,5.632-3.584,6.144l-133.632,35.84c-2.56,1.024-5.632-1.024-6.144-3.584c-0.512-2.56,1.024-5.632,3.584-6.144    L301.056,81.92z M253.44,84.276V76.8h27.875L253.44,84.276z M284.16,66.56h-97.28V56.32h97.28V66.56z M340.48,46.08h-51.2H181.76    h-51.2V35.84h209.92V46.08z" transform="matrix(0.1983470469713211 0 0 0.1983470469713211 142.28527127172492 231.28672318905592)" fill="#c7c7c7"/><path d="M158.602,119.552v-19.267h-8.73c-1.551-9.696-5.346-18.623-10.884-26.23l6.188-6.188l-13.622-13.622   l-6.188,6.188c-7.608-5.531-16.534-9.332-26.23-10.878v-8.736H79.875v8.736c-9.69,1.545-18.599,5.346-26.23,10.878l-6.176-6.188   L33.841,67.867l6.188,6.188c-5.543,7.62-9.326,16.54-10.878,26.23H20.41v19.267h8.73c1.551,9.69,5.34,18.611,10.878,26.23   l-6.188,6.182l13.628,13.622l6.176-6.188c7.62,5.531,16.534,9.326,26.23,10.878v8.735h19.261v-8.735   c9.696-1.551,18.611-5.346,26.23-10.878l6.188,6.188l13.622-13.622l-6.188-6.182c5.549-7.614,9.332-16.534,10.884-26.23   C149.861,119.552,158.602,119.552,158.602,119.552z M131.435,109.916c0,23.122-18.808,41.929-41.929,41.929   s-41.929-18.808-41.929-41.929s18.808-41.929,41.929-41.929C112.628,67.987,131.435,86.794,131.435,109.916z M89.506,75.785   c-18.82,0-34.136,15.311-34.136,34.13s15.311,34.136,34.136,34.136c18.82,0,34.13-15.311,34.13-34.136   C123.642,91.102,108.326,75.785,89.506,75.785z M89.506,137.626c-15.287,0-27.716-12.435-27.716-27.716   s12.423-27.704,27.716-27.704c15.287,0,27.71,12.429,27.71,27.704S104.793,137.626,89.506,137.626z M108.946,35.193l-3.837,3.831   l4.547,4.541l3.837-3.831c2.273,1.617,4.917,2.727,7.799,3.216v5.43h6.402v-5.43c2.864-0.489,5.525-1.599,7.799-3.216l3.837,3.831   l4.535-4.541l-3.825-3.831c1.611-2.279,2.715-4.923,3.216-7.787h5.43V20.98h-5.43c-0.501-2.864-1.611-5.507-3.216-7.793   l3.825-3.837l-4.535-4.541l-3.837,3.837c-2.285-1.617-4.917-2.727-7.799-3.216V0h-6.408v5.43c-2.864,0.489-5.513,1.599-7.799,3.216   l-3.837-3.837l-4.547,4.541l3.837,3.837c-1.617,2.279-2.727,4.923-3.216,7.793h-5.43v6.426h5.43   C106.219,30.276,107.323,32.919,108.946,35.193z M124.478,14.744c5.209,0,9.452,4.236,9.452,9.452s-4.242,9.452-9.452,9.452   c-5.209,0-9.452-4.236-9.452-9.452S119.281,14.744,124.478,14.744z" transform="matrix(0.3351730704307556 0 0 0.3351730704307556 75 33)" fill="#c7c7c7" id="L1_2"/></defs><g fi:class="KUsePattern" transform="matrix(1 0 0 1 20 20)"><pattern id="pattern_UNKNOWN" width="350" height="350" patternUnits="userSpaceOnUse"><use xlink:href="#UNKNOWN" x="-350" y="-350"/><use xlink:href="#UNKNOWN" x="0" y="-350"/><use xlink:href="#UNKNOWN" x="350" y="-350"/><use xlink:href="#UNKNOWN" x="-350" y="0"/><use xlink:href="#UNKNOWN" x="0" y="0"/><use xlink:href="#UNKNOWN" x="350" y="0"/><use xlink:href="#UNKNOWN" x="-350" y="350"/><use xlink:href="#UNKNOWN" x="0" y="350"/><use xlink:href="#UNKNOWN" x="350" y="350"/></pattern><rect x="0" y="0" width="100%" height="100%" fill="url(#pattern_UNKNOWN)"/></g><g fi:class="KUsePattern"><pattern id="pattern_L1_2" width="350" height="350" patternUnits="userSpaceOnUse"><use xlink:href="#L1_2" x="-350" y="-350"/><use xlink:href="#L1_2" x="0" y="-350"/><use xlink:href="#L1_2" x="350" y="-350"/><use xlink:href="#L1_2" x="-350" y="0"/><use xlink:href="#L1_2" x="0" y="0"/><use xlink:href="#L1_2" x="350" y="0"/><use xlink:href="#L1_2" x="-350" y="350"/><use xlink:href="#L1_2" x="0" y="350"/><use xlink:href="#L1_2" x="350" y="350"/></pattern><rect x="0" y="0" width="100%" height="100%" fill="url(#pattern_L1_2)"/></g></svg>