<svg id="Слой_1" data-name="Слой 1" xmlns="http://www.w3.org/2000/svg" viewBox="0 0 25 25"><defs><style>.cls-1{fill:#ff931e;}.cls-2{fill:none;stroke:#000;stroke-miterlimit:10;}</style></defs><title>phone_back</title><circle class="cls-1" cx="12.5" cy="12.5" r="12.5"/><path d="M6.64,6.46,10,9.89a.78.78,0,0,0,0,1,8.21,8.21,0,0,0,.7,1,16.62,16.62,0,0,0,3.16,2.93,3.42,3.42,0,0,0,.46.27.69.69,0,0,0,.85-.06l3.33,3.34a3.34,3.34,0,0,1-.33.21,3.29,3.29,0,0,1-1.66.27,7.54,7.54,0,0,1-3.41-1.21,17.66,17.66,0,0,1-3.63-3A15.41,15.41,0,0,1,7.1,11.4,7.46,7.46,0,0,1,6.22,9a3.85,3.85,0,0,1,.18-2.08,3,3,0,0,1,.15-.29Z"/><path d="M10.33,9.62,6.93,6.2c.32-.33.63-.67,1-1a.5.5,0,0,1,.71.06L10.38,7l.82.82a.54.54,0,0,1,0,.87Z"/><path d="M18.81,18.08l-3.32-3.34c.32-.33.63-.67,1-1a.5.5,0,0,1,.71.07l2,2,.57.57a.53.53,0,0,1,0,.82Z"/><line x1="13.03" y1="7.58" x2="19.47" y2="7.36"/><line class="cls-2" x1="13.51" y1="7.57" x2="19.47" y2="7.36"/><polygon points="15.04 9.33 15.34 9 13.68 7.56 15.23 6.01 14.92 5.7 13.03 7.58 15.04 9.33"/><line x1="19.47" y1="10.12" x2="13.03" y2="10.34"/><line class="cls-2" x1="18.99" y1="10.13" x2="13.03" y2="10.34"/><polygon points="17.46 8.37 17.16 8.7 18.82 10.14 17.27 11.69 17.58 12 19.47 10.12 17.46 8.37"/></svg>