<svg id="Слой_1" data-name="Слой 1" xmlns="http://www.w3.org/2000/svg" viewBox="0 0 165.92 110.18"><defs><style>.cls-1{fill:#f7931e;}.cls-2{fill:#212121;}.cls-3{fill:ivory;}</style></defs><title>logo_fox</title><path class="cls-1" d="M78.64,50.86c-9.22-1-19.47-9.74-22.69-19C53,23.48,54.21,16.54,58.1,10.64,64,1.62,73.42-1.63,86.69,1.88c9.54,2.52,19,9.57,23.64,17.78-12.41-5.18-22.27-4.36-29.31,3C74.18,29.84,72.09,38.79,78.64,50.86ZM84,17.11c4-.73,7.4-1.8,11.1-1.88s7.82.82,11.72,1.29C100,5.49,77.28-2.41,70.27,4,75,4,79.67,4.16,84.53,6.4l-6,3.46.4.6,8.31,1.68Z"/><path class="cls-2" d="M110.76,19.41c-4.66-8.22-14.28-15.46-23.95-18-13.13-3.47-22.94-.45-29.14,9-4.22,6.42-5,13.71-2.2,21.68,3.3,9.49,13.88,18.34,23.11,19.32l.95.1-.45-.84C73.21,39.81,74,30.78,81.38,23c6.75-7.07,16.42-8,28.75-2.9l1.35.56Zm-4.86-5a33.08,33.08,0,0,1,3.23,4.23C97,14,87.46,15.19,80.66,22.32c-7.56,7.92-8.51,17.06-2.91,27.91-8.65-1.42-18.25-9.68-21.32-18.52-2.7-7.76-2-14.57,2.09-20.8C62.85,4.32,69.06,1,77,1l.5,0h.22a5.74,5.74,0,0,1,.69,0,38.94,38.94,0,0,1,8.12,1.3A39.48,39.48,0,0,1,99,8.31,45.09,45.09,0,0,0,82.27,1.6,4.39,4.39,0,0,1,83,2,4.54,4.54,0,0,1,86.5,3.6c7.31,2.15,15.3,6.66,19.27,12.29l-2.51-.37a49.73,49.73,0,0,0-8.21-.79c-.43,0-.86,0-1.28.07"/><path class="cls-3" d="M84,17.11l1.66-2.49a2,2,0,0,0-1.26-3.07l-5.53-1.12-.11-.66,2.07-1.21a2,2,0,0,0-.52-3.67,39,39,0,0,0-10-.88c7-6.44,29.73,1.46,36.52,12.5-3.91-.47-8-1.37-11.72-1.29S88,16.39,84,17.11Z"/><path class="cls-1" d="M82.89,17.82l2.32-3.47a1.5,1.5,0,0,0-.95-2.3l-5.87-1.19-.22-1.34,2.37-1.38a1.5,1.5,0,0,0-.39-2.75,39.09,39.09,0,0,0-9.88-.86H69l1-.88c3-2.73,8-2.69,11.61-2.18,8.9,1.23,20.94,7.1,25.68,14.79l.54.88-1-.12c-1.2-.14-2.41-.33-3.62-.51a48.06,48.06,0,0,0-8-.77,38.2,38.2,0,0,0-7.38,1.12c-1.17.25-2.37.52-3.65.75ZM79.3,10l5.16,1A2.5,2.5,0,0,1,86,14.9l-1,1.5c.84-.17,1.65-.35,2.44-.52a39,39,0,0,1,7.57-1.14,49.73,49.73,0,0,1,8.21.79l2.51.37c-4.93-7-16-12.27-24.37-13.43-4-.56-7.37-.18-9.58,1.06a36.06,36.06,0,0,1,8.57.9A2.5,2.5,0,0,1,81,9Z"/><circle class="cls-1" cx="77.94" cy="10.18" r="0.86" transform="translate(19.31 62.53) rotate(-49.2)"/><path class="cls-3" d="M116.61,60a4,4,0,0,1-3.36,3l-1.22.17c-.74.1-1.49.21-2.23.3a.86.86,0,0,0-.77.64c-.79,2-1.64,3.94-2.42,5.92a1.13,1.13,0,0,0,.08.91c.64.94,1.36,1.83,2,2.74a3.71,3.71,0,0,1-.33,5.23q-2,2-4.06,4.06a3.71,3.71,0,0,1-5.23.34c-.89-.67-1.79-1.33-2.67-2a.9.9,0,0,0-1.05-.1c-1.92.83-3.84,1.64-5.79,2.4a1,1,0,0,0-.73.92c-.16,1.24-.31,2.49-.54,3.71a3.58,3.58,0,0,1-3.52,3q-3.18.05-6.35,0a3.71,3.71,0,0,1-3.63-3.42c-.16-1.08-.31-2.16-.44-3.25a1,1,0,0,0-.73-.93c-1.94-.76-3.87-1.57-5.79-2.4a.9.9,0,0,0-1.05.1c-.89.7-1.81,1.38-2.72,2.06A3.69,3.69,0,0,1,59,83q-2.1-2.05-4.16-4.16a3.69,3.69,0,0,1-.33-5.13c.69-.93,1.42-1.84,2.08-2.79a1.12,1.12,0,0,0,.08-.91c-.79-2-1.66-4-2.45-6a.9.9,0,0,0-.88-.6c-1.24-.17-2.49-.31-3.71-.55a3.58,3.58,0,0,1-3-3.52q-.05-3.18,0-6.35a3.71,3.71,0,0,1,3.42-3.63c1.08-.16,2.16-.31,3.25-.44a1,1,0,0,0,.92-.73c.76-1.94,1.57-3.87,2.4-5.79a.9.9,0,0,0-.1-1.05c-.7-.89-1.38-1.81-2.06-2.72a3.69,3.69,0,0,1,.33-5.13q2.05-2.1,4.16-4.16A3.69,3.69,0,0,1,64.09,29c.91.68,1.83,1.36,2.72,2.06a.9.9,0,0,0,1.05.1c1.92-.83,3.84-1.64,5.79-2.4a1,1,0,0,0,.73-.93c.13-1.08.28-2.17.44-3.25a3.72,3.72,0,0,1,2.76-3.3,1.13,1.13,0,0,0,.23-.13h7.65a1.12,1.12,0,0,0,.23.13,3.73,3.73,0,0,1,2.76,3.3c.16,1.08.31,2.16.44,3.25a1,1,0,0,0,.73.92c1.94.76,3.87,1.57,5.79,2.4a.9.9,0,0,0,1.05-.1c.89-.7,1.81-1.38,2.72-2.06a3.69,3.69,0,0,1,5.13.33q2.1,2.05,4.15,4.16a3.69,3.69,0,0,1,.33,5.13c-.68.91-1.36,1.83-2.06,2.72a.9.9,0,0,0-.1,1.05c.83,1.92,1.63,3.84,2.4,5.78a.94.94,0,0,0,.85.72c.77.08,1.54.18,2.3.3a6.08,6.08,0,0,1,3,.89,4.87,4.87,0,0,1,1.47,2.23ZM67.16,77.52c.78.25,1.42.41,2,.65,2,.79,3.89,1.63,5.86,2.4a3.66,3.66,0,0,1,2.48,3c.19,1.21.37,2.43.52,3.65.06.48.26.67.75.66q2.84,0,5.67,0c.49,0,.67-.21.73-.68.14-1.17.33-2.34.5-3.51a3.81,3.81,0,0,1,2.77-3.21c1.85-.68,3.69-1.43,5.47-2.27a3.92,3.92,0,0,1,4.41.39c.9.69,1.83,1.36,2.72,2.06a.64.64,0,0,0,1-.07q2-2,4-4a.67.67,0,0,0,.08-1.05c-.77-1-1.53-2-2.26-3a3.67,3.67,0,0,1-.31-3.82c.86-2,1.71-4,2.5-6a3.66,3.66,0,0,1,3-2.47c1.21-.19,2.43-.37,3.65-.52.49-.06.66-.29.65-.76q0-2.84,0-5.67a.61.61,0,0,0-.63-.71c-1.17-.15-2.34-.34-3.51-.5a3.84,3.84,0,0,1-3.27-2.79c-.67-1.85-1.43-3.68-2.27-5.47a3.89,3.89,0,0,1,.36-4.35c.69-.91,1.36-1.83,2.06-2.72a.67.67,0,0,0,0-1.06q-2-2-4-4a.68.68,0,0,0-1.06-.06c-1,.76-1.95,1.5-2.95,2.22a3.68,3.68,0,0,1-3.87.33q-3-1.3-6-2.5a3.64,3.64,0,0,1-2.45-2.94q-.3-1.82-.52-3.65c-.06-.51-.26-.71-.78-.71q-2.8,0-5.6,0c-.52,0-.71.21-.77.71-.14,1.15-.33,2.3-.49,3.45a3.82,3.82,0,0,1-2.74,3.24c-1.87.69-3.72,1.45-5.53,2.29a3.89,3.89,0,0,1-4.35-.38C64,33,63.1,32.38,62.21,31.67a.67.67,0,0,0-1.06.07q-1.94,2-3.91,3.91a.7.7,0,0,0-.09,1.11q1.14,1.45,2.22,2.95a3.69,3.69,0,0,1,.32,3.87c-.85,2-1.68,3.92-2.45,5.91a3.72,3.72,0,0,1-3.07,2.57c-1.19.18-2.38.37-3.58.51-.52.06-.69.29-.69.8q0,2.8,0,5.6a.64.64,0,0,0,.66.75c1.17.14,2.34.34,3.51.5a3.79,3.79,0,0,1,3.21,2.69c.72,1.91,1.5,3.8,2.34,5.66a3.82,3.82,0,0,1-.35,4.17c-.69.93-1.38,1.87-2.1,2.78a.7.7,0,0,0,.05,1.11q2,1.93,3.91,3.92a.7.7,0,0,0,1.11.06c.91-.72,1.81-1.46,2.79-2.09A16.17,16.17,0,0,1,67.16,77.52Z"/><path class="cls-2" d="M81.57,91.65l-3.13,0a4.19,4.19,0,0,1-4.12-3.85c-.16-1.09-.31-2.17-.44-3.26,0-.29-.09-.39-.41-.52-1.7-.66-3.54-1.43-5.8-2.4-.3-.13-.38-.1-.55,0-.9.71-1.82,1.39-2.73,2.07a4.2,4.2,0,0,1-5.78-.37c-1.39-1.35-2.79-2.76-4.16-4.16a4.2,4.2,0,0,1-.37-5.78l.73-1c.46-.6.91-1.2,1.34-1.81a.67.67,0,0,0,0-.44c-.38-1-.78-1.91-1.17-2.86s-.86-2.08-1.27-3.13c-.08-.2-.14-.23-.48-.28l-1-.13c-.9-.12-1.84-.24-2.75-.42a4.06,4.06,0,0,1-3.36-4c0-2.19,0-4.33,0-6.37A4.19,4.19,0,0,1,50,48.85c1.09-.16,2.17-.31,3.26-.44.29,0,.39-.09.52-.41.67-1.7,1.43-3.55,2.41-5.8.13-.3.1-.38,0-.54-.71-.9-1.39-1.82-2.07-2.73a4.19,4.19,0,0,1,.38-5.77c1.36-1.39,2.76-2.8,4.16-4.16a4.19,4.19,0,0,1,5.77-.37c.92.68,1.84,1.36,2.73,2.07.16.13.24.16.55,0,2.27-1,4.11-1.75,5.8-2.4.32-.12.38-.23.41-.52.13-1.09.28-2.18.44-3.26a4.2,4.2,0,0,1,3.11-3.71l.23-.15h7.93l.22.13a4.24,4.24,0,0,1,3.12,3.73c.16,1.09.31,2.17.44,3.26,0,.29.09.39.41.52,1.71.67,3.55,1.43,5.8,2.41.3.13.38.1.54,0,.9-.71,1.82-1.39,2.73-2.07a4.2,4.2,0,0,1,5.78.37c1.38,1.34,2.78,2.74,4.16,4.17a4.2,4.2,0,0,1,.37,5.77c-.68.92-1.36,1.84-2.07,2.73-.13.16-.16.24,0,.55.9,2.07,1.68,4,2.41,5.8.14.35.22.38.44.41.78.08,1.55.19,2.33.31l.45.06a5.46,5.46,0,0,1,2.75.92,5.38,5.38,0,0,1,1.64,2.45l0,.18,0,7.81a4.47,4.47,0,0,1-3.77,3.31l-1.84.25-1.62.21c-.17,0-.24,0-.36.33-.39,1-.79,1.94-1.19,2.91s-.83,2-1.23,3a.67.67,0,0,0,0,.44c.44.65.92,1.27,1.39,1.89l.63.83a4.2,4.2,0,0,1-.38,5.88q-2,2-4.06,4.06a4.2,4.2,0,0,1-5.88.38l-.49-.36c-.73-.55-1.47-1.1-2.19-1.66-.16-.13-.25-.16-.54,0-2.23,1-4.08,1.73-5.8,2.4a.51.51,0,0,0-.41.52l0,.3c-.14,1.13-.29,2.3-.51,3.44a4.06,4.06,0,0,1-4,3.36ZM67.37,80.51a1.75,1.75,0,0,1,.69.17c2.25,1,4.08,1.73,5.77,2.39a1.49,1.49,0,0,1,1,1.33c.13,1.08.28,2.16.44,3.23a3.19,3.19,0,0,0,3.15,3c2,0,4.16,0,6.34,0a3.08,3.08,0,0,0,3-2.55c.21-1.11.36-2.26.5-3.38l0-.3a1.48,1.48,0,0,1,1-1.33c1.72-.67,3.55-1.43,5.77-2.39a1.4,1.4,0,0,1,1.56.16c.71.56,1.44,1.11,2.17,1.65l.49.37a3.21,3.21,0,0,0,4.58-.29q2-2,4.05-4.05a3.21,3.21,0,0,0,.29-4.58l-.63-.82c-.49-.64-1-1.27-1.42-1.93a1.62,1.62,0,0,1-.13-1.37c.4-1,.82-2,1.24-3s.8-1.93,1.18-2.9a1.35,1.35,0,0,1,1.17-1l1.6-.21,1.77-.24a3.46,3.46,0,0,0,3-2.57V52.42a4.31,4.31,0,0,0-1.28-1.93,4.63,4.63,0,0,0-2.28-.73l-.46-.07c-.76-.12-1.51-.22-2.27-.3a1.44,1.44,0,0,1-1.27-1c-.72-1.82-1.5-3.71-2.4-5.77a1.4,1.4,0,0,1,.16-1.56c.7-.89,1.38-1.8,2.05-2.71a3.19,3.19,0,0,0-.29-4.48c-1.38-1.42-2.78-2.81-4.15-4.15a3.19,3.19,0,0,0-4.48-.28c-.91.68-1.82,1.35-2.71,2.05a1.4,1.4,0,0,1-1.56.16c-2.24-1-4.08-1.73-5.77-2.39a1.49,1.49,0,0,1-1-1.33c-.13-1.08-.28-2.16-.44-3.23a3.24,3.24,0,0,0-2.41-2.89.91.91,0,0,1-.23-.11H77.94a.93.93,0,0,1-.23.11,3.24,3.24,0,0,0-2.41,2.89c-.16,1.08-.31,2.15-.44,3.23a1.49,1.49,0,0,1-1,1.33c-1.68.65-3.51,1.41-5.77,2.39a1.4,1.4,0,0,1-1.56-.16c-.89-.7-1.8-1.38-2.71-2.05a3.18,3.18,0,0,0-4.48.29c-1.4,1.36-2.79,2.76-4.15,4.15a3.19,3.19,0,0,0-.29,4.48c.68.91,1.35,1.82,2.05,2.71a1.4,1.4,0,0,1,.16,1.56c-1,2.24-1.73,4.08-2.39,5.77a1.49,1.49,0,0,1-1.33,1c-1.08.12-2.16.28-3.23.43a3.23,3.23,0,0,0-3,3.15c0,2,0,4.16,0,6.34a3.08,3.08,0,0,0,2.55,3c.89.17,1.81.29,2.7.41l1,.13a1.39,1.39,0,0,1,1.27.91c.41,1,.84,2.07,1.27,3.11s.79,1.92,1.18,2.88A1.62,1.62,0,0,1,57,71.17c-.44.63-.9,1.25-1.37,1.86l-.72,1a3.19,3.19,0,0,0,.29,4.48c1.37,1.4,2.76,2.8,4.15,4.15a3.19,3.19,0,0,0,4.48.28c.91-.68,1.82-1.35,2.71-2.05A1.37,1.37,0,0,1,67.37,80.51Zm17.11,7.86h0q-2.83,0-5.66,0a1.14,1.14,0,0,1-1.25-1.1c-.14-1.14-.31-2.33-.52-3.63A3.14,3.14,0,0,0,74.86,81c-1.11-.43-2.21-.89-3.31-1.35l-2.55-1c-.39-.16-.8-.28-1.25-.41l-.56-.17-.48.2a8.83,8.83,0,0,0-1.41.68c-.83.54-1.63,1.17-2.4,1.79l-.34.27a1.19,1.19,0,0,1-1.78-.1c-1.28-1.32-2.6-2.63-3.9-3.91a1.19,1.19,0,0,1-.09-1.78c.64-.81,1.26-1.64,1.88-2.47l.22-.29a3.33,3.33,0,0,0,.29-3.67c-.81-1.78-1.6-3.7-2.35-5.69A3.31,3.31,0,0,0,54,60.72l-1.35-.2c-.72-.11-1.44-.21-2.16-.3A1.12,1.12,0,0,1,49.4,59q0-2.8,0-5.59a1.16,1.16,0,0,1,1.13-1.3c1.06-.13,2.12-.29,3.17-.45l.39-.06a3.22,3.22,0,0,0,2.68-2.26c.71-1.83,1.51-3.77,2.46-5.93A3.18,3.18,0,0,0,59,40c-.68-.95-1.42-1.93-2.2-2.93a1.19,1.19,0,0,1,.13-1.78q2-1.93,3.91-3.91a1.16,1.16,0,0,1,1.72-.11c.58.46,1.18.91,1.78,1.36l.93.7a3.41,3.41,0,0,0,3.83.32c1.71-.8,3.53-1.55,5.57-2.31a3.33,3.33,0,0,0,2.42-2.84c.06-.44.13-.89.19-1.33.11-.7.21-1.4.29-2.11a1.18,1.18,0,0,1,1.28-1.16q2.8,0,5.59,0a1.16,1.16,0,0,1,1.28,1.15c.14,1.21.32,2.43.52,3.63a3.16,3.16,0,0,0,2.14,2.56c2,.79,4,1.64,6.05,2.51a3.17,3.17,0,0,0,3.38-.28c.93-.67,1.89-1.39,2.93-2.21a1.16,1.16,0,0,1,1.72.1q2,2,4,4a1.16,1.16,0,0,1,.09,1.72c-.45.57-.88,1.15-1.31,1.72l-.75,1a3.41,3.41,0,0,0-.31,3.83c.84,1.8,1.61,3.65,2.28,5.51a3.32,3.32,0,0,0,2.87,2.47l1.44.21,2.07.29a1.1,1.1,0,0,1,1.06,1.21q0,2.83,0,5.66a1.12,1.12,0,0,1-1.09,1.26c-1.21.15-2.42.33-3.63.52a3.15,3.15,0,0,0-2.61,2.16c-.73,1.85-1.55,3.83-2.51,6a3.18,3.18,0,0,0,.26,3.33c.63.89,1.34,1.83,2.24,3a1.16,1.16,0,0,1-.12,1.72q-2,2-4,4a1.14,1.14,0,0,1-1.67.11c-.52-.41-1.05-.81-1.59-1.21L98,79a3.44,3.44,0,0,0-3.89-.33c-1.71.8-3.51,1.55-5.51,2.28a3.3,3.3,0,0,0-2.44,2.81L86,84.91c-.12.78-.23,1.56-.33,2.34A1.12,1.12,0,0,1,84.48,88.37Zm-5.88-1a.55.55,0,0,0,.19,0q2.84,0,5.68,0a.58.58,0,0,0,.18,0,.64.64,0,0,0,.05-.22c.1-.79.21-1.58.33-2.36l.17-1.16A4.3,4.3,0,0,1,88.29,80c2-.72,3.75-1.46,5.43-2.25a4.4,4.4,0,0,1,4.92.44l1.12.85c.54.4,1.08.81,1.61,1.22a.44.44,0,0,0,.18.1.47.47,0,0,0,.16-.13q2-2,4-4c.19-.19.19-.2,0-.39-.91-1.16-1.63-2.12-2.27-3a4.16,4.16,0,0,1-.36-4.3c1-2.21,1.77-4.18,2.5-6A4.16,4.16,0,0,1,109,59.75c1.22-.19,2.44-.37,3.67-.52a.42.42,0,0,0,.19-.05.53.53,0,0,0,0-.21q0-2.84,0-5.68a.43.43,0,0,0,0-.17h0a.65.65,0,0,0-.17,0l-2.09-.29-1.43-.21a4.33,4.33,0,0,1-3.67-3.12c-.66-1.83-1.42-3.66-2.25-5.43a4.37,4.37,0,0,1,.42-4.86l.74-1c.44-.58.88-1.17,1.33-1.74.17-.22.17-.23,0-.39q-2-2-4-4c-.17-.18-.18-.18-.39,0-1.06.83-2,1.56-3,2.23a4.19,4.19,0,0,1-4.36.38c-2-.87-4-1.71-6-2.5a4.14,4.14,0,0,1-2.76-3.32c-.2-1.21-.38-2.45-.52-3.67a.49.49,0,0,0-.06-.24h0a1,1,0,0,0-.22,0q-2.81,0-5.61,0a.41.41,0,0,0-.21,0h0a.55.55,0,0,0-.06.25c-.08.71-.19,1.43-.3,2.14-.07.44-.13.88-.19,1.32A4.3,4.3,0,0,1,75,32.29c-2,.75-3.81,1.49-5.49,2.27a4.38,4.38,0,0,1-4.86-.43l-.93-.7c-.6-.45-1.21-.91-1.8-1.38-.2-.16-.21-.16-.39,0q-1.94,2-3.92,3.92c-.22.22-.21.23,0,.44.8,1,1.55,2,2.23,3a4.19,4.19,0,0,1,.37,4.36c-.94,2.14-1.73,4.07-2.44,5.89a4.24,4.24,0,0,1-3.46,2.88l-.39.06c-1.07.16-2.14.33-3.21.45a.48.48,0,0,0-.22.06h0a.52.52,0,0,0,0,.24q0,2.81,0,5.61a.45.45,0,0,0,0,.2h0a.52.52,0,0,0,.2,0c.73.09,1.45.2,2.18.3l1.34.19a4.27,4.27,0,0,1,3.6,3c.74,2,1.53,3.86,2.33,5.63a4.3,4.3,0,0,1-.4,4.68l-.22.29c-.62.84-1.25,1.68-1.89,2.49-.19.25-.18.26,0,.44,1.31,1.28,2.63,2.6,3.92,3.92.19.19.21.2.44,0l.34-.27c.79-.63,1.61-1.28,2.49-1.85a9.52,9.52,0,0,1,1.57-.76l.63-.27.18-.08.18.06.72.22c.48.14.92.27,1.34.44l2.56,1.05c1.1.46,2.19.91,3.29,1.34A4.16,4.16,0,0,1,78,83.48c.21,1.31.38,2.51.52,3.67a.47.47,0,0,0,.05.2Z"/><path class="cls-2" d="M67.16,77.52a16.17,16.17,0,0,0-2.13,1c-1,.63-1.88,1.37-2.79,2.09a.7.7,0,0,1-1.11-.06q-1.93-2-3.91-3.92a.7.7,0,0,1-.05-1.11c.72-.91,1.41-1.85,2.1-2.78a3.82,3.82,0,0,0,.35-4.17c-.84-1.86-1.62-3.75-2.34-5.66a3.79,3.79,0,0,0-3.21-2.69c-1.17-.16-2.34-.35-3.51-.5A.64.64,0,0,1,49.9,59q0-2.8,0-5.6c0-.51.17-.73.69-.8,1.2-.14,2.39-.33,3.58-.51a3.72,3.72,0,0,0,3.07-2.57c.77-2,1.59-4,2.45-5.91a3.69,3.69,0,0,0-.32-3.87q-1.07-1.5-2.22-2.95a.7.7,0,0,1,.09-1.11q2-1.93,3.91-3.91a.67.67,0,0,1,1.06-.07c.89.71,1.81,1.38,2.72,2.07a3.89,3.89,0,0,0,4.35.38c1.81-.84,3.66-1.6,5.53-2.29a3.82,3.82,0,0,0,2.74-3.24c.16-1.15.35-2.29.49-3.45.06-.5.25-.72.77-.71q2.8,0,5.6,0c.52,0,.72.2.78.71q.22,1.83.52,3.65a3.64,3.64,0,0,0,2.45,2.94q3,1.2,6,2.5a3.68,3.68,0,0,0,3.87-.33c1-.72,2-1.46,2.95-2.22a.68.68,0,0,1,1.06.06q2,2,4,4a.67.67,0,0,1,0,1.06c-.7.89-1.37,1.81-2.06,2.72a3.89,3.89,0,0,0-.36,4.35c.84,1.79,1.59,3.62,2.27,5.47a3.84,3.84,0,0,0,3.27,2.79c1.17.16,2.34.35,3.51.5a.61.61,0,0,1,.63.71q0,2.84,0,5.67c0,.47-.16.7-.65.76-1.22.15-2.44.33-3.65.52a3.66,3.66,0,0,0-3,2.47c-.8,2-1.64,4-2.5,6a3.67,3.67,0,0,0,.31,3.82c.72,1,1.48,2,2.26,3a.67.67,0,0,1-.08,1.05q-2,2-4,4a.64.64,0,0,1-1,.07c-.89-.7-1.82-1.37-2.72-2.06a3.92,3.92,0,0,0-4.41-.39c-1.78.84-3.62,1.59-5.47,2.27a3.81,3.81,0,0,0-2.77,3.21c-.17,1.17-.36,2.34-.5,3.51-.06.47-.24.68-.73.68q-2.84,0-5.67,0c-.48,0-.69-.18-.75-.66-.15-1.22-.33-2.44-.52-3.65a3.66,3.66,0,0,0-2.48-3c-2-.77-3.9-1.61-5.86-2.4C68.58,77.93,67.95,77.77,67.16,77.52ZM81.62,41A15.18,15.18,0,1,0,96.8,56.13,15.2,15.2,0,0,0,81.62,41Z"/><path class="cls-2" d="M78.78,88.37a1.12,1.12,0,0,1-1.23-1.1c-.14-1.14-.31-2.33-.52-3.63A3.14,3.14,0,0,0,74.86,81c-1.11-.43-2.21-.89-3.31-1.35l-2.55-1c-.39-.16-.8-.28-1.25-.41l-.56-.17-.48.2a8.83,8.83,0,0,0-1.41.68c-.83.54-1.63,1.17-2.4,1.79l-.34.27a1.19,1.19,0,0,1-1.78-.1c-1.28-1.32-2.6-2.63-3.9-3.91a1.19,1.19,0,0,1-.09-1.78c.64-.81,1.26-1.64,1.88-2.47l.22-.29a3.33,3.33,0,0,0,.29-3.67c-.81-1.78-1.6-3.7-2.35-5.69A3.31,3.31,0,0,0,54,60.72l-1.35-.2c-.72-.11-1.44-.21-2.16-.3A1.12,1.12,0,0,1,49.4,59q0-2.8,0-5.59a1.16,1.16,0,0,1,1.13-1.3c1.06-.13,2.12-.29,3.17-.45l.39-.06a3.22,3.22,0,0,0,2.68-2.26c.71-1.83,1.51-3.77,2.46-5.93A3.18,3.18,0,0,0,59,40c-.68-.95-1.42-1.93-2.2-2.93a1.19,1.19,0,0,1,.13-1.78q2-1.93,3.91-3.91a1.16,1.16,0,0,1,1.72-.11c.58.46,1.18.91,1.78,1.36l.93.7a3.41,3.41,0,0,0,3.83.32c1.71-.8,3.53-1.55,5.57-2.31a3.33,3.33,0,0,0,2.42-2.84c.06-.44.13-.89.19-1.33.11-.7.21-1.4.29-2.11a1.14,1.14,0,0,1,1.28-1.16q2.8,0,5.59,0a1.16,1.16,0,0,1,1.28,1.15c.14,1.21.32,2.43.52,3.63a3.16,3.16,0,0,0,2.14,2.56c2,.79,4,1.64,6.05,2.51a3.17,3.17,0,0,0,3.38-.28c.93-.67,1.89-1.39,2.93-2.21a1.16,1.16,0,0,1,1.72.1q2,2,4,4a1.16,1.16,0,0,1,.09,1.72c-.45.57-.88,1.15-1.31,1.72l-.75,1a3.41,3.41,0,0,0-.31,3.83c.84,1.8,1.61,3.65,2.28,5.51a3.32,3.32,0,0,0,2.87,2.47l1.44.21,2.07.29a1.1,1.1,0,0,1,1.06,1.21q0,2.83,0,5.66a1.12,1.12,0,0,1-1.09,1.26c-1.21.15-2.42.33-3.63.52a3.15,3.15,0,0,0-2.61,2.16c-.73,1.85-1.55,3.83-2.51,6a3.18,3.18,0,0,0,.26,3.33c.63.89,1.34,1.83,2.24,3a1.16,1.16,0,0,1-.12,1.72q-2,2-4,4a1.14,1.14,0,0,1-1.67.11c-.52-.41-1.05-.81-1.59-1.21L98,79a3.44,3.44,0,0,0-3.89-.33c-1.71.8-3.51,1.55-5.51,2.28a3.3,3.3,0,0,0-2.44,2.81L86,84.91c-.12.78-.23,1.56-.33,2.34a1.14,1.14,0,0,1-1.23,1.12q-2.83,0-5.66,0Zm-.19-1a.55.55,0,0,0,.19,0q2.84,0,5.68,0c.14,0,.18,0,.18,0a.64.64,0,0,0,.05-.22c.1-.79.21-1.58.33-2.36l.17-1.16A4.3,4.3,0,0,1,88.29,80c2-.72,3.75-1.46,5.43-2.25a4.4,4.4,0,0,1,4.92.44l1.12.85c.54.4,1.08.81,1.61,1.22a.44.44,0,0,0,.18.1.47.47,0,0,0,.16-.13q2-2,4-4c.19-.19.19-.2,0-.39-.91-1.16-1.63-2.12-2.27-3a4.16,4.16,0,0,1-.36-4.3c1-2.21,1.77-4.18,2.5-6A4.16,4.16,0,0,1,109,59.75c1.22-.19,2.44-.37,3.67-.52a.42.42,0,0,0,.19-.05.53.53,0,0,0,0-.21q0-2.84,0-5.68a.43.43,0,0,0,0-.17h0a.65.65,0,0,0-.17,0l-2.09-.29-1.43-.21a4.33,4.33,0,0,1-3.67-3.12c-.66-1.83-1.42-3.66-2.25-5.43a4.37,4.37,0,0,1,.42-4.86l.74-1c.44-.58.88-1.17,1.33-1.74.17-.22.17-.23,0-.39q-2-2-4-4c-.17-.18-.18-.18-.39,0-1.06.83-2,1.56-3,2.23a4.19,4.19,0,0,1-4.36.38c-2-.87-4-1.71-6-2.5a4.14,4.14,0,0,1-2.76-3.32c-.2-1.21-.38-2.45-.52-3.67a.49.49,0,0,0-.06-.24h0a1,1,0,0,0-.22,0q-2.81,0-5.61,0a.5.5,0,0,0-.21,0h0a.56.56,0,0,0-.06.25c-.08.71-.19,1.43-.3,2.14-.07.44-.13.88-.19,1.32A4.3,4.3,0,0,1,75,32.29c-2,.75-3.81,1.49-5.49,2.27a4.38,4.38,0,0,1-4.86-.43l-.93-.7c-.6-.45-1.21-.91-1.8-1.38-.2-.16-.21-.16-.39,0q-1.94,2-3.92,3.92c-.22.22-.21.23,0,.44.8,1,1.55,2,2.23,3a4.19,4.19,0,0,1,.37,4.36c-.94,2.14-1.73,4.07-2.44,5.89a4.24,4.24,0,0,1-3.46,2.88l-.39.06c-1.07.16-2.14.33-3.21.45a.48.48,0,0,0-.22.06h0a.52.52,0,0,0,0,.24q0,2.81,0,5.61a.45.45,0,0,0,0,.2h0a.52.52,0,0,0,.2,0c.73.09,1.45.2,2.18.3l1.34.19a4.27,4.27,0,0,1,3.6,3c.74,2,1.53,3.86,2.33,5.63a4.3,4.3,0,0,1-.4,4.68l-.22.29c-.62.84-1.25,1.68-1.89,2.49-.19.25-.18.26,0,.44,1.31,1.28,2.63,2.6,3.92,3.92.19.19.21.2.44,0l.34-.27c.79-.63,1.61-1.28,2.49-1.85a9.52,9.52,0,0,1,1.57-.76l.63-.27.18-.08.18.06.72.22c.48.14.92.27,1.34.44l2.56,1.05c1.1.46,2.19.91,3.29,1.34A4.16,4.16,0,0,1,78,83.48c.21,1.31.38,2.51.52,3.67a.47.47,0,0,0,.05.2Zm3-15.52h0a15.68,15.68,0,0,1,0-31.36h0a15.68,15.68,0,0,1,0,31.36Zm0-30.36a14.68,14.68,0,0,0,0,29.36h0a14.68,14.68,0,0,0,0-29.36Z"/><path class="cls-1" d="M81.62,41A15.18,15.18,0,1,1,66.44,56.14,15.2,15.2,0,0,1,81.62,41ZM93.53,56.13A11.91,11.91,0,1,0,81.66,68.05,11.9,11.9,0,0,0,93.53,56.13Z"/><path class="cls-2" d="M46.13,45.41a18.89,18.89,0,0,1-1.37,5.4,20.56,20.56,0,0,1-1.66,3.14,14.47,14.47,0,0,1-3.53,3.66,17.66,17.66,0,0,1-6,3,18,18,0,0,1-4.41.57H16.53c0,.15,0,.27,0,.4q0,4.71,0,9.43,0,3.95,0,7.9a.52.52,0,0,1-.24.49c-.42.29-.82.6-1.22.91a.66.66,0,0,1-.43.15H2.38A.62.62,0,0,1,2,80.32c-.43-.34-.87-.66-1.31-1A.32.32,0,0,1,.5,79a1.79,1.79,0,0,0,0-.21q0-15.87,0-31.75c0-.09,0-.18,0-.26a.26.26,0,0,1,.13-.24L2,45.5a.65.65,0,0,1,.27-.09,1.59,1.59,0,0,1,.26,0H46.13Zm-.47.4H2.53a.54.54,0,0,0-.4.14l-.8.6c-.46.35-.41.23-.41.82q0,15.58,0,31.16c0,.08,0,.16,0,.23a.43.43,0,0,0,.21.42c.26.19.53.37.77.58a1.18,1.18,0,0,0,.83.28H14.27a1.72,1.72,0,0,0,.29,0,.74.74,0,0,0,.3-.1c.37-.27.74-.55,1.11-.82a.3.3,0,0,0,.13-.28c0-.1,0-.2,0-.29q0-8.63,0-17.27c0-.46-.1-.51.52-.51H28.37a21.73,21.73,0,0,0,3.25-.19,15.62,15.62,0,0,0,2.93-.7,18.6,18.6,0,0,0,4.55-2.42,13.79,13.79,0,0,0,3.51-3.51,18,18,0,0,0,2.92-7.2C45.57,46.44,45.61,46.15,45.67,45.8Z"/><path class="cls-2" d="M14.63,80.95H2.38a1.12,1.12,0,0,1-.71-.23c-.43-.33-.87-.66-1.3-1A.81.81,0,0,1,0,79V47.06c0-.14,0-.18,0-.23a.75.75,0,0,1,.33-.69l.55-.41.86-.64a1.09,1.09,0,0,1,.48-.18,1.38,1.38,0,0,1,.29,0H46.7l-.07.56A19.08,19.08,0,0,1,45.22,51a21.27,21.27,0,0,1-1.7,3.21A15,15,0,0,1,39.87,58a17.92,17.92,0,0,1-6.21,3.08,18.59,18.59,0,0,1-4.54.58H17v11q0,3.13,0,6.25a1,1,0,0,1-.45.9c-.39.27-.76.56-1.13.84A1.24,1.24,0,0,1,14.63,80.95ZM1.42,47.1V78.51a2.33,2.33,0,0,1,0,.28,6,6,0,0,1,.81.58.64.64,0,0,0,.5.16H14.48l.12,0,.64-.48.36-.27s0-.09,0-.13V61.11a.79.79,0,0,1,.18-.63,1.12,1.12,0,0,1,.84-.22H28.37a21.59,21.59,0,0,0,3.17-.19,15,15,0,0,0,2.84-.67A18,18,0,0,0,38.81,57a13.17,13.17,0,0,0,3.38-3.39,17.57,17.57,0,0,0,2.84-7l.05-.34H2.48L2,46.67l-.52.39ZM15.68,78.7h0Z"/><path class="cls-2" d="M25.82,41.53H2.53a1,1,0,0,1-.64-.21c-.39-.31-.79-.61-1.2-.9a.38.38,0,0,1-.19-.36c0-.25,0-.51,0-.76q0-5.8,0-11.6a.54.54,0,0,1,.25-.51c.43-.3.84-.61,1.25-.93a.51.51,0,0,1,.38-.13H49.13a1.06,1.06,0,0,1,.72.24c.36.29.73.57,1.1.83a.51.51,0,0,1,.25.48c0,1.82,0,3.64,0,5.46,0,2.28,0,4.56,0,6.84a.51.51,0,0,1-.24.49c-.41.28-.81.59-1.2.9a.77.77,0,0,1-.51.17H25.82Zm0-.41H48.93a1.83,1.83,0,0,0,.29,0,.72.72,0,0,0,.3-.09c.37-.27.74-.55,1.11-.82a.33.33,0,0,0,.15-.3c0-.09,0-.18,0-.26q0-5.8,0-11.6a1,1,0,0,1,0-.15.49.49,0,0,0-.26-.51,8.3,8.3,0,0,1-.75-.56,1.18,1.18,0,0,0-.83-.28H2.54a.58.58,0,0,0-.43.15c-.3.23-.6.47-.92.68a.6.6,0,0,0-.28.57q0,5.89,0,11.78a.82.82,0,0,1,0,.09.45.45,0,0,0,.22.45c.29.2.57.41.85.63a1.05,1.05,0,0,0,.72.24Z"/><path class="cls-2" d="M2.53,42a1.45,1.45,0,0,1-1-.32c-.38-.31-.78-.6-1.18-.88A.88.88,0,0,1,0,40c0-.17,0-.33,0-.5V37.08q0-4.69,0-9.39a1,1,0,0,1,.47-.92c.36-.25.72-.52,1.07-.79l.16-.12a1,1,0,0,1,.73-.23H49.13a1.56,1.56,0,0,1,1,.35c.35.28.71.55,1.07.8a1,1,0,0,1,.46.9c0,1.39,0,2.78,0,4.17v2.81q0,2.66,0,5.32a1,1,0,0,1-.45.9c-.4.28-.79.58-1.18.88a1.28,1.28,0,0,1-.81.28H2.53Zm16-1.41H49.14l.11,0,.65-.49.37-.28s0-.08,0-.12V28a1.17,1.17,0,0,1,0-.22,7.81,7.81,0,0,1-.84-.62.68.68,0,0,0-.5-.16H2.49l-.16.11c-.28.22-.56.44-.86.64,0,0-.06,0-.06.15q0,4.77,0,9.53v2.38a9,9,0,0,1,.88.65.56.56,0,0,0,.4.13H18.5Z"/><path class="cls-3" d="M45.67,45.8c-.05.35-.09.64-.14.92a18,18,0,0,1-2.92,7.2,13.79,13.79,0,0,1-3.51,3.51,18.6,18.6,0,0,1-4.55,2.42,15.62,15.62,0,0,1-2.93.7,21.73,21.73,0,0,1-3.25.19H16.62c-.62,0-.52,0-.52.51q0,8.63,0,17.27c0,.1,0,.2,0,.29a.3.3,0,0,1-.13.28c-.37.27-.73.56-1.11.82a.74.74,0,0,1-.3.1,1.72,1.72,0,0,1-.29,0H2.73a1.18,1.18,0,0,1-.83-.28c-.24-.21-.51-.4-.77-.58a.43.43,0,0,1-.21-.42c0-.08,0-.16,0-.23q0-15.58,0-31.16c0-.59,0-.46.41-.82l.8-.6a.54.54,0,0,1,.4-.14H45.67Zm-3,2.26-.43,0H3.62c-.48,0-.48,0-.48.48q0,14.4,0,28.81c0,.47,0,.47.47.47h9.75c.54,0,.5,0,.5-.49q0-9.16,0-18.32c0-.49,0-.45.47-.45h14a20.81,20.81,0,0,0,3.36-.24,11.71,11.71,0,0,0,4.22-1.46,19.16,19.16,0,0,0,2.54-1.8,12.11,12.11,0,0,0,1.75-1.77,13.09,13.09,0,0,0,2.37-4.94A2.75,2.75,0,0,0,42.64,48.07Z"/><path class="cls-3" d="M25.82,41.12H2.71A1.05,1.05,0,0,1,2,40.88c-.27-.22-.56-.43-.85-.63a.45.45,0,0,1-.22-.45.82.82,0,0,0,0-.09q0-5.89,0-11.78a.6.6,0,0,1,.28-.57c.32-.21.62-.45.92-.68a.58.58,0,0,1,.43-.15h46.4a1.18,1.18,0,0,1,.83.28,8.3,8.3,0,0,0,.75.56.49.49,0,0,1,.26.51,1,1,0,0,0,0,.15q0,5.8,0,11.6c0,.09,0,.18,0,.26a.33.33,0,0,1-.15.3c-.37.27-.73.56-1.11.82a.72.72,0,0,1-.3.09,1.83,1.83,0,0,1-.29,0Zm0-2.25H48.14c.42,0,.42,0,.42-.43,0,0,0,0,0-.06q0-4.57,0-9.13c0-.47,0-.47-.46-.47H3.61c-.47,0-.47,0-.47.47q0,4.58,0,9.16s0,.1,0,.15c0,.28,0,.3.3.31H25.85Z"/><path class="cls-2" d="M42.64,48.07a2.75,2.75,0,0,1,0,.28,13.09,13.09,0,0,1-2.37,4.94,12.11,12.11,0,0,1-1.75,1.77,19.16,19.16,0,0,1-2.54,1.8,11.71,11.71,0,0,1-4.22,1.46,20.81,20.81,0,0,1-3.36.24h-14c-.51,0-.47,0-.47.45q0,9.16,0,18.32c0,.51,0,.49-.5.49H3.61c-.47,0-.47,0-.47-.47q0-14.4,0-28.81c0-.48,0-.48.48-.48H42.21ZM13.46,58.12H28.23a23,23,0,0,0,2.7-.12,13.58,13.58,0,0,0,3.36-.8,14.41,14.41,0,0,0,3.25-1.92,12,12,0,0,0,4.52-6.47c0-.11.05-.21.08-.33H3.57V77.35c.31.06,9.64.05,9.89,0Z"/><path class="cls-2" d="M25.85,38.87H3.44c-.27,0-.29,0-.3-.31,0,0,0-.1,0-.15q0-4.58,0-9.16c0-.47,0-.47.47-.47H48.1c.46,0,.46,0,.46.47q0,4.57,0,9.13s0,0,0,.06c0,.42,0,.43-.42.43Zm22.28-9.65-.11,0H3.77l-.14,0h0l0,0v9.19H48.13Z"/><path class="cls-2" d="M13.46,58.12V77.34c-.24.07-9.58.08-9.89,0V48.49H42.14c0,.12-.05.22-.08.33a12,12,0,0,1-4.52,6.47,14.41,14.41,0,0,1-3.25,1.92,13.58,13.58,0,0,1-3.36.8,23,23,0,0,1-2.7.12H13.46Z"/><path class="cls-2" d="M48.13,29.22v9.22H3.57V29.25l0,0h0l.14,0H48Z"/><path class="cls-2" d="M132.3,80.44H119.68a.69.69,0,0,1-.52-.2c-.55-.53-1.12-1-1.68-1.56l-.23-.21.11-.3q5.05-12.33,10.11-24.65a.73.73,0,0,0,0-.61q-5.06-12.25-10.1-24.5l-.11-.28a1.66,1.66,0,0,1,.13-.15l1.85-1.71a.49.49,0,0,1,.37-.14h12.7l8.24,21.11h.53l2.77-7.14h15.56c0,.13-.08.23-.13.34l-3.68,9c-.48,1.17-1,2.34-1.44,3.5a.76.76,0,0,0,0,.64q4.78,11.63,9.54,23.27l.69,1.69-.23.18-1.72,1.6a.59.59,0,0,1-.44.18H149.33l-.16-.39-7.93-19.42c-.18-.44-.18-.44-.7-.36Zm26.49-39.92-.41,0H144.56c-.43,0-.41,0-.57.38L142,46c-.18.47-.37.95-.55,1.42a.32.32,0,0,1-.35.25h-.59a.3.3,0,0,1-.33-.23c-.07-.2-.15-.4-.23-.6L135.34,35l-3.2-8.2c-.11-.29-.12-.29-.42-.29H119.82a.63.63,0,0,0-.47.18c-.45.43-.92.85-1.38,1.28-.24.22-.24.22-.11.52l1.63,4L124,43.35q2,4.73,3.91,9.47a.79.79,0,0,1,0,.78v0l-3.27,8-4.71,11.52-2,4.94c-.12.29-.12.29.11.5.45.42.91.83,1.36,1.26a.7.7,0,0,0,.53.2h11.86c.32,0,.32,0,.45-.31l2-4.81,5.09-12.47.92-2.25c.14-.35.14-.35.54-.36H141a.44.44,0,0,1,.5.34c.72,1.79,1.45,3.57,2.18,5.35l5.75,14.07c.19.47.13.43.63.43h11.83a.48.48,0,0,0,.37-.15l1.44-1.34.18-.2-.14-.36-.67-1.63-3.74-9.13q-2.82-6.87-5.64-13.74a.67.67,0,0,1,0-.56c.52-1.25,1-2.51,1.55-3.77l3.19-7.76Z"/><path class="cls-2" d="M162,80.94H149l-.29-.7-7.89-19.32-8.18,20h-13a1.18,1.18,0,0,1-.87-.34l-1.24-1.15-.91-.83.24-.64.65-1.6q4.72-11.53,9.45-23.06a.24.24,0,0,0,0-.23l-9.36-22.7-.93-2.27.15-.32a1.7,1.7,0,0,1,.17-.2l.67-.62,1.19-1.1a1,1,0,0,1,.71-.28l13,0,.19.3,8,20.6,2.69-6.95h16.62l-.29.78-.09.25-4,9.73c-.37.91-.75,1.83-1.13,2.73a.26.26,0,0,0,0,.25q4.49,10.92,9,21.85L165,78.64l-.37.3-.12.1-.2.18-1.52,1.41A1.09,1.09,0,0,1,162,80.94Zm-43.67-2.72.46.42.88.82a.21.21,0,0,0,.18.06H131.7l8-19.53a.86.86,0,0,1,1-.67H141a.93.93,0,0,1,1,.65c.54,1.35,1.09,2.69,1.64,4l6.33,15.49v0h12l1.39-1.3-.69-1.68-3.74-9.13q-2.81-6.87-5.64-13.74a1.16,1.16,0,0,1,0-.94c.39-.94.78-1.89,1.17-2.83l3.65-8.9H144.47l0,.06-2.18,5.63-.35.91a.84.84,0,0,1-.84.57h-.55a.8.8,0,0,1-.82-.56c-.06-.16-.12-.32-.18-.48L131.68,27H119.82c-.08,0-.09,0-.12,0l-1,.89-.41.37,6.91,16.75q1.55,3.77,3.11,7.53a1.29,1.29,0,0,1,0,1.22Z"/><path class="cls-2" d="M165.2,26.12c0,.13-.08.22-.12.31l-5.43,12.84c0,.05-.05.11-.07.16a.21.21,0,0,1-.24.17H145.92c-.48,0-1,0-1.44-.06-.3,0-.33-.07-.28-.37a19.59,19.59,0,0,1,.85-3.5,15.14,15.14,0,0,1,2.33-4.32,13,13,0,0,1,5-3.8,15.94,15.94,0,0,1,4.75-1.25,27.54,27.54,0,0,1,3.08-.16h5Zm-.64.44-.23,0c-2,0-4,0-6,.06a16.69,16.69,0,0,0-2.24.25,14.53,14.53,0,0,0-4.7,1.67,11.75,11.75,0,0,0-4.11,3.7,16.34,16.34,0,0,0-2.56,6.63,1.83,1.83,0,0,0,0,.26c.37,0,.72.06,1.07.06H158.9a.44.44,0,0,0,.48-.31q2.54-6,5.1-12.05C164.51,26.74,164.53,26.66,164.56,26.56Z"/><path class="cls-2" d="M159.37,40.09H145.92c-.49,0-1,0-1.47-.06a.82.82,0,0,1-.62-.27.82.82,0,0,1-.11-.69,20.22,20.22,0,0,1,.87-3.59A15.56,15.56,0,0,1,147,31a13.39,13.39,0,0,1,5.22-3.94,16.52,16.52,0,0,1,4.89-1.29,28.09,28.09,0,0,1,3.13-.16h5.68l-.3.79-.08.21-5.43,12.83-.5,0h0l.45.16A.7.7,0,0,1,159.37,40.09Zm-14.16-1.44.53,0H158.9l3.8-9L163.83,27h-1.15c-1.46,0-2.92,0-4.38.05a16.21,16.21,0,0,0-2.17.25A13.93,13.93,0,0,0,151.58,29a11.31,11.31,0,0,0-3.93,3.54A15.61,15.61,0,0,0,145.22,38.65Z"/><path class="cls-3" d="M158.79,40.52l-.35.87-3.19,7.76c-.52,1.26-1,2.52-1.55,3.77a.67.67,0,0,0,0,.56q2.82,6.87,5.64,13.74l3.74,9.13.67,1.63.14.36-.18.2-1.44,1.34a.48.48,0,0,1-.37.15H150.05c-.5,0-.44,0-.63-.43l-5.75-14.07c-.73-1.78-1.46-3.57-2.18-5.35a.44.44,0,0,0-.5-.34h-.32c-.39,0-.39,0-.54.36l-.92,2.25L134.12,74.9l-2,4.81c-.12.31-.13.31-.45.31H119.85a.7.7,0,0,1-.53-.2c-.45-.43-.9-.84-1.36-1.26-.23-.21-.23-.22-.11-.5l2-4.94,4.71-11.52,3.27-8v0a.79.79,0,0,0,0-.78q-2-4.73-3.91-9.47l-4.48-10.88-1.63-4c-.12-.3-.12-.3.11-.52.46-.43.93-.84,1.38-1.28a.63.63,0,0,1,.47-.18h11.89c.31,0,.31,0,.42.29l3.2,8.2L140,46.84c.08.2.16.4.23.6a.3.3,0,0,0,.33.23h.59a.32.32,0,0,0,.35-.25c.18-.48.37-.95.55-1.42l2-5.12c.16-.42.14-.38.57-.38h13.83Zm-3.33,2.22-.45,0h-9c-.58,0-.48,0-.7.47q-1.32,3-2.63,6.09a.35.35,0,0,1-.37.25h-3a.32.32,0,0,1-.35-.23c-.15-.39-.31-.78-.47-1.17l-5-12.24q-1.38-3.4-2.75-6.8a.41.41,0,0,0-.46-.3h-9.78l-.37,0c0,.15.08.25.12.35l2.3,5.56,4.76,11.5q1.39,3.36,2.79,6.72a.69.69,0,0,1,0,.59c-.35.84-.69,1.68-1,2.52L123.8,68.84l-2.58,6.27-.95,2.31a3.7,3.7,0,0,0-.11.37l.34,0h9.81a.42.42,0,0,0,.46-.31c.36-.91.74-1.81,1.12-2.71l5.25-12.6c.58-1.39,1.15-2.78,1.73-4.17.2-.48.12-.41.61-.41h2.82a.38.38,0,0,1,.41.28c.9,2.19,1.82,4.37,2.73,6.56l5.43,13.06c.09.22.2.35.46.31h10a1,1,0,0,0,.2-.07c0-.11-.07-.2-.11-.29l-.47-1.14-5.26-12.78q-2.05-5-4.11-10a.78.78,0,0,1,0-.64c.38-1,.75-1.91,1.13-2.87l2.7-6.91C155.38,43,155.41,42.9,155.46,42.74Z"/><path class="cls-3" d="M164.56,26.56c0,.1-.05.18-.09.26q-2.55,6-5.1,12.05a.44.44,0,0,1-.48.31H145.74c-.35,0-.7,0-1.07-.06a1.83,1.83,0,0,1,0-.26,16.34,16.34,0,0,1,2.56-6.63,11.75,11.75,0,0,1,4.11-3.7,14.53,14.53,0,0,1,4.7-1.67,16.69,16.69,0,0,1,2.24-.25c2,0,4,0,6-.06Zm-3.48,2.26-.17,0a27.83,27.83,0,0,0-4.39.19,11,11,0,0,0-2.22.54,11.27,11.27,0,0,0-3,1.81A9.68,9.68,0,0,0,147.78,37a3.11,3.11,0,0,0,0,.33l.35,0h9a.42.42,0,0,0,.46-.3c.14-.38.31-.74.47-1.11l2.9-6.84C161,29.06,161,28.95,161.08,28.81Z"/><path class="cls-2" d="M155.46,42.74c-.05.16-.08.26-.12.36L152.64,50c-.37,1-.74,1.92-1.13,2.87a.78.78,0,0,0,0,.64q2.06,5,4.11,10l5.26,12.78.47,1.14c0,.09.07.18.11.29a1,1,0,0,1-.2.07h-10c-.25,0-.37-.09-.46-.31l-5.43-13.06c-.91-2.19-1.82-4.37-2.73-6.56a.38.38,0,0,0-.41-.28h-2.82c-.49,0-.41-.07-.61.41-.58,1.39-1.15,2.78-1.73,4.17l-5.25,12.6c-.38.9-.76,1.8-1.12,2.71a.42.42,0,0,1-.46.31H120.5l-.34,0a3.7,3.7,0,0,1,.11-.37l.95-2.31,2.58-6.27L129.07,56c.35-.84.69-1.69,1-2.52a.69.69,0,0,0,0-.59q-1.4-3.36-2.79-6.72l-4.76-11.5-2.3-5.56c0-.1-.07-.2-.12-.35l.37,0h9.78a.41.41,0,0,1,.46.3q1.36,3.41,2.75,6.8l5,12.24c.16.39.32.78.47,1.17a.32.32,0,0,0,.35.23h3a.35.35,0,0,0,.37-.25q1.3-3,2.63-6.09c.22-.5.12-.47.7-.47h9ZM130.37,77.38l8.4-20.18h4.1l8.39,20.17h9.63l-.13-.35q-4.83-11.75-9.67-23.5a.78.78,0,0,1,0-.64q1.85-4.71,3.69-9.43l.11-.32h-9.09l-2.91,6.74-.22,0H139c-.17,0-.29,0-.33-.21a.9.9,0,0,0-.05-.14l-6.55-16.15c-.54-1.33-1.08-2.66-1.62-4-.07-.17-.15-.25-.34-.24s-.37,0-.56,0H121.1l-.36,0,.13.34q4.84,11.68,9.68,23.37a.72.72,0,0,1,0,.61q-2.82,6.83-5.63,13.67L120.87,77l-.13.34Z"/><path class="cls-2" d="M161.08,28.81c0,.14-.07.25-.12.35L158.06,36c-.16.37-.33.73-.47,1.11a.42.42,0,0,1-.46.3h-9l-.35,0a3.11,3.11,0,0,1,0-.33,9.68,9.68,0,0,1,3.49-5.72,11.27,11.27,0,0,1,3-1.81,11,11,0,0,1,2.22-.54,27.83,27.83,0,0,1,4.39-.19ZM157.19,37l.11-.24,3.16-7.49s0,0,0,0l0,0h-.17c-1,0-1.94,0-2.9.11a11,11,0,0,0-2.53.47,10.34,10.34,0,0,0-3.32,1.89,9.27,9.27,0,0,0-3.2,4.9c0,.13-.06.26-.1.42Z"/><path class="cls-2" d="M130.37,77.38h-9.62l.13-.34,4.05-9.85q2.81-6.84,5.63-13.67a.72.72,0,0,0,0-.61q-4.85-11.68-9.68-23.37l-.13-.34.36,0h8.46c.19,0,.37,0,.56,0s.27.07.34.24c.53,1.34,1.08,2.67,1.62,4l6.55,16.15a.9.9,0,0,1,.05.14c0,.18.16.22.33.21h3.64l.22,0,2.91-6.74h9.09l-.11.32q-1.84,4.71-3.69,9.43a.78.78,0,0,0,0,.64q4.84,11.75,9.67,23.5l.13.35h-9.63L142.86,57.2h-4.1Z"/><path class="cls-2" d="M157.19,37h-9c0-.16.07-.29.1-.42a9.27,9.27,0,0,1,3.2-4.9,10.34,10.34,0,0,1,3.32-1.89,11,11,0,0,1,2.53-.47c1-.07,1.94-.08,2.9-.11h.17l0,0s0,0,0,0l-3.16,7.49Z"/><path class="cls-1" d="M117.79,44.84c-4.68-13.12-19.28-25-29-23.41.17,2.75-.72,5.6.72,8.54a10.57,10.57,0,0,1-2.54.81c-4.85.32-7.92,3.36-10.72,6.83-2.34,2.89-4.61,5.81-8.41,6.95a16.17,16.17,0,0,0-2.51,1.22,3.29,3.29,0,0,0-1.6-.05,3.35,3.35,0,0,0-1.21.36l-.46.21c-1.75.87-2.8,2.3-2.36,3.2l.06.1a.84.84,0,0,0,.15.2C63,54.8,67.4,57.83,72.41,60c9.09,4,17.35,9.16,23.75,16.87,2.45,3,4.51,6.23,6.76,9.36C116.55,78.4,123.19,60,117.79,44.84ZM65.17,49.78c2.32-.22,4.42-.33,6.49-.64a20.86,20.86,0,0,0,9.91-4.8A27.51,27.51,0,0,1,88,40.27c4-1.68,7.88.92,8.35,5.29C96.88,50.71,94.17,55,89.07,57,81.88,59.83,70,56.33,65.17,49.78Zm39.12,30.41L89.87,64.24a42.14,42.14,0,0,1,18.92,11.46Z"/><path class="cls-2" d="M102.77,86.92l-.26-.37c-.7-1-1.39-2-2.08-3-1.47-2.13-3-4.34-4.66-6.35C90.1,70.38,82.61,65.06,72.21,60.49c-5.85-2.57-9.88-5.88-12.67-10.41a1.34,1.34,0,0,1-.19-.27l-.06-.11c-.59-1.19.52-2.85,2.58-3.87l.49-.22a3.73,3.73,0,0,1,1.36-.39,3.84,3.84,0,0,1,1.58,0l.57-.31a9.4,9.4,0,0,1,1.85-.86c3.54-1.06,5.69-3.71,8-6.53l.21-.25c2.6-3.21,5.81-6.67,11.08-7a5.52,5.52,0,0,0,1.64-.48l.26-.1A12.34,12.34,0,0,1,88.26,24a21.08,21.08,0,0,0,0-2.54l0-.45.45-.07c9.85-1.63,24.76,10.36,29.54,23.74h0c5.44,15.24-1.33,34.1-15.1,42ZM64.51,46.15a3.85,3.85,0,0,0-.67.06,2.94,2.94,0,0,0-1.08.31l-.45.2c-1.55.77-2.41,2-2.13,2.53l.18.26c2.68,4.37,6.58,7.57,12.25,10.06,10.55,4.63,18.15,10,23.93,17,1.7,2,3.23,4.27,4.71,6.43.6.87,1.19,1.73,1.8,2.59,13.1-7.83,19.5-25.94,14.27-40.6-4.56-12.79-18.55-24.28-28-23.15,0,.74,0,1.48-.07,2.2A10.83,10.83,0,0,0,90,29.75l.25.51-.54.18c-.23.08-.47.17-.71.27a6.35,6.35,0,0,1-2,.56c-4.87.32-7.9,3.59-10.37,6.64l-.2.25C74.18,41,71.84,43.88,68,45a8.54,8.54,0,0,0-1.65.77l-.78.42-.19.09-.2-.07A2.12,2.12,0,0,0,64.51,46.15Zm39.77,34.77-16-17.64,1.69.49a42.49,42.49,0,0,1,19.14,11.6l.34.35ZM91.47,65.27l12.85,14.2,3.77-3.76A41.41,41.41,0,0,0,91.47,65.27ZM83.3,58.49c-6.85,0-14.78-3.33-18.53-8.41l-.52-.71.88-.08,2.16-.19c1.49-.12,2.91-.24,4.3-.45,3.24-.49,6.22-1.94,9.68-4.7a28,28,0,0,1,6.53-4.14,6.33,6.33,0,0,1,5.78.3,7,7,0,0,1,3.26,5.4c.58,5.39-2.26,9.85-7.57,12A16.28,16.28,0,0,1,83.3,58.49ZM66.14,50.2c5,5.9,15.94,9,22.75,6.33,4.87-1.92,7.47-6,6.94-10.92A6,6,0,0,0,93.06,41a5.35,5.35,0,0,0-4.88-.23,27.15,27.15,0,0,0-6.29,4c-3.6,2.88-6.73,4.39-10.15,4.91-1.43.22-2.85.33-4.37.46Z"/><path class="cls-3" d="M65.17,49.78c2.32-.22,4.42-.33,6.49-.64a20.86,20.86,0,0,0,9.91-4.8A27.51,27.51,0,0,1,88,40.27c4-1.68,7.88.92,8.35,5.29C96.88,50.71,94.17,55,89.07,57,81.88,59.83,70,56.33,65.17,49.78Z"/><path class="cls-3" d="M83.33,59c-7,0-15.13-3.41-19-8.6l-1-1.42,1.76-.17,2.17-.19c1.49-.12,2.89-.24,4.26-.45,3.14-.48,6.06-1.89,9.44-4.59a28.49,28.49,0,0,1,6.65-4.21,6.81,6.81,0,0,1,6.22.33,7.5,7.5,0,0,1,3.5,5.78c.6,5.62-2.35,10.28-7.88,12.47A16.7,16.7,0,0,1,83.33,59ZM67.2,50.61c5.09,5.18,15.28,7.92,21.51,5.46,4.65-1.84,7.13-5.72,6.63-10.4a5.52,5.52,0,0,0-2.53-4.27,4.86,4.86,0,0,0-4.44-.2,26.7,26.7,0,0,0-6.17,3.92c-3.67,2.93-6.88,4.48-10.39,5-1.44.22-2.88.34-4.4.46Z"/><path class="cls-3" d="M89.87,64.24a42.14,42.14,0,0,1,18.92,11.46l-4.49,4.48Z"/><path class="cls-3" d="M104.26,81.64,86.76,62.3l3.38,1A43,43,0,0,1,109.5,75l.69.71ZM93.18,66.41l11.15,12.32,3-3A40.91,40.91,0,0,0,93.18,66.41Z"/><path d="M49.85,110.05H48.53v-6.72l-1,4.47h-.41c-.78,0-.93-.78-1-1.06l-.78-3.41v6.72H44V97h.82a.59.59,0,0,1,.6.48L47,105l1.47-7.5A.59.59,0,0,1,49,97h.82Z"/><path d="M62.55,96.89a1.68,1.68,0,0,1,1.62,1.66v10a1.67,1.67,0,0,1-1.62,1.64h-1a1.69,1.69,0,0,1-1.68-1.64v-10a1.66,1.66,0,0,1,1.68-1.66ZM62.1,109a.71.71,0,0,0,.71-.73V98.79a.71.71,0,0,0-.71-.73H61.9a.74.74,0,0,0-.71.73v9.49a.74.74,0,0,0,.71.73Z"/><path d="M79.08,98a.7.7,0,0,1-.71.35h-1a.34.34,0,0,0-.33.32v11.39H76c-.32,0-.37-.19-.37-.28V98.34H73.8v-.91a.41.41,0,0,1,.41-.41h5.32Z"/><path d="M91.41,96.89A1.68,1.68,0,0,1,93,98.55v10a1.67,1.67,0,0,1-1.62,1.64h-1a1.68,1.68,0,0,1-1.67-1.64v-10a1.66,1.66,0,0,1,1.67-1.66ZM91,109a.71.71,0,0,0,.71-.73V98.79a.71.71,0,0,0-.71-.73h-.21a.74.74,0,0,0-.71.73v9.49a.74.74,0,0,0,.71.73Z"/><path d="M106.43,110.05v-4.77c0-.63-.33-.84-.69-.84H105v5.6h-1.34V97h2.44a1.64,1.64,0,0,1,1.64,1.64v4s.06,1-.48,1.15c.52.26.48,1.23.48,1.23v5Zm-.69-6.87c.35,0,.69-.15.69-.74v-3.5a.63.63,0,0,0-.69-.67H105v4.91Z"/><path d="M121.36,100.3V98.79a.71.71,0,1,0-1.42,0V100a4.38,4.38,0,0,0,.58,1.75l1.6,3a4.18,4.18,0,0,1,.6,2.07v1.66a1.66,1.66,0,0,1-1.68,1.66h-.84a1.69,1.69,0,0,1-1.62-1.66v-1.34a.76.76,0,0,1,.37-.73c.11,0,.65-.28,1-.43v2.27a.71.71,0,1,0,1.42,0v-1.49a4.51,4.51,0,0,0-.58-1.77l-1.6-3a4.18,4.18,0,0,1-.6-2.07V98.62a1.73,1.73,0,0,1,1.67-1.73h.84a1.73,1.73,0,0,1,1.62,1.73v.5a.76.76,0,0,1-.37.73C122.24,99.91,121.71,100.15,121.36,100.3Z"/></svg>