<svg id="Слой_1" data-name="Слой 1" xmlns="http://www.w3.org/2000/svg" viewBox="0 0 25 25"><defs><style>.cls-1{fill:#ff931e;}</style></defs><title>sms</title><circle class="cls-1" cx="12.5" cy="12.5" r="12.5"/><path d="M4.15,11.58c.05-.3.09-.6.16-.9A5.73,5.73,0,0,1,9,6.39a6.35,6.35,0,0,1,.91-.07h5.3a5.66,5.66,0,0,1,1,11.23,12.43,12.43,0,0,1-1.72.1c-.67,0-1.34,0-2,0a.46.46,0,0,0-.25.08L8.57,20.39l-.35.24a.31.31,0,0,1-.37,0,.34.34,0,0,1-.2-.36,3.2,3.2,0,0,1,.11-.48c.24-.73.49-1.46.74-2.2l0-.06a12.24,12.24,0,0,1-1.15-.47A5.69,5.69,0,0,1,4.18,12.5a.85.85,0,0,0,0-.11Q4.15,12,4.15,11.58ZM8.58,19.5l0,0,.14-.1L12,17.06a.51.51,0,0,1,.28-.09H15.1a4.92,4.92,0,0,0,5-5.87A4.82,4.82,0,0,0,15.41,7c-1.88,0-3.76,0-5.64,0A5,5,0,0,0,9,7.07a4.89,4.89,0,0,0-4.16,5.46A4.9,4.9,0,0,0,8.8,16.84l.65.12Z"/><path d="M14.26,10.09l.24,3.86H14l-.18-3.26h0c0,.1-.06.2-.09.3-.34.95-.68,1.89-1,2.84-.06.18-.2.08-.3.1s-.14,0-.17-.13l-1-3.05,0,0L11,14h-.49l.28-3.87a5.4,5.4,0,0,1,.54,0c.05,0,.12.08.14.14.32,1,.64,1.93,1,2.89l0,.09.06-.17,1-2.86a.17.17,0,0,1,.12-.1Z"/><path d="M9.83,10.17l-.12.36c-.26,0-.51-.1-.76-.12a.82.82,0,0,0-.38.08.55.55,0,0,0-.12.95,3.25,3.25,0,0,0,.53.28l.34.15A1.06,1.06,0,0,1,10,13a1.09,1.09,0,0,1-.9.92,2.11,2.11,0,0,1-1.25-.09c-.14-.05-.21-.12-.14-.27a1.69,1.69,0,0,0,.06-.23,1.89,1.89,0,0,0,.88.23h.13a.68.68,0,0,0,.68-.5.66.66,0,0,0-.38-.76c-.13-.07-.28-.12-.41-.19a3.36,3.36,0,0,1-.52-.27,1,1,0,0,1,.21-1.74A2,2,0,0,1,9.83,10.17Z"/><path d="M15.1,13.74l.1-.4a1.86,1.86,0,0,0,1,.23.66.66,0,0,0,.69-.75.57.57,0,0,0-.28-.44c-.16-.1-.33-.16-.49-.25a3.49,3.49,0,0,1-.6-.33,1,1,0,0,1,.19-1.66,1.92,1.92,0,0,1,1.57,0l-.12.37c-.28,0-.54-.1-.8-.12a.65.65,0,0,0-.55.23.54.54,0,0,0,.09.79,4.58,4.58,0,0,0,.57.3A4.23,4.23,0,0,1,17,12a1.07,1.07,0,0,1,0,1.71A1.85,1.85,0,0,1,15.1,13.74Z"/></svg>